font.ufo
<glyph name="exclam" format="1">
  <advance width="273"/>
  <unicode hex="0021"/>
  <outline>
    <contour>
      <point x="207" y="229" type="line"/>
      <point x="217" y="722" type="line"/>
      <point x="57" y="722" type="line"/>
      <point x="67" y="229" type="line"/>
    </contour>
    <contour>
      <point x="209" y="61" type="curve"/>
      <point x="209" y="108"/>
      <point x="178" y="132"/>
      <point x="135" y="132" type="curve"/>
      <point x="92" y="132"/>
      <point x="64" y="106"/>
      <point x="64" y="61" type="curve"/>
      <point x="209" y="61"/>
      <point x="64" y="61"/>
      <point x="209" y="61" type="curve"/>
      <point x="209" y="13"/>
      <point x="179" y="-9"/>
      <point x="135" y="-9" type="curve"/>
      <point x="91" y="-9"/>
      <point x="64" y="15"/>
      <point x="64" y="61" type="curve"/>
      <point x="209" y="61"/>
      <point x="64" y="61"/>
    </contour>
  </outline>
</glyph>
<glyph name="quotedbl" format="1">
  <advance width="426"/>
  <unicode hex="0022"/>
  <outline>
    <contour>
      <point x="181" y="626" type="line"/>
      <point x="191" y="844" type="line"/>
      <point x="50" y="844" type="line"/>
      <point x="60" y="626" type="line"/>
    </contour>
    <contour>
      <point x="367" y="626" type="line"/>
      <point x="376" y="844" type="line"/>
      <point x="236" y="844" type="line"/>
      <point x="246" y="626" type="line"/>
    </contour>
  </outline>
</glyph>
<glyph name="numbersign" format="1">
  <advance width="580"/>
  <unicode hex="0023"/>
  <outline>
    <contour>
      <point x="41" y="218" type="line"/>
      <point x="464" y="218" type="line"/>
      <point x="491" y="327" type="line"/>
      <point x="69" y="327" type="line"/>
    </contour>
    <contour>
      <point x="89" y="430" type="line"/>
      <point x="514" y="430" type="line"/>
      <point x="541" y="539" type="line"/>
      <point x="115" y="539" type="line"/>
    </contour>
    <contour>
      <point x="384" y="39" type="line"/>
      <point x="546" y="722" type="line"/>
      <point x="405" y="722" type="line"/>
      <point x="243" y="39" type="line"/>
    </contour>
    <contour>
      <point x="172" y="46" type="line"/>
      <point x="333" y="722" type="line"/>
      <point x="193" y="722" type="line"/>
      <point x="37" y="46" type="line"/>
    </contour>
  </outline>
</glyph>
<glyph name="quotesingle" format="1">
  <advance width="240"/>
  <unicode hex="0027"/>
  <outline>
    <contour>
      <point x="181" y="626" type="line"/>
      <point x="191" y="844" type="line"/>
      <point x="50" y="844" type="line"/>
      <point x="60" y="626" type="line"/>
    </contour>
  </outline>
</glyph>
<glyph name="parenright" format="1">
  <advance width="337"/>
  <unicode hex="0029"/>
  <outline>
    <contour>
      <point x="78" y="-294" type="curve"/>
      <point x="228" y="-92"/>
      <point x="300" y="76"/>
      <point x="300" y="329" type="curve"/>
      <point x="300" y="576"/>
      <point x="235" y="741"/>
      <point x="81" y="933" type="curve"/>
      <point x="-2" y="857"/>
      <point x="81" y="933"/>
      <point x="-2" y="857" type="curve"/>
      <point x="127" y="688"/>
      <point x="163" y="536"/>
      <point x="163" y="324" type="curve"/>
      <point x="163" y="108"/>
      <point x="119" y="-46"/>
      <point x="-5" y="-225" type="curve"/>
      <point x="78" y="-294"/>
      <point x="-5" y="-225"/>
    </contour>
  </outline>
</glyph>
<glyph name="comma" format="1">
  <advance width="282"/>
  <unicode hex="002C"/>
  <outline>
    <contour>
      <point x="58" y="-119" type="line"/>
      <point x="153" y="-118"/>
      <point x="216" y="-49"/>
      <point x="216" y="57" type="curve"/>
      <point x="216" y="144"/>
      <point x="183" y="190"/>
      <point x="137" y="190" type="curve"/>
      <point x="94" y="190"/>
      <point x="65" y="165"/>
      <point x="65" y="119" type="curve"/>
      <point x="65" y="81"/>
      <point x="86" y="52"/>
      <point x="124" y="52" type="curve"/>
      <point x="124" y="25"/>
      <point x="122" y="-30"/>
      <point x="57" y="-42" type="curve"/>
    </contour>
  </outline>
</glyph>
<glyph name="hyphen" format="1">
  <advance width="344"/>
  <unicode hex="002D"/>
  <outline>
    <contour>
      <point x="63" y="224" type="curve"/>
      <point x="135" y="224"/>
      <point x="208" y="224"/>
      <point x="281" y="224" type="curve"/>
      <point x="281" y="343"/>
      <point x="281" y="224"/>
      <point x="281" y="343" type="curve"/>
      <point x="208" y="343"/>
      <point x="135" y="343"/>
      <point x="63" y="343" type="curve"/>
      <point x="63" y="224"/>
      <point x="63" y="343"/>
    </contour>
  </outline>
</glyph>
<glyph name="period" format="1">
  <advance width="259"/>
  <unicode hex="002E"/>
  <outline>
    <contour>
      <point x="202" y="61" type="curve"/>
      <point x="202" y="108"/>
      <point x="171" y="132"/>
      <point x="128" y="132" type="curve"/>
      <point x="85" y="132"/>
      <point x="57" y="106"/>
      <point x="57" y="61" type="curve"/>
      <point x="202" y="61"/>
      <point x="57" y="61"/>
      <point x="202" y="61" type="curve"/>
      <point x="202" y="13"/>
      <point x="172" y="-9"/>
      <point x="128" y="-9" type="curve"/>
      <point x="84" y="-9"/>
      <point x="57" y="15"/>
      <point x="57" y="61" type="curve"/>
      <point x="202" y="61"/>
      <point x="57" y="61"/>
    </contour>
  </outline>
</glyph>
<glyph name="slash" format="1">
  <advance width="506"/>
  <unicode hex="002F"/>
  <outline>
    <contour>
      <point x="164" y="-14" type="curve"/>
      <point x="270" y="252"/>
      <point x="377" y="517"/>
      <point x="483" y="783" type="curve"/>
      <point x="342" y="783"/>
      <point x="483" y="783"/>
      <point x="342" y="783" type="curve"/>
      <point x="236" y="517"/>
      <point x="129" y="252"/>
      <point x="23" y="-14" type="curve"/>
      <point x="164" y="-14"/>
      <point x="23" y="-14"/>
    </contour>
  </outline>
</glyph>
<glyph name="one" format="1">
  <advance width="418"/>
  <unicode hex="0031"/>
  <outline>
    <contour>
      <point x="244" y="0" type="curve"/>
      <point x="289" y="0"/>
      <point x="335" y="0"/>
      <point x="381" y="0" type="curve"/>
      <point x="381" y="109"/>
      <point x="381" y="0"/>
      <point x="381" y="109" type="curve"/>
      <point x="244" y="109"/>
      <point x="381" y="109"/>
      <point x="244" y="109" type="curve"/>
      <point x="244" y="0"/>
      <point x="244" y="109"/>
    </contour>
    <contour>
      <point x="244" y="109" type="curve"/>
      <point x="106" y="109"/>
      <point x="244" y="109"/>
      <point x="106" y="109" type="curve"/>
      <point x="106" y="0"/>
      <point x="106" y="109"/>
      <point x="106" y="0" type="curve"/>
      <point x="152" y="0"/>
      <point x="198" y="0"/>
      <point x="244" y="0" type="curve"/>
      <point x="244" y="109"/>
      <point x="244" y="0"/>
    </contour>
    <contour>
      <point x="100" y="477" type="curve"/>
      <point x="275" y="649"/>
      <point x="100" y="477"/>
      <point x="275" y="649" type="curve"/>
      <point x="172" y="722"/>
      <point x="275" y="649"/>
      <point x="172" y="722" type="curve"/>
      <point x="17" y="565"/>
      <point x="172" y="722"/>
      <point x="17" y="565" type="curve"/>
      <point x="100" y="477"/>
      <point x="17" y="565"/>
    </contour>
    <contour>
      <point x="313" y="0" type="curve"/>
      <point x="313" y="241"/>
      <point x="313" y="481"/>
      <point x="313" y="722" type="curve"/>
      <point x="172" y="722"/>
      <point x="313" y="722"/>
      <point x="172" y="722" type="curve"/>
      <point x="172" y="481"/>
      <point x="172" y="241"/>
      <point x="172" y="0" type="curve"/>
      <point x="313" y="0"/>
      <point x="172" y="0"/>
    </contour>
  </outline>
</glyph>
<glyph name="four" format="1">
  <advance width="514"/>
  <unicode hex="0034"/>
  <outline>
    <contour>
      <point x="332" y="108" type="line"/>
      <point x="207" y="108" type="line"/>
      <point x="207" y="0" type="line"/>
      <point x="332" y="0" type="line"/>
    </contour>
    <contour>
      <point x="332" y="0" type="line"/>
      <point x="460" y="0" type="line"/>
      <point x="460" y="108" type="line"/>
      <point x="332" y="108" type="line"/>
    </contour>
    <contour>
      <point x="86" y="249" type="line"/>
      <point x="379" y="694" type="line"/>
      <point x="263" y="697" type="line"/>
      <point x="30" y="347" type="line"/>
    </contour>
    <contour>
      <point x="480" y="347" type="line"/>
      <point x="30" y="347" type="line"/>
      <point x="31" y="227" type="line"/>
      <point x="480" y="227" type="line"/>
    </contour>
    <contour>
      <point x="404" y="46" type="line"/>
      <point x="404" y="697" type="line"/>
      <point x="266" y="697" type="line"/>
      <point x="266" y="46" type="line"/>
    </contour>
  </outline>
</glyph>
<glyph name="five" format="1">
  <advance width="476"/>
  <unicode hex="0035"/>
  <outline>
    <contour>
      <point x="54" y="722" type="curve"/>
      <point x="54" y="625"/>
      <point x="54" y="517"/>
      <point x="54" y="379" type="curve"/>
      <point x="188" y="336"/>
      <point x="54" y="379"/>
      <point x="188" y="336" type="curve"/>
      <point x="188" y="425"/>
      <point x="188" y="525"/>
      <point x="188" y="614" type="curve"/>
      <point x="54" y="722"/>
      <point x="188" y="614"/>
    </contour>
    <contour>
      <point x="188" y="336" type="curve"/>
      <point x="197" y="353"/>
      <point x="208" y="366"/>
      <point x="230" y="366" type="curve"/>
      <point x="280" y="366"/>
      <point x="292" y="310"/>
      <point x="292" y="244" type="curve"/>
      <point x="292" y="174"/>
      <point x="264" y="108"/>
      <point x="204" y="108" type="curve"/>
      <point x="166" y="108"/>
      <point x="142" y="119"/>
      <point x="112" y="140" type="curve"/>
      <point x="42" y="43"/>
      <point x="112" y="140"/>
      <point x="42" y="43" type="curve"/>
      <point x="92" y="10"/>
      <point x="137" y="-5"/>
      <point x="197" y="-5" type="curve"/>
      <point x="335" y="-5"/>
      <point x="432" y="100"/>
      <point x="432" y="242" type="curve"/>
      <point x="432" y="378"/>
      <point x="370" y="482"/>
      <point x="251" y="482" type="curve"/>
      <point x="183" y="482"/>
      <point x="122" y="463"/>
      <point x="54" y="379" type="curve"/>
      <point x="188" y="336"/>
      <point x="54" y="379"/>
    </contour>
    <contour>
      <point x="405" y="722" type="curve"/>
      <point x="301" y="722"/>
      <point x="158" y="722"/>
      <point x="54" y="722" type="curve"/>
      <point x="188" y="614"/>
      <point x="54" y="722"/>
      <point x="188" y="614" type="curve"/>
      <point x="248" y="614"/>
      <point x="345" y="614"/>
      <point x="405" y="614" type="curve"/>
      <point x="405" y="722"/>
      <point x="405" y="614"/>
    </contour>
  </outline>
</glyph>
<glyph name="six" format="1">
  <advance width="535"/>
  <unicode hex="0036"/>
  <outline>
    <contour>
      <point x="161" y="209" type="curve"/>
      <point x="178" y="280"/>
      <point x="211" y="336"/>
      <point x="274" y="336" type="curve"/>
      <point x="333" y="336"/>
      <point x="350" y="288"/>
      <point x="350" y="226" type="curve"/>
      <point x="350" y="166"/>
      <point x="331" y="118"/>
      <point x="277" y="118" type="curve"/>
      <point x="207" y="118"/>
      <point x="181" y="179"/>
      <point x="181" y="260" type="curve"/>
      <point x="181" y="446"/>
      <point x="273" y="561"/>
      <point x="459" y="627" type="curve"/>
      <point x="421" y="728"/>
      <point x="459" y="627"/>
      <point x="421" y="728" type="curve"/>
      <point x="184" y="648"/>
      <point x="46" y="502"/>
      <point x="46" y="254" type="curve"/>
      <point x="46" y="96"/>
      <point x="126" y="-12"/>
      <point x="275" y="-12" type="curve"/>
      <point x="413" y="-12"/>
      <point x="491" y="83"/>
      <point x="491" y="226" type="curve"/>
      <point x="491" y="362"/>
      <point x="421" y="450"/>
      <point x="300" y="450" type="curve"/>
      <point x="170" y="450"/>
      <point x="101" y="323"/>
      <point x="95" y="237" type="curve"/>
      <point x="161" y="209"/>
      <point x="95" y="237"/>
    </contour>
  </outline>
</glyph>
<glyph name="seven" format="1">
  <advance width="471"/>
  <unicode hex="0037"/>
  <outline>
    <contour>
      <point x="169" y="529" type="line"/>
      <point x="169" y="614" type="line"/>
      <point x="59" y="614" type="line"/>
      <point x="59" y="529" type="line"/>
    </contour>
    <contour>
      <point x="59" y="614" type="line"/>
      <point x="452" y="614" type="line"/>
      <point x="452" y="722" type="line"/>
      <point x="59" y="722" type="line"/>
    </contour>
    <contour>
      <point x="371" y="722" type="line"/>
      <point x="46" y="0" type="line"/>
      <point x="186" y="0" type="line"/>
      <point x="452" y="614" type="line"/>
    </contour>
  </outline>
</glyph>
<glyph name="eight" format="1">
  <advance width="533"/>
  <unicode hex="0038"/>
  <outline>
    <contour>
      <point x="66" y="537" type="curve"/>
      <point x="66" y="433"/>
      <point x="134" y="391"/>
      <point x="226" y="339" type="curve"/>
      <point x="292" y="299"/>
      <point x="340" y="265"/>
      <point x="340" y="194" type="curve"/>
      <point x="340" y="143"/>
      <point x="317" y="109"/>
      <point x="268" y="109" type="curve"/>
      <point x="217" y="109"/>
      <point x="193" y="142"/>
      <point x="193" y="194" type="curve"/>
      <point x="193" y="267"/>
      <point x="242" y="297"/>
      <point x="309" y="338" type="curve"/>
      <point x="398" y="391"/>
      <point x="467" y="433"/>
      <point x="467" y="535" type="curve"/>
      <point x="467" y="659"/>
      <point x="394" y="727"/>
      <point x="268" y="727" type="curve"/>
      <point x="144" y="727"/>
      <point x="66" y="658"/>
      <point x="66" y="537" type="curve"/>
      <point x="207" y="537"/>
      <point x="66" y="537"/>
      <point x="207" y="537" type="curve"/>
      <point x="207" y="580"/>
      <point x="222" y="614"/>
      <point x="264" y="614" type="curve"/>
      <point x="307" y="614"/>
      <point x="326" y="582"/>
      <point x="326" y="535" type="curve"/>
      <point x="326" y="474"/>
      <point x="281" y="448"/>
      <point x="225" y="415" type="curve"/>
      <point x="124" y="356"/>
      <point x="52" y="308"/>
      <point x="52" y="194" type="curve"/>
      <point x="52" y="66"/>
      <point x="131" y="-5"/>
      <point x="261" y="-5" type="curve"/>
      <point x="395" y="-5"/>
      <point x="481" y="64"/>
      <point x="481" y="194" type="curve"/>
      <point x="481" y="307"/>
      <point x="409" y="358"/>
      <point x="310" y="416" type="curve"/>
      <point x="253" y="451"/>
      <point x="207" y="474"/>
      <point x="207" y="537" type="curve"/>
      <point x="66" y="537"/>
      <point x="207" y="537"/>
    </contour>
  </outline>
</glyph>
<glyph name="nine" format="1">
  <advance width="536"/>
  <unicode hex="0039"/>
  <outline>
    <contour>
      <point x="385" y="475" type="curve"/>
      <point x="361" y="409"/>
      <point x="329" y="386"/>
      <point x="267" y="386" type="curve"/>
      <point x="207" y="386"/>
      <point x="180" y="437"/>
      <point x="180" y="502" type="curve"/>
      <point x="180" y="559"/>
      <point x="205" y="604"/>
      <point x="256" y="604" type="curve"/>
      <point x="329" y="604"/>
      <point x="355" y="543"/>
      <point x="355" y="462" type="curve"/>
      <point x="355" y="276"/>
      <point x="265" y="157"/>
      <point x="88" y="92" type="curve"/>
      <point x="143" y="-15"/>
      <point x="88" y="92"/>
      <point x="143" y="-15" type="curve"/>
      <point x="347" y="58"/>
      <point x="489" y="220"/>
      <point x="489" y="468" type="curve"/>
      <point x="489" y="626"/>
      <point x="410" y="734"/>
      <point x="261" y="734" type="curve"/>
      <point x="123" y="734"/>
      <point x="45" y="639"/>
      <point x="45" y="496" type="curve"/>
      <point x="45" y="360"/>
      <point x="122" y="272"/>
      <point x="254" y="272" type="curve"/>
      <point x="367" y="272"/>
      <point x="425" y="376"/>
      <point x="452" y="449" type="curve"/>
      <point x="385" y="475"/>
      <point x="452" y="449"/>
    </contour>
  </outline>
</glyph>
<glyph name="semicolon" format="1">
  <advance width="291"/>
  <unicode hex="003B"/>
  <outline>
    <contour>
      <point x="62" y="-214" type="line"/>
      <point x="166" y="-213"/>
      <point x="234" y="-144"/>
      <point x="234" y="-38" type="curve"/>
      <point x="234" y="49"/>
      <point x="198" y="95"/>
      <point x="147" y="95" type="curve"/>
      <point x="101" y="95"/>
      <point x="69" y="70"/>
      <point x="69" y="24" type="curve"/>
      <point x="69" y="-14"/>
      <point x="91" y="-43"/>
      <point x="134" y="-43" type="curve"/>
      <point x="134" y="-70"/>
      <point x="131" y="-125"/>
      <point x="61" y="-137" type="curve"/>
    </contour>
    <contour>
      <point x="219" y="377" type="curve"/>
      <point x="219" y="424"/>
      <point x="188" y="448"/>
      <point x="146" y="448" type="curve"/>
      <point x="102" y="448"/>
      <point x="74" y="422"/>
      <point x="74" y="377" type="curve"/>
      <point x="219" y="377"/>
      <point x="74" y="377"/>
      <point x="219" y="377" type="curve"/>
      <point x="219" y="329"/>
      <point x="189" y="307"/>
      <point x="146" y="307" type="curve"/>
      <point x="101" y="307"/>
      <point x="74" y="331"/>
      <point x="74" y="377" type="curve"/>
      <point x="219" y="377"/>
      <point x="74" y="377"/>
    </contour>
  </outline>
</glyph>
<glyph name="equal" format="1">
  <advance width="605"/>
  <unicode hex="003D"/>
  <outline>
    <contour>
      <point x="67" y="160" type="curve"/>
      <point x="224" y="160"/>
      <point x="381" y="160"/>
      <point x="538" y="160" type="curve"/>
      <point x="538" y="275"/>
      <point x="538" y="160"/>
      <point x="538" y="275" type="curve"/>
      <point x="381" y="275"/>
      <point x="224" y="275"/>
      <point x="67" y="275" type="curve"/>
      <point x="67" y="160"/>
      <point x="67" y="275"/>
    </contour>
    <contour>
      <point x="67" y="382" type="curve"/>
      <point x="224" y="382"/>
      <point x="381" y="382"/>
      <point x="538" y="382" type="curve"/>
      <point x="538" y="497"/>
      <point x="538" y="382"/>
      <point x="538" y="497" type="curve"/>
      <point x="381" y="497"/>
      <point x="224" y="497"/>
      <point x="67" y="497" type="curve"/>
      <point x="67" y="382"/>
      <point x="67" y="497"/>
    </contour>
  </outline>
</glyph>
<glyph name="at" format="1">
  <advance width="730"/>
  <unicode hex="0040"/>
  <outline>
    <contour>
      <point x="470" y="-6" type="curve"/>
      <point x="440" y="-25"/>
      <point x="417" y="-33"/>
      <point x="381" y="-33" type="curve"/>
      <point x="248" y="-33"/>
      <point x="168" y="70"/>
      <point x="168" y="214" type="curve"/>
      <point x="168" y="350"/>
      <point x="242" y="448"/>
      <point x="369" y="448" type="curve"/>
      <point x="491" y="448"/>
      <point x="563" y="349"/>
      <point x="563" y="213" type="curve"/>
      <point x="563" y="166"/>
      <point x="564" y="125"/>
      <point x="546" y="125" type="curve"/>
      <point x="531" y="125"/>
      <point x="532" y="166"/>
      <point x="532" y="218" type="curve"/>
      <point x="532" y="331"/>
      <point x="474" y="411"/>
      <point x="367" y="411" type="curve"/>
      <point x="248" y="411"/>
      <point x="200" y="334"/>
      <point x="200" y="214" type="curve"/>
      <point x="200" y="92"/>
      <point x="243" y="10"/>
      <point x="356" y="10" type="curve"/>
      <point x="457" y="10"/>
      <point x="500" y="88"/>
      <point x="513" y="198" type="curve"/>
      <point x="423" y="219"/>
      <point x="513" y="198"/>
      <point x="423" y="219" type="curve"/>
      <point x="413" y="169"/>
      <point x="419" y="118"/>
      <point x="371" y="118" type="curve"/>
      <point x="334" y="118"/>
      <point x="324" y="164"/>
      <point x="324" y="220" type="curve"/>
      <point x="324" y="263"/>
      <point x="326" y="302"/>
      <point x="361" y="302" type="curve"/>
      <point x="405" y="302"/>
      <point x="405" y="261"/>
      <point x="405" y="212" type="curve"/>
      <point x="405" y="104"/>
      <point x="438" y="22"/>
      <point x="536" y="22" type="curve"/>
      <point x="639" y="22"/>
      <point x="680" y="104"/>
      <point x="680" y="219" type="curve"/>
      <point x="680" y="424"/>
      <point x="568" y="562"/>
      <point x="372" y="562" type="curve"/>
      <point x="162" y="562"/>
      <point x="45" y="423"/>
      <point x="45" y="208" type="curve"/>
      <point x="45" y="-5"/>
      <point x="168" y="-142"/>
      <point x="375" y="-142" type="curve"/>
      <point x="437" y="-142"/>
      <point x="471" y="-132"/>
      <point x="524" y="-99" type="curve"/>
      <point x="470" y="-6"/>
      <point x="524" y="-99"/>
    </contour>
  </outline>
</glyph>
<glyph name="B" format="1">
  <advance width="609"/>
  <unicode hex="0042"/>
  <outline>
    <contour>
      <point x="195" y="722" type="curve"/>
      <point x="151" y="722"/>
      <point x="107" y="722"/>
      <point x="63" y="722" type="curve"/>
      <point x="63" y="614"/>
      <point x="63" y="722"/>
      <point x="63" y="614" type="curve"/>
      <point x="196" y="614"/>
      <point x="62" y="614"/>
      <point x="195" y="614" type="curve"/>
      <point x="195" y="722"/>
      <point x="195" y="614"/>
    </contour>
    <contour>
      <point x="194" y="108" type="curve"/>
      <point x="61" y="108"/>
      <point x="195" y="108"/>
      <point x="62" y="108" type="curve"/>
      <point x="62" y="0"/>
      <point x="62" y="108"/>
      <point x="62" y="0" type="curve"/>
      <point x="107" y="0"/>
      <point x="151" y="0"/>
      <point x="194" y="0" type="curve"/>
      <point x="194" y="108"/>
      <point x="194" y="0"/>
    </contour>
    <contour>
      <point x="187" y="614" type="curve"/>
      <point x="238" y="614"/>
      <point x="270" y="614"/>
      <point x="320" y="614" type="curve"/>
      <point x="370" y="614"/>
      <point x="389" y="581"/>
      <point x="389" y="536" type="curve"/>
      <point x="389" y="492"/>
      <point x="370" y="458"/>
      <point x="324" y="458" type="curve"/>
      <point x="273" y="458"/>
      <point x="239" y="458"/>
      <point x="187" y="458" type="curve"/>
      <point x="187" y="417"/>
      <point x="187" y="390"/>
      <point x="187" y="349" type="curve"/>
      <point x="221" y="349"/>
      <point x="243" y="349"/>
      <point x="278" y="349" type="curve"/>
      <point x="395" y="349"/>
      <point x="528" y="399"/>
      <point x="528" y="531" type="curve"/>
      <point x="528" y="652"/>
      <point x="453" y="722"/>
      <point x="330" y="722" type="curve"/>
      <point x="276" y="722"/>
      <point x="241" y="722"/>
      <point x="187" y="722" type="curve"/>
      <point x="187" y="681"/>
      <point x="187" y="655"/>
    </contour>
    <contour>
      <point x="269" y="0" type="curve"/>
      <point x="269" y="241"/>
      <point x="269" y="481"/>
      <point x="269" y="722" type="curve"/>
      <point x="122" y="722"/>
      <point x="269" y="722"/>
      <point x="122" y="722" type="curve"/>
      <point x="122" y="481"/>
      <point x="122" y="241"/>
      <point x="122" y="0" type="curve"/>
      <point x="269" y="0"/>
      <point x="122" y="0"/>
    </contour>
    <contour>
      <point x="187" y="349" type="curve"/>
      <point x="239" y="349"/>
      <point x="273" y="349"/>
      <point x="324" y="349" type="curve"/>
      <point x="397" y="349"/>
      <point x="424" y="297"/>
      <point x="424" y="228" type="curve"/>
      <point x="424" y="158"/>
      <point x="393" y="108"/>
      <point x="325" y="108" type="curve"/>
      <point x="273" y="108"/>
      <point x="240" y="108"/>
      <point x="187" y="108" type="curve"/>
      <point x="187" y="67"/>
      <point x="187" y="41"/>
      <point x="187" y="0" type="curve"/>
      <point x="243" y="0"/>
      <point x="279" y="0"/>
      <point x="335" y="0" type="curve"/>
      <point x="477" y="0"/>
      <point x="565" y="82"/>
      <point x="565" y="224" type="curve"/>
      <point x="565" y="382"/>
      <point x="433" y="458"/>
      <point x="278" y="458" type="curve"/>
      <point x="243" y="458"/>
      <point x="221" y="458"/>
      <point x="187" y="458" type="curve"/>
      <point x="187" y="417"/>
      <point x="187" y="390"/>
    </contour>
  </outline>
</glyph>
<glyph name="C" format="1">
  <advance width="608"/>
  <unicode hex="0043"/>
  <outline>
    <contour>
      <point x="337" y="781" type="move" name="top"/>
    </contour>
    <contour>
      <point x="373" y="5" type="move" name="bottom"/>
    </contour>
    <contour>
      <point x="442" y="654" type="curve"/>
      <point x="442" y="534"/>
      <point x="442" y="654"/>
      <point x="442" y="534" type="curve"/>
      <point x="552" y="534"/>
      <point x="442" y="534"/>
      <point x="552" y="534" type="curve"/>
      <point x="552" y="654"/>
      <point x="552" y="534"/>
      <point x="552" y="654" type="curve"/>
      <point x="442" y="654"/>
      <point x="552" y="654"/>
    </contour>
    <contour>
      <point x="552" y="654" type="curve"/>
      <point x="494" y="697"/>
      <point x="425" y="727"/>
      <point x="345" y="727" type="curve"/>
      <point x="142" y="727"/>
      <point x="47" y="571"/>
      <point x="47" y="345" type="curve"/>
      <point x="47" y="138"/>
      <point x="139" y="-5"/>
      <point x="331" y="-5" type="curve"/>
      <point x="434" y="-5"/>
      <point x="503" y="29"/>
      <point x="564" y="99" type="curve"/>
      <point x="482" y="180"/>
      <point x="564" y="99"/>
      <point x="482" y="180" type="curve"/>
      <point x="438" y="136"/>
      <point x="400" y="108"/>
      <point x="338" y="108" type="curve"/>
      <point x="220" y="108"/>
      <point x="188" y="215"/>
      <point x="188" y="350" type="curve"/>
      <point x="188" y="497"/>
      <point x="217" y="614"/>
      <point x="340" y="614" type="curve"/>
      <point x="392" y="614"/>
      <point x="438" y="596"/>
      <point x="475" y="567" type="curve"/>
      <point x="552" y="654"/>
      <point x="475" y="567"/>
    </contour>
  </outline>
</glyph>
<glyph name="D" format="1">
  <advance width="695"/>
  <unicode hex="0044"/>
  <outline>
    <contour>
      <point x="316" y="781" type="move" name="top"/>
    </contour>
    <contour>
      <point x="199" y="108" type="curve"/>
      <point x="62" y="108"/>
      <point x="199" y="108"/>
      <point x="63" y="108" type="curve"/>
      <point x="63" y="0"/>
      <point x="63" y="108"/>
      <point x="63" y="0" type="curve"/>
      <point x="109" y="0"/>
      <point x="154" y="0"/>
      <point x="199" y="0" type="curve"/>
      <point x="199" y="108"/>
      <point x="199" y="0"/>
    </contour>
    <contour>
      <point x="199" y="722" type="curve"/>
      <point x="154" y="722"/>
      <point x="109" y="722"/>
      <point x="63" y="722" type="curve"/>
      <point x="63" y="614"/>
      <point x="63" y="722"/>
      <point x="63" y="614" type="curve"/>
      <point x="199" y="614"/>
      <point x="62" y="614"/>
      <point x="199" y="614" type="curve"/>
      <point x="199" y="722"/>
      <point x="199" y="614"/>
    </contour>
    <contour>
      <point x="127" y="722" type="curve"/>
      <point x="127" y="481"/>
      <point x="127" y="241"/>
      <point x="127" y="0" type="curve"/>
      <point x="268" y="0"/>
      <point x="127" y="0"/>
      <point x="268" y="0" type="curve"/>
      <point x="268" y="241"/>
      <point x="268" y="481"/>
      <point x="268" y="722" type="curve"/>
      <point x="127" y="722"/>
      <point x="268" y="722"/>
    </contour>
    <contour>
      <point x="199" y="0" type="curve"/>
      <point x="247" y="0"/>
      <point x="295" y="0"/>
      <point x="344" y="0" type="curve"/>
      <point x="552" y="0"/>
      <point x="646" y="134"/>
      <point x="646" y="354" type="curve"/>
      <point x="646" y="581"/>
      <point x="555" y="722"/>
      <point x="341" y="722" type="curve"/>
      <point x="295" y="722"/>
      <point x="247" y="722"/>
      <point x="199" y="722" type="curve"/>
      <point x="199" y="614"/>
      <point x="199" y="722"/>
      <point x="199" y="614" type="curve"/>
      <point x="245" y="614"/>
      <point x="290" y="614"/>
      <point x="335" y="614" type="curve"/>
      <point x="472" y="614"/>
      <point x="506" y="505"/>
      <point x="506" y="352" type="curve"/>
      <point x="506" y="211"/>
      <point x="478" y="108"/>
      <point x="356" y="108" type="curve"/>
      <point x="303" y="108"/>
      <point x="252" y="108"/>
      <point x="199" y="108" type="curve"/>
      <point x="199" y="0"/>
      <point x="199" y="108"/>
    </contour>
  </outline>
</glyph>
<glyph name="G" format="1">
  <advance width="663"/>
  <unicode hex="0047"/>
  <outline>
    <contour>
      <point x="351" y="781" type="move" name="top"/>
    </contour>
    <contour>
      <point x="400" y="-2" type="move" name="bottom"/>
    </contour>
    <contour>
      <point x="483" y="645" type="curve"/>
      <point x="483" y="505"/>
      <point x="483" y="645"/>
      <point x="483" y="506" type="curve"/>
      <point x="593" y="506"/>
      <point x="483" y="506"/>
      <point x="593" y="506" type="curve"/>
      <point x="593" y="645"/>
      <point x="593" y="505"/>
      <point x="593" y="645" type="curve"/>
      <point x="483" y="645"/>
      <point x="593" y="645"/>
    </contour>
    <contour>
      <point x="569" y="369" type="curve"/>
      <point x="514" y="369"/>
      <point x="459" y="369"/>
      <point x="404" y="369" type="curve"/>
      <point x="404" y="261"/>
      <point x="404" y="369"/>
      <point x="404" y="261" type="curve"/>
      <point x="459" y="261"/>
      <point x="514" y="261"/>
      <point x="569" y="261" type="curve"/>
      <point x="569" y="369"/>
      <point x="569" y="261"/>
    </contour>
    <contour>
      <point x="605" y="79" type="curve"/>
      <point x="605" y="176"/>
      <point x="605" y="272"/>
      <point x="605" y="369" type="curve"/>
      <point x="477" y="369"/>
      <point x="605" y="369"/>
      <point x="477" y="369" type="curve"/>
      <point x="477" y="272"/>
      <point x="477" y="176"/>
      <point x="477" y="79" type="curve"/>
      <point x="605" y="79"/>
      <point x="477" y="79"/>
    </contour>
    <contour>
      <point x="593" y="645" type="curve"/>
      <point x="519" y="702"/>
      <point x="448" y="727"/>
      <point x="355" y="727" type="curve"/>
      <point x="149" y="727"/>
      <point x="47" y="580"/>
      <point x="47" y="360" type="curve"/>
      <point x="47" y="139"/>
      <point x="155" y="-5"/>
      <point x="363" y="-5" type="curve"/>
      <point x="462" y="-5"/>
      <point x="523" y="24"/>
      <point x="605" y="79" type="curve"/>
      <point x="535" y="161"/>
      <point x="605" y="79"/>
      <point x="535" y="161" type="curve"/>
      <point x="478" y="123"/>
      <point x="431" y="109"/>
      <point x="363" y="109" type="curve"/>
      <point x="231" y="109"/>
      <point x="188" y="221"/>
      <point x="188" y="371" type="curve"/>
      <point x="188" y="509"/>
      <point x="232" y="614"/>
      <point x="355" y="614" type="curve"/>
      <point x="420" y="614"/>
      <point x="470" y="593"/>
      <point x="522" y="552" type="curve"/>
      <point x="593" y="645"/>
      <point x="522" y="552"/>
    </contour>
  </outline>
</glyph>
<glyph name="H" format="1">
  <advance width="718"/>
  <unicode hex="0048"/>
  <outline>
    <contour>
      <point x="544" y="614" type="curve"/>
      <point x="681" y="614"/>
      <point x="544" y="614"/>
      <point x="681" y="614" type="curve"/>
      <point x="681" y="722"/>
      <point x="681" y="614"/>
      <point x="681" y="722" type="curve"/>
      <point x="635" y="722"/>
      <point x="589" y="722"/>
      <point x="544" y="722" type="curve"/>
      <point x="544" y="614"/>
      <point x="544" y="722"/>
    </contour>
    <contour>
      <point x="544" y="0" type="curve"/>
      <point x="589" y="0"/>
      <point x="635" y="0"/>
      <point x="681" y="0" type="curve"/>
      <point x="681" y="108"/>
      <point x="681" y="0"/>
      <point x="681" y="108" type="curve"/>
      <point x="544" y="108"/>
      <point x="681" y="108"/>
      <point x="544" y="108" type="curve"/>
      <point x="544" y="0"/>
      <point x="544" y="108"/>
    </contour>
    <contour>
      <point x="544" y="108" type="curve"/>
      <point x="407" y="108"/>
      <point x="545" y="108"/>
      <point x="408" y="108" type="curve"/>
      <point x="408" y="0"/>
      <point x="408" y="108"/>
      <point x="408" y="0" type="curve"/>
      <point x="453" y="0"/>
      <point x="498" y="0"/>
      <point x="544" y="0" type="curve"/>
      <point x="544" y="108"/>
      <point x="544" y="0"/>
    </contour>
    <contour>
      <point x="544" y="722" type="curve"/>
      <point x="498" y="722"/>
      <point x="453" y="722"/>
      <point x="408" y="722" type="curve"/>
      <point x="408" y="614"/>
      <point x="408" y="722"/>
      <point x="408" y="614" type="curve"/>
      <point x="545" y="614"/>
      <point x="407" y="614"/>
      <point x="544" y="614" type="curve"/>
      <point x="544" y="722"/>
      <point x="544" y="614"/>
    </contour>
    <contour>
      <point x="175" y="614" type="curve"/>
      <point x="312" y="614"/>
      <point x="174" y="614"/>
      <point x="312" y="614" type="curve"/>
      <point x="312" y="722"/>
      <point x="312" y="614"/>
      <point x="312" y="722" type="curve"/>
      <point x="266" y="722"/>
      <point x="221" y="722"/>
      <point x="175" y="722" type="curve"/>
      <point x="175" y="614"/>
      <point x="175" y="722"/>
    </contour>
    <contour>
      <point x="175" y="722" type="curve"/>
      <point x="130" y="722"/>
      <point x="84" y="722"/>
      <point x="38" y="722" type="curve"/>
      <point x="38" y="614"/>
      <point x="38" y="722"/>
      <point x="38" y="614" type="curve"/>
      <point x="175" y="614"/>
      <point x="38" y="614"/>
      <point x="175" y="614" type="curve"/>
      <point x="175" y="722"/>
      <point x="175" y="614"/>
    </contour>
    <contour>
      <point x="175" y="0" type="curve"/>
      <point x="221" y="0"/>
      <point x="174" y="0"/>
      <point x="312" y="0" type="curve"/>
      <point x="312" y="108"/>
      <point x="312" y="0"/>
      <point x="312" y="108" type="curve"/>
      <point x="174" y="108"/>
      <point x="312" y="108"/>
      <point x="175" y="108" type="curve"/>
      <point x="175" y="0"/>
      <point x="175" y="108"/>
    </contour>
    <contour>
      <point x="175" y="108" type="curve"/>
      <point x="38" y="108"/>
      <point x="175" y="108"/>
      <point x="38" y="108" type="curve"/>
      <point x="38" y="0"/>
      <point x="38" y="108"/>
      <point x="38" y="0" type="curve"/>
      <point x="84" y="0"/>
      <point x="130" y="0"/>
      <point x="175" y="0" type="curve"/>
      <point x="175" y="108"/>
      <point x="175" y="0"/>
    </contour>
    <contour>
      <point x="245" y="0" type="curve"/>
      <point x="245" y="722" type="line"/>
      <point x="105" y="722"/>
      <point x="245" y="722"/>
      <point x="105" y="722" type="curve"/>
      <point x="105" y="481"/>
      <point x="105" y="241"/>
      <point x="105" y="0" type="curve"/>
      <point x="245" y="0"/>
      <point x="105" y="0"/>
    </contour>
    <contour>
      <point x="542" y="417" type="curve"/>
      <point x="419" y="417"/>
      <point x="296" y="417"/>
      <point x="175" y="417" type="curve"/>
      <point x="175" y="308"/>
      <point x="175" y="417"/>
      <point x="175" y="308" type="curve"/>
      <point x="296" y="308"/>
      <point x="419" y="308"/>
      <point x="542" y="308" type="curve"/>
      <point x="542" y="417"/>
      <point x="542" y="308"/>
    </contour>
    <contour>
      <point x="614" y="46" type="curve"/>
      <point x="614" y="256"/>
      <point x="614" y="466"/>
      <point x="614" y="676" type="curve"/>
      <point x="473" y="676"/>
      <point x="614" y="676"/>
      <point x="473" y="676" type="curve"/>
      <point x="473" y="46" type="line"/>
      <point x="614" y="46"/>
      <point x="473" y="46"/>
    </contour>
  </outline>
</glyph>
<glyph name="K" format="1">
  <advance width="652"/>
  <unicode hex="004B"/>
  <outline>
    <contour>
      <point x="354" y="-2" type="move" name="bottom"/>
    </contour>
    <contour>
      <point x="486" y="722" type="curve"/>
      <point x="439" y="722"/>
      <point x="387" y="722"/>
      <point x="342" y="722" type="curve"/>
      <point x="342" y="614"/>
      <point x="342" y="722"/>
      <point x="342" y="614" type="curve"/>
      <point x="480" y="614"/>
      <point x="348" y="614"/>
      <point x="486" y="614" type="curve"/>
      <point x="486" y="722"/>
      <point x="486" y="614"/>
    </contour>
    <contour>
      <point x="483" y="0" type="curve"/>
      <point x="548" y="0"/>
      <point x="556" y="0"/>
      <point x="621" y="0" type="curve"/>
      <point x="621" y="108"/>
      <point x="621" y="0"/>
      <point x="621" y="108" type="curve"/>
      <point x="426" y="108"/>
      <point x="678" y="108"/>
      <point x="483" y="108" type="curve"/>
      <point x="483" y="0"/>
      <point x="483" y="108"/>
    </contour>
    <contour>
      <point x="457" y="614" type="curve"/>
      <point x="594" y="614"/>
      <point x="456" y="614"/>
      <point x="593" y="614" type="curve"/>
      <point x="593" y="722"/>
      <point x="593" y="614"/>
      <point x="593" y="722" type="curve"/>
      <point x="548" y="722"/>
      <point x="503" y="722"/>
      <point x="457" y="722" type="curve"/>
      <point x="457" y="614"/>
      <point x="457" y="722"/>
    </contour>
    <contour>
      <point x="171" y="722" type="curve"/>
      <point x="127" y="722"/>
      <point x="82" y="722"/>
      <point x="38" y="722" type="curve"/>
      <point x="38" y="614"/>
      <point x="38" y="722"/>
      <point x="38" y="614" type="curve"/>
      <point x="171" y="614"/>
      <point x="38" y="614"/>
      <point x="171" y="614" type="curve"/>
      <point x="171" y="722"/>
      <point x="171" y="614"/>
    </contour>
    <contour>
      <point x="171" y="614" type="curve"/>
      <point x="309" y="614"/>
      <point x="135" y="614"/>
      <point x="273" y="614" type="curve"/>
      <point x="273" y="722"/>
      <point x="273" y="614"/>
      <point x="273" y="722" type="curve"/>
      <point x="227" y="722"/>
      <point x="217" y="722"/>
      <point x="171" y="722" type="curve"/>
      <point x="171" y="614"/>
      <point x="171" y="722"/>
    </contour>
    <contour>
      <point x="171" y="0" type="curve"/>
      <point x="221" y="0"/>
      <point x="134" y="0"/>
      <point x="285" y="0" type="curve"/>
      <point x="285" y="108"/>
      <point x="285" y="0"/>
      <point x="285" y="108" type="curve"/>
      <point x="134" y="108"/>
      <point x="321" y="108"/>
      <point x="171" y="108" type="curve"/>
      <point x="171" y="0"/>
      <point x="171" y="108"/>
    </contour>
    <contour>
      <point x="171" y="108" type="curve"/>
      <point x="38" y="108"/>
      <point x="171" y="108"/>
      <point x="38" y="108" type="curve"/>
      <point x="38" y="0"/>
      <point x="38" y="108"/>
      <point x="38" y="0" type="curve"/>
      <point x="82" y="0"/>
      <point x="127" y="0"/>
      <point x="171" y="0" type="curve"/>
      <point x="171" y="108"/>
      <point x="171" y="0"/>
    </contour>
    <contour>
      <point x="462" y="722" type="curve"/>
      <point x="228" y="380" type="line"/>
      <point x="378" y="380"/>
      <point x="228" y="380"/>
      <point x="378" y="380" type="curve"/>
      <point x="559" y="659" type="line"/>
      <point x="462" y="659"/>
      <point x="560" y="722"/>
    </contour>
    <contour>
      <point x="241" y="0" type="curve"/>
      <point x="241" y="722" type="line"/>
      <point x="101" y="722"/>
      <point x="241" y="722"/>
      <point x="101" y="722" type="curve"/>
      <point x="101" y="481"/>
      <point x="101" y="241"/>
      <point x="101" y="0" type="curve"/>
      <point x="241" y="0"/>
      <point x="101" y="0"/>
    </contour>
    <contour>
      <point x="591" y="51" type="curve"/>
      <point x="378" y="380" type="line"/>
      <point x="228" y="380"/>
      <point x="378" y="380"/>
      <point x="228" y="380" type="curve"/>
      <point x="479" y="0" type="line"/>
      <point x="591" y="0"/>
      <point x="479" y="51"/>
    </contour>
  </outline>
</glyph>
<glyph name="M" format="1">
  <advance width="805"/>
  <unicode hex="004D"/>
  <outline>
    <contour>
      <point x="660" y="0" type="curve"/>
      <point x="703" y="0"/>
      <point x="746" y="0"/>
      <point x="788" y="0" type="curve"/>
      <point x="788" y="108"/>
      <point x="788" y="0"/>
      <point x="788" y="108" type="curve"/>
      <point x="660" y="108"/>
      <point x="788" y="108"/>
      <point x="660" y="108" type="curve"/>
      <point x="660" y="0"/>
      <point x="660" y="108"/>
    </contour>
    <contour>
      <point x="660" y="108" type="curve"/>
      <point x="543" y="108"/>
      <point x="661" y="108"/>
      <point x="543" y="108" type="curve"/>
      <point x="543" y="0"/>
      <point x="543" y="108"/>
      <point x="543" y="0" type="curve"/>
      <point x="583" y="0"/>
      <point x="622" y="0"/>
      <point x="660" y="0" type="curve"/>
      <point x="660" y="108"/>
      <point x="660" y="0"/>
    </contour>
    <contour>
      <point x="146" y="108" type="curve"/>
      <point x="18" y="108"/>
      <point x="146" y="108"/>
      <point x="18" y="108" type="curve"/>
      <point x="18" y="0"/>
      <point x="18" y="108"/>
      <point x="18" y="0" type="curve"/>
      <point x="61" y="0"/>
      <point x="104" y="0"/>
      <point x="146" y="0" type="curve"/>
      <point x="146" y="108"/>
      <point x="146" y="0"/>
    </contour>
    <contour>
      <point x="189" y="722" type="curve"/>
      <point x="147" y="722"/>
      <point x="104" y="722"/>
      <point x="62" y="722" type="curve"/>
      <point x="61" y="614"/>
      <point x="62" y="722"/>
      <point x="61" y="614" type="curve"/>
      <point x="189" y="614"/>
      <point x="61" y="614"/>
      <point x="189" y="614" type="curve"/>
      <point x="189" y="722"/>
      <point x="189" y="614"/>
    </contour>
    <contour>
      <point x="615" y="614" type="curve"/>
      <point x="742" y="614"/>
      <point x="615" y="614"/>
      <point x="742" y="614" type="curve"/>
      <point x="742" y="722"/>
      <point x="742" y="614"/>
      <point x="742" y="722" type="curve"/>
      <point x="700" y="722"/>
      <point x="657" y="722"/>
      <point x="615" y="722" type="curve"/>
      <point x="615" y="614"/>
      <point x="615" y="722"/>
    </contour>
    <contour>
      <point x="146" y="0" type="curve"/>
      <point x="185" y="0"/>
      <point x="145" y="0"/>
      <point x="263" y="0" type="curve"/>
      <point x="263" y="108"/>
      <point x="263" y="0"/>
      <point x="263" y="108" type="curve"/>
      <point x="145" y="108"/>
      <point x="263" y="108"/>
      <point x="146" y="108" type="curve"/>
      <point x="146" y="0"/>
      <point x="146" y="108"/>
    </contour>
    <contour>
      <point x="739" y="0" type="curve"/>
      <point x="723" y="241"/>
      <point x="702" y="481"/>
      <point x="687" y="722" type="curve"/>
      <point x="559" y="722"/>
      <point x="687" y="722"/>
      <point x="559" y="722" type="curve"/>
      <point x="574" y="481"/>
      <point x="583" y="241"/>
      <point x="598" y="0" type="curve"/>
      <point x="739" y="0"/>
      <point x="598" y="0"/>
    </contour>
    <contour>
      <point x="204" y="0" type="curve"/>
      <point x="218" y="241"/>
      <point x="232" y="481"/>
      <point x="246" y="722" type="curve"/>
      <point x="128" y="722"/>
      <point x="246" y="722"/>
      <point x="128" y="722" type="curve"/>
      <point x="113" y="481"/>
      <point x="99" y="241"/>
      <point x="84" y="0" type="curve"/>
      <point x="204" y="0"/>
      <point x="84" y="0"/>
    </contour>
    <contour>
      <point x="459" y="0" type="curve"/>
      <point x="389" y="241"/>
      <point x="318" y="481"/>
      <point x="248" y="722" type="curve"/>
      <point x="130" y="722"/>
      <point x="248" y="722"/>
      <point x="130" y="722" type="curve"/>
      <point x="200" y="481"/>
      <point x="270" y="241"/>
      <point x="340" y="0" type="curve"/>
      <point x="459" y="0"/>
      <point x="340" y="0"/>
    </contour>
    <contour>
      <point x="466" y="0" type="curve"/>
      <point x="534" y="241"/>
      <point x="603" y="481"/>
      <point x="671" y="722" type="curve"/>
      <point x="553" y="722"/>
      <point x="671" y="722"/>
      <point x="553" y="722" type="curve"/>
      <point x="484" y="481"/>
      <point x="414" y="241"/>
      <point x="346" y="0" type="curve"/>
      <point x="466" y="0"/>
      <point x="346" y="0"/>
    </contour>
  </outline>
</glyph>
<glyph name="Q" format="1">
  <advance width="645"/>
  <unicode hex="0051"/>
  <outline>
    <contour>
      <point x="280" y="27" type="curve"/>
      <point x="358" y="-141"/>
      <point x="464" y="-212"/>
      <point x="638" y="-212" type="curve"/>
      <point x="638" y="-97"/>
      <point x="638" y="-212"/>
      <point x="638" y="-97" type="curve"/>
      <point x="519" y="-97"/>
      <point x="456" y="-36"/>
      <point x="401" y="81" type="curve"/>
      <point x="280" y="27"/>
      <point x="401" y="81"/>
    </contour>
    <contour>
      <point x="187" y="360" type="curve"/>
      <point x="187" y="494"/>
      <point x="214" y="607"/>
      <point x="330" y="607" type="curve"/>
      <point x="448" y="607"/>
      <point x="481" y="496"/>
      <point x="481" y="360" type="curve"/>
      <point x="481" y="225"/>
      <point x="456" y="108"/>
      <point x="339" y="108" type="curve"/>
      <point x="219" y="109"/>
      <point x="187" y="223"/>
      <point x="187" y="360" type="curve"/>
      <point x="46" y="360"/>
      <point x="187" y="360"/>
      <point x="46" y="360" type="curve"/>
      <point x="46" y="151"/>
      <point x="140" y="-5"/>
      <point x="332" y="-5" type="curve"/>
      <point x="528" y="-5"/>
      <point x="621" y="154"/>
      <point x="621" y="366" type="curve"/>
      <point x="621" y="574"/>
      <point x="532" y="732"/>
      <point x="341" y="732" type="curve"/>
      <point x="144" y="732"/>
      <point x="46" y="572"/>
      <point x="46" y="360" type="curve"/>
      <point x="187" y="360"/>
      <point x="46" y="360"/>
    </contour>
  </outline>
</glyph>
<glyph name="T" format="1">
  <advance width="507"/>
  <unicode hex="0054"/>
  <outline>
    <contour>
      <point x="253" y="781" type="move" name="top"/>
    </contour>
    <contour>
      <point x="316" y="-1" type="move" name="bottom"/>
    </contour>
    <contour>
      <point x="22" y="667" type="curve"/>
      <point x="22" y="547"/>
      <point x="22" y="667"/>
      <point x="22" y="547" type="curve"/>
      <point x="131" y="547"/>
      <point x="22" y="547"/>
      <point x="131" y="547" type="curve"/>
      <point x="131" y="667"/>
      <point x="131" y="547"/>
      <point x="131" y="667" type="curve"/>
      <point x="22" y="667"/>
      <point x="131" y="667"/>
    </contour>
    <contour>
      <point x="376" y="667" type="curve"/>
      <point x="376" y="547"/>
      <point x="376" y="667"/>
      <point x="376" y="547" type="curve"/>
      <point x="486" y="547"/>
      <point x="376" y="547"/>
      <point x="486" y="547" type="curve"/>
      <point x="486" y="667"/>
      <point x="486" y="547"/>
      <point x="486" y="667" type="curve"/>
      <point x="376" y="667"/>
      <point x="486" y="667"/>
    </contour>
    <contour>
      <point x="252" y="0" type="curve"/>
      <point x="298" y="0"/>
      <point x="344" y="0"/>
      <point x="390" y="0" type="curve"/>
      <point x="390" y="108"/>
      <point x="390" y="0"/>
      <point x="390" y="108" type="curve"/>
      <point x="252" y="108"/>
      <point x="390" y="108"/>
      <point x="252" y="108" type="curve"/>
      <point x="252" y="0"/>
      <point x="252" y="108"/>
    </contour>
    <contour>
      <point x="252" y="108" type="curve"/>
      <point x="116" y="108"/>
      <point x="252" y="108"/>
      <point x="116" y="108" type="curve"/>
      <point x="116" y="0"/>
      <point x="116" y="108"/>
      <point x="116" y="0" type="curve"/>
      <point x="162" y="0"/>
      <point x="207" y="0"/>
      <point x="252" y="0" type="curve"/>
      <point x="252" y="108"/>
      <point x="252" y="0"/>
    </contour>
    <contour>
      <point x="324" y="0" type="curve"/>
      <point x="324" y="237"/>
      <point x="324" y="473"/>
      <point x="324" y="710" type="curve"/>
      <point x="183" y="710"/>
      <point x="324" y="710"/>
      <point x="183" y="710" type="curve"/>
      <point x="182" y="473"/>
      <point x="183" y="237"/>
      <point x="183" y="0" type="curve"/>
      <point x="324" y="0"/>
      <point x="183" y="0"/>
    </contour>
    <contour>
      <point x="22" y="607" type="curve"/>
      <point x="175" y="607"/>
      <point x="331" y="607"/>
      <point x="486" y="607" type="curve"/>
      <point x="486" y="727"/>
      <point x="486" y="602"/>
      <point x="486" y="722" type="curve"/>
      <point x="331" y="722"/>
      <point x="175" y="722"/>
      <point x="22" y="722" type="curve"/>
      <point x="22" y="602"/>
      <point x="22" y="727"/>
    </contour>
  </outline>
</glyph>
<glyph name="bracketleft" format="1">
  <advance width="291"/>
  <unicode hex="005B"/>
  <outline>
    <contour>
      <point x="247" y="769" type="curve"/>
      <point x="209" y="769"/>
      <point x="171" y="769"/>
      <point x="133" y="769" type="curve"/>
      <point x="117" y="769"/>
      <point x="82" y="769"/>
      <point x="67" y="769" type="curve"/>
      <point x="67" y="752"/>
      <point x="67" y="732"/>
      <point x="67" y="715" type="curve"/>
      <point x="67" y="456"/>
      <point x="67" y="199"/>
      <point x="67" y="-60" type="curve"/>
      <point x="67" y="-78"/>
      <point x="67" y="-90"/>
      <point x="67" y="-113" type="curve"/>
      <point x="82" y="-113"/>
      <point x="115" y="-113"/>
      <point x="132" y="-113" type="curve"/>
      <point x="170" y="-113"/>
      <point x="209" y="-113"/>
      <point x="247" y="-113" type="curve"/>
      <point x="247" y="7"/>
      <point x="247" y="-113"/>
      <point x="247" y="7" type="curve"/>
      <point x="209" y="7"/>
      <point x="170" y="7"/>
      <point x="132" y="7" type="curve"/>
      <point x="208" y="7"/>
      <point x="132" y="7"/>
      <point x="208" y="7" type="curve"/>
      <point x="208" y="-60"/>
      <point x="208" y="7"/>
      <point x="208" y="-60" type="curve"/>
      <point x="208" y="199"/>
      <point x="208" y="456"/>
      <point x="208" y="715" type="curve"/>
      <point x="208" y="650"/>
      <point x="208" y="715"/>
      <point x="208" y="650" type="curve"/>
      <point x="133" y="650"/>
      <point x="208" y="650"/>
      <point x="133" y="650" type="curve"/>
      <point x="171" y="650"/>
      <point x="209" y="650"/>
      <point x="247" y="650" type="curve"/>
      <point x="247" y="769"/>
      <point x="247" y="650"/>
    </contour>
  </outline>
</glyph>
<glyph name="backslash" format="1">
  <advance width="489"/>
  <unicode hex="005C"/>
  <outline>
    <contour>
      <point x="464" y="-68" type="curve"/>
      <point x="367" y="236"/>
      <point x="269" y="540"/>
      <point x="171" y="844" type="curve"/>
      <point x="24" y="844"/>
      <point x="171" y="844"/>
      <point x="24" y="844" type="curve"/>
      <point x="122" y="540"/>
      <point x="220" y="236"/>
      <point x="318" y="-68" type="curve"/>
      <point x="464" y="-68"/>
      <point x="318" y="-68"/>
    </contour>
  </outline>
</glyph>
<glyph name="bracketright" format="1">
  <advance width="292"/>
  <unicode hex="005D"/>
  <outline>
    <contour>
      <point x="45" y="650" type="curve"/>
      <point x="83" y="650"/>
      <point x="121" y="650"/>
      <point x="159" y="650" type="curve"/>
      <point x="147" y="662"/>
      <point x="127" y="663"/>
      <point x="115" y="675" type="curve"/>
      <point x="105" y="687"/>
      <point x="95" y="702"/>
      <point x="84" y="715" type="curve"/>
      <point x="84" y="456"/>
      <point x="83" y="199"/>
      <point x="84" y="-60" type="curve"/>
      <point x="95" y="-46"/>
      <point x="108" y="-35"/>
      <point x="119" y="-22" type="curve"/>
      <point x="130" y="-9"/>
      <point x="149" y="-6"/>
      <point x="160" y="7" type="curve"/>
      <point x="122" y="7"/>
      <point x="83" y="7"/>
      <point x="45" y="7" type="curve"/>
      <point x="44" y="-113"/>
      <point x="45" y="7"/>
      <point x="44" y="-113" type="curve"/>
      <point x="83" y="-113"/>
      <point x="122" y="-113"/>
      <point x="160" y="-113" type="curve"/>
      <point x="225" y="-113"/>
      <point x="160" y="-113"/>
      <point x="225" y="-113" type="curve"/>
      <point x="225" y="-60"/>
      <point x="225" y="-113"/>
      <point x="225" y="-60" type="curve"/>
      <point x="224" y="199"/>
      <point x="225" y="456"/>
      <point x="225" y="715" type="curve"/>
      <point x="225" y="769"/>
      <point x="225" y="715"/>
      <point x="225" y="769" type="curve"/>
      <point x="159" y="769"/>
      <point x="225" y="769"/>
      <point x="159" y="769" type="curve"/>
      <point x="121" y="769"/>
      <point x="83" y="769"/>
      <point x="45" y="769" type="curve"/>
      <point x="45" y="650"/>
      <point x="45" y="769"/>
    </contour>
  </outline>
</glyph>
<glyph name="asciicircum" format="1">
  <advance width="486"/>
  <unicode hex="005E"/>
  <outline>
    <contour>
      <point x="182" y="453" type="curve"/>
      <point x="225" y="555"/>
      <point x="269" y="655"/>
      <point x="313" y="755" type="curve"/>
      <point x="172" y="755"/>
      <point x="313" y="755"/>
      <point x="172" y="755" type="curve"/>
      <point x="129" y="655"/>
      <point x="85" y="555"/>
      <point x="42" y="453" type="curve"/>
      <point x="182" y="453"/>
      <point x="42" y="453"/>
    </contour>
    <contour>
      <point x="444" y="453" type="curve"/>
      <point x="401" y="553"/>
      <point x="356" y="655"/>
      <point x="313" y="755" type="curve"/>
      <point x="172" y="755"/>
      <point x="313" y="755"/>
      <point x="172" y="755" type="curve"/>
      <point x="215" y="655"/>
      <point x="260" y="553"/>
      <point x="303" y="453" type="curve"/>
      <point x="444" y="453"/>
      <point x="303" y="453"/>
    </contour>
  </outline>
</glyph>
<glyph name="underscore" format="1">
  <advance width="510"/>
  <unicode hex="005F"/>
  <outline>
    <contour>
      <point x="0" y="-184" type="curve"/>
      <point x="170" y="-184"/>
      <point x="341" y="-184"/>
      <point x="510" y="-184" type="curve"/>
      <point x="510" y="-74"/>
      <point x="510" y="-184"/>
      <point x="510" y="-74" type="curve"/>
      <point x="341" y="-74"/>
      <point x="170" y="-74"/>
      <point x="0" y="-74" type="curve"/>
      <point x="0" y="-184"/>
      <point x="0" y="-74"/>
    </contour>
  </outline>
</glyph>
<glyph name="grave" format="1">
  <advance width="329"/>
  <unicode hex="0060"/>
  <outline>
    <contour>
      <point x="241" y="590" type="move" name="_top"/>
    </contour>
    <contour>
      <point x="308" y="591" type="line"/>
      <point x="224" y="757" type="line"/>
      <point x="52" y="757" type="line"/>
      <point x="175" y="591" type="line"/>
    </contour>
  </outline>
</glyph>
<glyph name="i" format="1">
  <advance width="313"/>
  <unicode hex="0069"/>
  <outline>
    <contour>
      <point x="159" y="612" type="move" name="top"/>
    </contour>
    <contour>
      <point x="227" y="4" type="move" name="bottom"/>
    </contour>
    <contour>
      <point x="164" y="108" type="curve"/>
      <point x="27" y="108"/>
      <point x="164" y="108"/>
      <point x="27" y="108" type="curve"/>
      <point x="26" y="0"/>
      <point x="27" y="108"/>
      <point x="26" y="0" type="curve"/>
      <point x="72" y="0"/>
      <point x="118" y="0"/>
      <point x="164" y="0" type="curve"/>
      <point x="164" y="108"/>
      <point x="164" y="0"/>
    </contour>
    <contour>
      <point x="164" y="0" type="curve"/>
      <point x="207" y="0"/>
      <point x="249" y="0"/>
      <point x="293" y="0" type="curve"/>
      <point x="293" y="108"/>
      <point x="293" y="0"/>
      <point x="293" y="108" type="curve"/>
      <point x="163" y="108"/>
      <point x="293" y="108"/>
      <point x="164" y="108" type="curve"/>
      <point x="164" y="0"/>
      <point x="164" y="108"/>
    </contour>
    <contour>
      <point x="164" y="533" type="curve"/>
      <point x="118" y="533"/>
      <point x="72" y="533"/>
      <point x="27" y="533" type="curve"/>
      <point x="26" y="425"/>
      <point x="27" y="533"/>
      <point x="26" y="425" type="curve"/>
      <point x="164" y="425"/>
      <point x="26" y="425"/>
      <point x="164" y="425" type="curve"/>
      <point x="164" y="533"/>
      <point x="164" y="425"/>
    </contour>
    <contour>
      <point x="237" y="0" type="curve"/>
      <point x="237" y="178"/>
      <point x="237" y="355"/>
      <point x="237" y="533" type="curve"/>
      <point x="90" y="533"/>
      <point x="237" y="533"/>
      <point x="90" y="533" type="curve"/>
      <point x="90" y="355"/>
      <point x="90" y="178"/>
      <point x="90" y="0" type="curve"/>
      <point x="237" y="0"/>
      <point x="90" y="0"/>
    </contour>
    <contour>
      <point x="233" y="678" type="curve"/>
      <point x="233" y="725"/>
      <point x="201" y="749"/>
      <point x="159" y="749" type="curve"/>
      <point x="115" y="749"/>
      <point x="87" y="723"/>
      <point x="87" y="678" type="curve"/>
      <point x="233" y="678"/>
      <point x="87" y="678"/>
      <point x="233" y="678" type="curve"/>
      <point x="233" y="630"/>
      <point x="202" y="608"/>
      <point x="159" y="608" type="curve"/>
      <point x="114" y="608"/>
      <point x="87" y="632"/>
      <point x="87" y="678" type="curve"/>
      <point x="233" y="678"/>
      <point x="87" y="678"/>
    </contour>
  </outline>
</glyph>
<glyph name="j" format="1">
  <advance width="259"/>
  <unicode hex="006A"/>
  <outline>
    <contour>
      <point x="123" y="533" type="curve"/>
      <point x="78" y="533"/>
      <point x="33" y="533"/>
      <point x="-13" y="533" type="curve"/>
      <point x="-13" y="425"/>
      <point x="-13" y="533"/>
      <point x="-13" y="425" type="curve"/>
      <point x="123" y="425"/>
      <point x="-14" y="425"/>
      <point x="123" y="425" type="curve"/>
      <point x="123" y="533"/>
      <point x="123" y="425"/>
    </contour>
    <contour>
      <point x="-17" y="-304" type="curve"/>
      <point x="-9" y="-305"/>
      <point x="1" y="-305"/>
      <point x="11" y="-305" type="curve"/>
      <point x="121" y="-305"/>
      <point x="195" y="-230"/>
      <point x="195" y="-120" type="curve"/>
      <point x="195" y="98"/>
      <point x="195" y="316"/>
      <point x="195" y="534" type="curve"/>
      <point x="54" y="534"/>
      <point x="195" y="534"/>
      <point x="54" y="534" type="curve"/>
      <point x="54" y="316"/>
      <point x="54" y="98"/>
      <point x="54" y="-120" type="curve"/>
      <point x="54" y="-161"/>
      <point x="53" y="-202"/>
      <point x="17" y="-202" type="curve"/>
      <point x="12" y="-202"/>
      <point x="10" y="-202"/>
      <point x="3" y="-201" type="curve"/>
      <point x="-17" y="-304"/>
      <point x="3" y="-201"/>
    </contour>
    <contour>
      <point x="195" y="670" type="curve"/>
      <point x="195" y="718"/>
      <point x="164" y="741"/>
      <point x="121" y="741" type="curve"/>
      <point x="78" y="741"/>
      <point x="49" y="716"/>
      <point x="49" y="670" type="curve"/>
      <point x="195" y="670"/>
      <point x="49" y="670"/>
      <point x="195" y="670" type="curve"/>
      <point x="195" y="622"/>
      <point x="165" y="600"/>
      <point x="121" y="600" type="curve"/>
      <point x="77" y="600"/>
      <point x="49" y="624"/>
      <point x="49" y="670" type="curve"/>
      <point x="195" y="670"/>
      <point x="49" y="670"/>
    </contour>
  </outline>
</glyph>
<glyph name="k" format="1">
  <advance width="532"/>
  <unicode hex="006B"/>
  <outline>
    <contour>
      <point x="350" y="-2" type="move" name="bottom"/>
    </contour>
    <contour>
      <point x="143" y="108" type="curve"/>
      <point x="6" y="108"/>
      <point x="143" y="108"/>
      <point x="6" y="108" type="curve"/>
      <point x="6" y="0"/>
      <point x="6" y="108"/>
      <point x="6" y="0" type="curve"/>
      <point x="52" y="0"/>
      <point x="97" y="-1"/>
      <point x="143" y="-1" type="curve"/>
      <point x="143" y="108"/>
      <point x="143" y="-1"/>
    </contour>
    <contour>
      <point x="386" y="0" type="curve"/>
      <point x="429" y="0"/>
      <point x="473" y="0"/>
      <point x="515" y="0" type="curve"/>
      <point x="515" y="108"/>
      <point x="515" y="0"/>
      <point x="515" y="108" type="curve"/>
      <point x="389" y="108"/>
      <point x="516" y="108"/>
      <point x="389" y="108" type="curve"/>
      <point x="389" y="0"/>
      <point x="386" y="108"/>
    </contour>
    <contour>
      <point x="399" y="425" type="curve"/>
      <point x="496" y="425"/>
      <point x="399" y="425"/>
      <point x="496" y="425" type="curve"/>
      <point x="496" y="533"/>
      <point x="496" y="425"/>
      <point x="496" y="533" type="curve"/>
      <point x="464" y="533"/>
      <point x="431" y="533"/>
      <point x="399" y="533" type="curve"/>
      <point x="399" y="425"/>
      <point x="399" y="533"/>
    </contour>
    <contour>
      <point x="143" y="-1" type="curve"/>
      <point x="182" y="-1"/>
      <point x="142" y="-1"/>
      <point x="260" y="0" type="curve"/>
      <point x="260" y="108"/>
      <point x="260" y="0"/>
      <point x="260" y="108" type="curve"/>
      <point x="142" y="108"/>
      <point x="260" y="108"/>
      <point x="143" y="108" type="curve"/>
      <point x="143" y="-1"/>
      <point x="143" y="108"/>
    </contour>
    <contour>
      <point x="429" y="533" type="curve"/>
      <point x="369" y="533"/>
      <point x="309" y="533"/>
      <point x="248" y="533" type="curve"/>
      <point x="248" y="425"/>
      <point x="248" y="533"/>
      <point x="248" y="425" type="curve"/>
      <point x="429" y="425"/>
      <point x="248" y="425"/>
      <point x="429" y="425" type="curve"/>
      <point x="429" y="533"/>
      <point x="429" y="425"/>
    </contour>
    <contour>
      <point x="145" y="799" type="curve"/>
      <point x="99" y="799"/>
      <point x="53" y="800"/>
      <point x="7" y="800" type="curve"/>
      <point x="7" y="692"/>
      <point x="7" y="800"/>
      <point x="7" y="692" type="curve"/>
      <point x="145" y="691"/>
      <point x="7" y="692"/>
      <point x="145" y="691" type="curve"/>
      <point x="145" y="799"/>
      <point x="145" y="691"/>
    </contour>
    <contour>
      <point x="213" y="0" type="curve"/>
      <point x="213" y="800" type="line"/>
      <point x="73" y="800"/>
      <point x="213" y="800"/>
      <point x="73" y="800" type="curve"/>
      <point x="73" y="533"/>
      <point x="73" y="267"/>
      <point x="73" y="0" type="curve"/>
      <point x="213" y="0"/>
      <point x="73" y="0"/>
    </contour>
    <contour>
      <point x="365" y="533" type="curve"/>
      <point x="191" y="275" type="line"/>
      <point x="325" y="275"/>
      <point x="191" y="275"/>
      <point x="324" y="275" type="curve"/>
      <point x="477" y="481" type="line"/>
      <point x="365" y="481"/>
      <point x="477" y="533"/>
    </contour>
    <contour>
      <point x="486" y="69" type="curve"/>
      <point x="324" y="275" type="line"/>
      <point x="191" y="275"/>
      <point x="325" y="275"/>
      <point x="191" y="275" type="curve"/>
      <point x="385" y="0" type="line"/>
      <point x="487" y="0"/>
      <point x="385" y="69"/>
    </contour>
  </outline>
</glyph>
<glyph name="l" format="1">
  <advance width="311"/>
  <unicode hex="006C"/>
  <outline>
    <contour>
      <point x="158" y="882" type="move" name="top"/>
    </contour>
    <contour>
      <point x="215" y="0" type="move" name="bottom"/>
    </contour>
    <contour>
      <point x="155" y="108" type="curve"/>
      <point x="19" y="108"/>
      <point x="155" y="108"/>
      <point x="19" y="108" type="curve"/>
      <point x="19" y="0"/>
      <point x="19" y="108"/>
      <point x="19" y="0" type="curve"/>
      <point x="65" y="0"/>
      <point x="110" y="0"/>
      <point x="155" y="0" type="curve"/>
      <point x="155" y="109"/>
      <point x="155" y="-1"/>
    </contour>
    <contour>
      <point x="157" y="800" type="curve"/>
      <point x="112" y="800"/>
      <point x="66" y="800"/>
      <point x="21" y="800" type="curve"/>
      <point x="20" y="692"/>
      <point x="21" y="800"/>
      <point x="20" y="692" type="curve"/>
      <point x="157" y="691"/>
      <point x="20" y="692"/>
      <point x="157" y="691" type="curve"/>
      <point x="157" y="799"/>
      <point x="157" y="692"/>
    </contour>
    <contour>
      <point x="155" y="0" type="curve"/>
      <point x="201" y="0"/>
      <point x="247" y="0"/>
      <point x="293" y="0" type="curve"/>
      <point x="293" y="108"/>
      <point x="293" y="0"/>
      <point x="293" y="108" type="curve"/>
      <point x="155" y="108"/>
      <point x="293" y="108"/>
      <point x="155" y="108" type="curve"/>
      <point x="155" y="-1"/>
      <point x="155" y="109"/>
    </contour>
    <contour>
      <point x="225" y="0" type="curve"/>
      <point x="225" y="267"/>
      <point x="225" y="533"/>
      <point x="225" y="800" type="curve"/>
      <point x="85" y="800"/>
      <point x="225" y="800"/>
      <point x="85" y="800" type="curve"/>
      <point x="85" y="533"/>
      <point x="85" y="267"/>
      <point x="85" y="0" type="curve"/>
      <point x="225" y="0"/>
      <point x="85" y="0"/>
    </contour>
  </outline>
</glyph>
<glyph name="o" format="1">
  <advance width="538"/>
  <unicode hex="006F"/>
  <outline>
    <contour>
      <point x="268" y="611" type="move" name="top"/>
    </contour>
    <contour>
      <point x="168" y="265" type="curve"/>
      <point x="168" y="346"/>
      <point x="187" y="425"/>
      <point x="263" y="425" type="curve"/>
      <point x="340" y="425"/>
      <point x="360" y="348"/>
      <point x="360" y="265" type="curve"/>
      <point x="360" y="179"/>
      <point x="344" y="108"/>
      <point x="272" y="108" type="curve"/>
      <point x="186" y="109"/>
      <point x="168" y="178"/>
      <point x="168" y="265" type="curve"/>
      <point x="168" y="265"/>
      <point x="38" y="265"/>
      <point x="38" y="265" type="curve"/>
      <point x="38" y="105"/>
      <point x="115" y="-5"/>
      <point x="266" y="-5" type="curve"/>
      <point x="420" y="-5"/>
      <point x="501" y="103"/>
      <point x="501" y="265" type="curve"/>
      <point x="501" y="427"/>
      <point x="423" y="538"/>
      <point x="270" y="538" type="curve"/>
      <point x="116" y="538"/>
      <point x="38" y="427"/>
      <point x="38" y="265" type="curve"/>
      <point x="38" y="265"/>
      <point x="168" y="265"/>
    </contour>
  </outline>
</glyph>
<glyph name="p" format="1">
  <advance width="568"/>
  <unicode hex="0070"/>
  <outline>
    <contour>
      <point x="143" y="-191" type="curve"/>
      <point x="6" y="-191"/>
      <point x="143" y="-191"/>
      <point x="6" y="-191" type="curve"/>
      <point x="6" y="-300"/>
      <point x="6" y="-191"/>
      <point x="6" y="-300" type="curve"/>
      <point x="52" y="-300"/>
      <point x="97" y="-300"/>
      <point x="143" y="-300" type="curve"/>
      <point x="143" y="-191"/>
      <point x="143" y="-300"/>
    </contour>
    <contour>
      <point x="143" y="-300" type="curve"/>
      <point x="186" y="-300"/>
      <point x="229" y="-300"/>
      <point x="272" y="-300" type="curve"/>
      <point x="272" y="-191"/>
      <point x="272" y="-300"/>
      <point x="272" y="-191" type="curve"/>
      <point x="142" y="-191"/>
      <point x="272" y="-191"/>
      <point x="143" y="-191" type="curve"/>
      <point x="143" y="-300"/>
      <point x="143" y="-191"/>
    </contour>
    <contour>
      <point x="144" y="533" type="curve"/>
      <point x="98" y="533"/>
      <point x="53" y="533"/>
      <point x="7" y="533" type="curve"/>
      <point x="7" y="425"/>
      <point x="7" y="533"/>
      <point x="7" y="425" type="curve"/>
      <point x="144" y="425"/>
      <point x="7" y="425"/>
      <point x="144" y="425" type="curve"/>
      <point x="144" y="533"/>
      <point x="144" y="425"/>
    </contour>
    <contour>
      <point x="184" y="298" type="curve"/>
      <point x="199" y="360"/>
      <point x="241" y="426"/>
      <point x="293" y="426" type="curve"/>
      <point x="381" y="426"/>
      <point x="390" y="347"/>
      <point x="390" y="261" type="curve"/>
      <point x="391" y="178"/>
      <point x="379" y="103"/>
      <point x="297" y="103" type="curve"/>
      <point x="251" y="103"/>
      <point x="217" y="125"/>
      <point x="188" y="161" type="curve"/>
      <point x="139" y="102"/>
      <point x="188" y="161"/>
      <point x="139" y="102" type="curve"/>
      <point x="190" y="33"/>
      <point x="246" y="-5"/>
      <point x="328" y="-5" type="curve"/>
      <point x="476" y="-5"/>
      <point x="531" y="119"/>
      <point x="531" y="267" type="curve"/>
      <point x="531" y="413"/>
      <point x="478" y="539"/>
      <point x="328" y="539" type="curve"/>
      <point x="245" y="539"/>
      <point x="181" y="464"/>
      <point x="146" y="387" type="curve"/>
      <point x="181" y="297"/>
      <point x="149" y="388"/>
    </contour>
    <contour>
      <point x="213" y="-300" type="curve"/>
      <point x="213" y="-22"/>
      <point x="213" y="255"/>
      <point x="213" y="533" type="curve"/>
      <point x="73" y="533"/>
      <point x="213" y="533"/>
      <point x="73" y="533" type="curve"/>
      <point x="73" y="255"/>
      <point x="73" y="-22"/>
      <point x="73" y="-300" type="curve"/>
      <point x="213" y="-300"/>
      <point x="73" y="-300"/>
    </contour>
  </outline>
</glyph>
<glyph name="y" format="1">
  <advance width="604"/>
  <unicode hex="0079"/>
  <outline>
    <contour>
      <point x="304" y="611" type="move" name="top"/>
    </contour>
    <contour>
      <point x="205" y="-190" type="curve"/>
      <point x="97" y="-192"/>
      <point x="205" y="-190"/>
      <point x="97" y="-192" type="curve"/>
      <point x="97" y="-300"/>
      <point x="97" y="-192"/>
      <point x="97" y="-300" type="curve"/>
      <point x="134" y="-300"/>
      <point x="168" y="-299"/>
      <point x="205" y="-299" type="curve"/>
      <point x="205" y="-190"/>
      <point x="205" y="-299"/>
    </contour>
    <contour>
      <point x="128" y="534" type="curve"/>
      <point x="92" y="534"/>
      <point x="55" y="533"/>
      <point x="19" y="533" type="curve"/>
      <point x="18" y="425"/>
      <point x="19" y="533"/>
      <point x="18" y="425" type="curve"/>
      <point x="128" y="426"/>
      <point x="18" y="425"/>
      <point x="128" y="426" type="curve"/>
      <point x="128" y="534"/>
      <point x="128" y="426"/>
    </contour>
    <contour>
      <point x="128" y="426" type="curve"/>
      <point x="264" y="425"/>
      <point x="128" y="426"/>
      <point x="264" y="425" type="curve"/>
      <point x="264" y="533"/>
      <point x="264" y="425"/>
      <point x="264" y="533" type="curve"/>
      <point x="218" y="533"/>
      <point x="174" y="534"/>
      <point x="128" y="534" type="curve"/>
      <point x="128" y="426"/>
      <point x="128" y="534"/>
    </contour>
    <contour>
      <point x="491" y="534" type="curve"/>
      <point x="445" y="534"/>
      <point x="399" y="533"/>
      <point x="354" y="533" type="curve"/>
      <point x="354" y="425"/>
      <point x="354" y="533"/>
      <point x="354" y="425" type="curve"/>
      <point x="491" y="426"/>
      <point x="354" y="425"/>
      <point x="491" y="426" type="curve"/>
      <point x="491" y="534"/>
      <point x="491" y="426"/>
    </contour>
    <contour>
      <point x="491" y="426" type="curve"/>
      <point x="595" y="425"/>
      <point x="491" y="426"/>
      <point x="595" y="425" type="curve"/>
      <point x="595" y="533"/>
      <point x="595" y="425"/>
      <point x="595" y="533" type="curve"/>
      <point x="560" y="533"/>
      <point x="525" y="534"/>
      <point x="491" y="534" type="curve"/>
      <point x="491" y="426"/>
      <point x="491" y="534"/>
    </contour>
    <contour>
      <point x="366" y="-23" type="curve"/>
      <point x="308" y="159"/>
      <point x="248" y="350"/>
      <point x="190" y="533" type="curve"/>
      <point x="46" y="533"/>
      <point x="190" y="533"/>
      <point x="46" y="533" type="curve"/>
      <point x="110" y="352"/>
      <point x="173" y="158"/>
      <point x="237" y="-24" type="curve"/>
      <point x="366" y="-24"/>
      <point x="237" y="-23"/>
    </contour>
    <contour>
      <point x="267" y="-300" type="curve"/>
      <point x="366" y="-28"/>
      <point x="472" y="261"/>
      <point x="571" y="533" type="curve"/>
      <point x="428" y="533"/>
      <point x="571" y="533"/>
      <point x="428" y="533" type="curve"/>
      <point x="328" y="261"/>
      <point x="223" y="-28"/>
      <point x="124" y="-300" type="curve"/>
      <point x="267" y="-300"/>
      <point x="124" y="-300"/>
    </contour>
  </outline>
</glyph>
<glyph name="bar" format="1">
  <advance width="277"/>
  <unicode hex="007C"/>
  <outline>
    <contour>
      <point x="209" y="-300" type="curve"/>
      <point x="209" y="67"/>
      <point x="209" y="433"/>
      <point x="209" y="800" type="curve"/>
      <point x="68" y="800"/>
      <point x="209" y="800"/>
      <point x="68" y="800" type="curve"/>
      <point x="68" y="433"/>
      <point x="68" y="67"/>
      <point x="68" y="-300" type="curve"/>
      <point x="209" y="-300"/>
      <point x="68" y="-300"/>
    </contour>
  </outline>
</glyph>
<glyph name="cent" format="1">
  <advance width="566"/>
  <unicode hex="00A2"/>
  <outline>
    <contour>
      <point x="373" y="-53" type="curve"/>
      <point x="373" y="-13"/>
      <point x="373" y="27"/>
      <point x="373" y="67" type="curve"/>
      <point x="232" y="67"/>
      <point x="373" y="67"/>
      <point x="232" y="67" type="curve"/>
      <point x="232" y="27"/>
      <point x="232" y="-13"/>
      <point x="232" y="-53" type="curve"/>
      <point x="373" y="-53"/>
      <point x="232" y="-53"/>
    </contour>
    <contour>
      <point x="248" y="778" type="curve"/>
      <point x="248" y="742"/>
      <point x="248" y="706"/>
      <point x="248" y="670" type="curve"/>
      <point x="389" y="670"/>
      <point x="248" y="670"/>
      <point x="389" y="670" type="curve"/>
      <point x="389" y="706"/>
      <point x="389" y="742"/>
      <point x="389" y="778" type="curve"/>
      <point x="248" y="778"/>
      <point x="389" y="778"/>
    </contour>
    <contour>
      <point x="518" y="610" type="curve"/>
      <point x="456" y="667"/>
      <point x="403" y="687"/>
      <point x="327" y="687" type="curve"/>
      <point x="145" y="687"/>
      <point x="44" y="554"/>
      <point x="44" y="363" type="curve"/>
      <point x="44" y="180"/>
      <point x="126" y="45"/>
      <point x="296" y="45" type="curve"/>
      <point x="388" y="45"/>
      <point x="452" y="71"/>
      <point x="514" y="146" type="curve"/>
      <point x="429" y="227"/>
      <point x="514" y="146"/>
      <point x="429" y="227" type="curve"/>
      <point x="391" y="189"/>
      <point x="362" y="159"/>
      <point x="309" y="159" type="curve"/>
      <point x="215" y="159"/>
      <point x="185" y="255"/>
      <point x="185" y="369" type="curve"/>
      <point x="185" y="481"/>
      <point x="225" y="573"/>
      <point x="314" y="573" type="curve"/>
      <point x="365" y="573"/>
      <point x="399" y="555"/>
      <point x="438" y="520" type="curve"/>
      <point x="518" y="610"/>
      <point x="438" y="520"/>
    </contour>
    <contour>
      <point x="408" y="610" type="curve"/>
      <point x="408" y="490"/>
      <point x="408" y="590"/>
      <point x="408" y="470" type="curve"/>
      <point x="518" y="470"/>
      <point x="408" y="470"/>
      <point x="518" y="470" type="curve"/>
      <point x="518" y="590"/>
      <point x="518" y="490"/>
      <point x="518" y="610" type="curve"/>
      <point x="408" y="610"/>
      <point x="518" y="610"/>
    </contour>
  </outline>
</glyph>
<glyph name="sterling" format="1">
  <advance width="421"/>
  <unicode hex="00A3"/>
  <outline>
    <contour>
      <point x="355" y="109" type="curve"/>
      <point x="256" y="109"/>
      <point x="146" y="109"/>
      <point x="46" y="109" type="curve"/>
      <point x="46" y="0"/>
      <point x="46" y="109"/>
      <point x="46" y="0" type="curve"/>
      <point x="146" y="0"/>
      <point x="255" y="0"/>
      <point x="355" y="0" type="curve"/>
      <point x="355" y="109"/>
      <point x="355" y="0"/>
    </contour>
    <contour>
      <point x="313" y="429" type="curve"/>
      <point x="232" y="429"/>
      <point x="141" y="429"/>
      <point x="61" y="429" type="curve"/>
      <point x="61" y="321"/>
      <point x="61" y="429"/>
      <point x="61" y="321" type="curve"/>
      <point x="141" y="321"/>
      <point x="232" y="321"/>
      <point x="313" y="321" type="curve"/>
      <point x="313" y="429"/>
      <point x="313" y="321"/>
    </contour>
    <contour>
      <point x="386" y="660" type="curve"/>
      <point x="346" y="707"/>
      <point x="309" y="720"/>
      <point x="258" y="720" type="curve"/>
      <point x="99" y="720"/>
      <point x="64" y="557"/>
      <point x="98" y="362" type="curve"/>
      <point x="120" y="233"/>
      <point x="117" y="109"/>
      <point x="46" y="109" type="curve"/>
      <point x="46" y="0"/>
      <point x="46" y="109"/>
      <point x="46" y="0" type="curve"/>
      <point x="220" y="0"/>
      <point x="257" y="177"/>
      <point x="222" y="386" type="curve"/>
      <point x="202" y="503"/>
      <point x="193" y="617"/>
      <point x="251" y="617" type="curve"/>
      <point x="279" y="617"/>
      <point x="294" y="600"/>
      <point x="315" y="581" type="curve"/>
      <point x="386" y="660"/>
      <point x="315" y="581"/>
    </contour>
  </outline>
</glyph>
<glyph name="dieresis" format="1">
  <advance width="378"/>
  <unicode hex="00A8"/>
  <outline>
    <contour>
      <point x="193" y="606" type="move" name="_top"/>
    </contour>
    <contour>
      <point x="168" y="670" type="curve"/>
      <point x="168" y="717"/>
      <point x="138" y="741"/>
      <point x="95" y="741" type="curve"/>
      <point x="51" y="741"/>
      <point x="23" y="715"/>
      <point x="23" y="670" type="curve"/>
      <point x="168" y="670"/>
      <point x="23" y="670"/>
      <point x="168" y="670" type="curve"/>
      <point x="168" y="622"/>
      <point x="139" y="600"/>
      <point x="95" y="600" type="curve"/>
      <point x="51" y="600"/>
      <point x="23" y="624"/>
      <point x="23" y="670" type="curve"/>
      <point x="168" y="670"/>
      <point x="23" y="670"/>
    </contour>
    <contour>
      <point x="366" y="670" type="curve"/>
      <point x="366" y="717"/>
      <point x="336" y="741"/>
      <point x="292" y="741" type="curve"/>
      <point x="249" y="741"/>
      <point x="220" y="715"/>
      <point x="220" y="670" type="curve"/>
      <point x="366" y="670"/>
      <point x="220" y="670"/>
      <point x="366" y="670" type="curve"/>
      <point x="366" y="622"/>
      <point x="337" y="600"/>
      <point x="292" y="600" type="curve"/>
      <point x="249" y="600"/>
      <point x="220" y="624"/>
      <point x="220" y="670" type="curve"/>
      <point x="366" y="670"/>
      <point x="220" y="670"/>
    </contour>
  </outline>
</glyph>
<glyph name="guillemotleft" format="1">
  <advance width="448"/>
  <unicode hex="00AB"/>
  <outline>
    <contour>
      <point x="201" y="487" type="curve"/>
      <point x="160" y="453"/>
      <point x="85" y="391"/>
      <point x="43" y="357" type="curve"/>
      <point x="43" y="237"/>
      <point x="43" y="337"/>
      <point x="43" y="217" type="curve"/>
      <point x="85" y="251"/>
      <point x="160" y="324"/>
      <point x="201" y="358" type="curve"/>
      <point x="201" y="477"/>
      <point x="201" y="368"/>
    </contour>
    <contour>
      <point x="201" y="218" type="curve"/>
      <point x="160" y="252"/>
      <point x="85" y="322"/>
      <point x="43" y="357" type="curve"/>
      <point x="43" y="237"/>
      <point x="43" y="337"/>
      <point x="43" y="217" type="curve"/>
      <point x="85" y="183"/>
      <point x="160" y="123"/>
      <point x="201" y="89" type="curve"/>
      <point x="201" y="208"/>
      <point x="201" y="99"/>
    </contour>
    <contour>
      <point x="383" y="487" type="curve"/>
      <point x="342" y="453"/>
      <point x="266" y="391"/>
      <point x="224" y="357" type="curve"/>
      <point x="224" y="237"/>
      <point x="224" y="337"/>
      <point x="224" y="217" type="curve"/>
      <point x="266" y="251"/>
      <point x="342" y="324"/>
      <point x="383" y="358" type="curve"/>
      <point x="383" y="477"/>
      <point x="383" y="368"/>
    </contour>
    <contour>
      <point x="383" y="218" type="curve"/>
      <point x="342" y="252"/>
      <point x="266" y="322"/>
      <point x="224" y="357" type="curve"/>
      <point x="224" y="237"/>
      <point x="224" y="337"/>
      <point x="224" y="217" type="curve"/>
      <point x="266" y="183"/>
      <point x="342" y="123"/>
      <point x="383" y="89" type="curve"/>
      <point x="383" y="208"/>
      <point x="383" y="99"/>
    </contour>
  </outline>
</glyph>
<glyph name="registered" format="1">
  <advance width="687"/>
  <unicode hex="00AE"/>
  <outline>
    <contour>
      <point x="144" y="322" type="curve"/>
      <point x="144" y="464"/>
      <point x="213" y="565"/>
      <point x="346" y="565" type="curve"/>
      <point x="478" y="565"/>
      <point x="543" y="462"/>
      <point x="543" y="320" type="curve"/>
      <point x="543" y="182"/>
      <point x="481" y="81"/>
      <point x="353" y="81" type="curve"/>
      <point x="218" y="81"/>
      <point x="144" y="180"/>
      <point x="144" y="322" type="curve"/>
      <point x="109" y="322"/>
      <point x="85" y="322"/>
      <point x="50" y="322" type="curve"/>
      <point x="50" y="130"/>
      <point x="161" y="4"/>
      <point x="348" y="4" type="curve"/>
      <point x="532" y="4"/>
      <point x="636" y="133"/>
      <point x="636" y="324" type="curve"/>
      <point x="636" y="515"/>
      <point x="530" y="643"/>
      <point x="346" y="643" type="curve"/>
      <point x="159" y="643"/>
      <point x="50" y="515"/>
      <point x="50" y="322" type="curve"/>
      <point x="85" y="322"/>
      <point x="109" y="322"/>
    </contour>
    <contour>
      <point x="407" y="141" type="curve"/>
      <point x="440" y="141"/>
      <point x="446" y="141"/>
      <point x="479" y="141" type="curve"/>
      <point x="479" y="228"/>
      <point x="479" y="141"/>
      <point x="479" y="228" type="curve"/>
      <point x="472" y="228"/>
      <point x="471" y="228"/>
      <point x="465" y="228" type="curve"/>
      <point x="422" y="253"/>
      <point x="408" y="252"/>
    </contour>
    <contour>
      <point x="344" y="509" type="curve"/>
      <point x="302" y="509"/>
      <point x="261" y="509"/>
      <point x="218" y="509" type="curve"/>
      <point x="218" y="421"/>
      <point x="218" y="509"/>
      <point x="218" y="421" type="curve"/>
      <point x="223" y="421"/>
      <point x="228" y="421"/>
      <point x="232" y="421" type="curve"/>
      <point x="344" y="509"/>
      <point x="232" y="421"/>
    </contour>
    <contour>
      <point x="344" y="228" type="curve"/>
      <point x="302" y="228"/>
      <point x="261" y="228"/>
      <point x="218" y="228" type="curve"/>
      <point x="218" y="141"/>
      <point x="218" y="228"/>
      <point x="218" y="141" type="curve"/>
      <point x="223" y="141"/>
      <point x="228" y="141"/>
      <point x="232" y="141" type="curve"/>
      <point x="344" y="228"/>
      <point x="232" y="141"/>
    </contour>
    <contour>
      <point x="232" y="141" type="curve"/>
      <point x="272" y="141"/>
      <point x="310" y="141"/>
      <point x="350" y="141" type="curve"/>
      <point x="350" y="228"/>
      <point x="350" y="141"/>
      <point x="350" y="228" type="curve"/>
      <point x="348" y="228"/>
      <point x="346" y="228"/>
      <point x="344" y="228" type="curve"/>
      <point x="232" y="141"/>
      <point x="344" y="228"/>
    </contour>
    <contour>
      <point x="316" y="321" type="curve"/>
      <point x="316" y="320"/>
      <point x="407" y="142"/>
      <point x="407" y="141" type="curve"/>
      <point x="472" y="172"/>
      <point x="459" y="172"/>
      <point x="465" y="228" type="curve"/>
      <point x="418" y="313" type="line"/>
      <point x="279" y="313"/>
      <point x="454" y="321"/>
    </contour>
    <contour>
      <point x="332" y="228" type="curve"/>
      <point x="332" y="321"/>
      <point x="332" y="415"/>
      <point x="332" y="509" type="curve"/>
      <point x="220" y="421"/>
      <point x="344" y="509"/>
      <point x="232" y="421" type="curve"/>
      <point x="232" y="328"/>
      <point x="232" y="234"/>
      <point x="232" y="141" type="curve"/>
      <point x="344" y="228"/>
      <point x="220" y="141"/>
    </contour>
    <contour>
      <point x="290" y="270" type="curve"/>
      <point x="303" y="270"/>
      <point x="317" y="270"/>
      <point x="330" y="270" type="curve"/>
      <point x="414" y="270"/>
      <point x="470" y="307"/>
      <point x="470" y="392" type="curve"/>
      <point x="470" y="464"/>
      <point x="423" y="509"/>
      <point x="352" y="509" type="curve"/>
      <point x="350" y="509"/>
      <point x="346" y="509"/>
      <point x="344" y="509" type="curve"/>
      <point x="232" y="421"/>
      <point x="344" y="509"/>
      <point x="232" y="421" type="curve"/>
      <point x="265" y="421"/>
      <point x="298" y="421"/>
      <point x="331" y="421" type="curve"/>
      <point x="354" y="421"/>
      <point x="371" y="411"/>
      <point x="371" y="388" type="curve"/>
      <point x="371" y="370"/>
      <point x="363" y="356"/>
      <point x="346" y="356" type="curve"/>
      <point x="327" y="356"/>
      <point x="308" y="356"/>
      <point x="290" y="356" type="curve"/>
      <point x="290" y="270"/>
      <point x="290" y="356"/>
    </contour>
  </outline>
</glyph>
<glyph name="macron" format="1">
  <advance width="240"/>
  <unicode hex="00AF"/>
  <outline>
    <contour>
      <point x="117" y="577" type="move" name="_top"/>
    </contour>
    <contour>
      <point x="201" y="685" type="curve"/>
      <point x="145" y="685"/>
      <point x="88" y="685"/>
      <point x="32" y="685" type="curve"/>
      <point x="32" y="577"/>
      <point x="32" y="685"/>
      <point x="32" y="577" type="curve"/>
      <point x="88" y="577"/>
      <point x="145" y="577"/>
      <point x="201" y="577" type="curve"/>
      <point x="201" y="685"/>
      <point x="201" y="577"/>
    </contour>
  </outline>
</glyph>
<glyph name="degree" format="1">
  <advance width="430"/>
  <unicode hex="00B0"/>
  <outline>
    <contour>
      <point x="380" y="621" type="curve"/>
      <point x="380" y="724"/>
      <point x="315" y="789"/>
      <point x="213" y="789" type="curve"/>
      <point x="112" y="789"/>
      <point x="50" y="723"/>
      <point x="50" y="621" type="curve"/>
      <point x="93" y="621"/>
      <point x="121" y="621"/>
      <point x="164" y="621" type="curve"/>
      <point x="164" y="660"/>
      <point x="177" y="691"/>
      <point x="212" y="691" type="curve"/>
      <point x="248" y="691"/>
      <point x="261" y="660"/>
      <point x="261" y="621" type="curve"/>
      <point x="261" y="582"/>
      <point x="250" y="552"/>
      <point x="215" y="552" type="curve"/>
      <point x="178" y="552"/>
      <point x="164" y="582"/>
      <point x="164" y="621" type="curve"/>
      <point x="121" y="621"/>
      <point x="93" y="621"/>
      <point x="50" y="621" type="curve"/>
      <point x="50" y="518"/>
      <point x="113" y="452"/>
      <point x="214" y="452" type="curve"/>
      <point x="317" y="452"/>
      <point x="380" y="518"/>
    </contour>
  </outline>
</glyph>
<glyph name="twosuperior" format="1">
  <advance width="404"/>
  <unicode hex="00B2"/>
  <outline>
    <contour>
      <point x="214" y="829" type="move" name="_top"/>
    </contour>
    <contour>
      <point x="201" y="398" type="move" name="_bottom"/>
    </contour>
    <contour>
      <point x="359" y="398" type="curve"/>
      <point x="359" y="443"/>
      <point x="359" y="490"/>
      <point x="359" y="536" type="curve"/>
      <point x="257" y="536"/>
      <point x="379" y="536"/>
      <point x="276" y="536" type="curve"/>
      <point x="276" y="519"/>
      <point x="276" y="502"/>
      <point x="276" y="484" type="curve"/>
      <point x="379" y="398"/>
      <point x="257" y="484"/>
    </contour>
    <contour>
      <point x="57" y="398" type="curve"/>
      <point x="154" y="398"/>
      <point x="275" y="398"/>
      <point x="359" y="398" type="curve"/>
      <point x="257" y="484"/>
      <point x="379" y="398"/>
      <point x="276" y="484" type="curve"/>
      <point x="210" y="484"/>
      <point x="124" y="484"/>
      <point x="57" y="484" type="curve"/>
      <point x="57" y="398"/>
      <point x="57" y="484"/>
    </contour>
    <contour>
      <point x="155" y="689" type="curve"/>
      <point x="163" y="716"/>
      <point x="174" y="742"/>
      <point x="202" y="742" type="curve"/>
      <point x="228" y="742"/>
      <point x="239" y="718"/>
      <point x="239" y="688" type="curve"/>
      <point x="239" y="654"/>
      <point x="219" y="636"/>
      <point x="195" y="612" type="curve"/>
      <point x="149" y="570"/>
      <point x="103" y="526"/>
      <point x="57" y="484" type="curve"/>
      <point x="58" y="398"/>
      <point x="57" y="484"/>
      <point x="58" y="398" type="curve"/>
      <point x="123" y="446"/>
      <point x="214" y="494"/>
      <point x="267" y="543" type="curve"/>
      <point x="312" y="590"/>
      <point x="346" y="627"/>
      <point x="346" y="693" type="curve"/>
      <point x="346" y="776"/>
      <point x="291" y="828"/>
      <point x="207" y="828" type="curve"/>
      <point x="141" y="828"/>
      <point x="94" y="803"/>
      <point x="75" y="719" type="curve"/>
      <point x="155" y="689"/>
      <point x="75" y="719"/>
    </contour>
  </outline>
</glyph>
<glyph name="acute" format="1">
  <advance width="461"/>
  <unicode hex="00B4"/>
  <outline>
    <contour>
      <point x="121" y="592" type="move" name="_top"/>
    </contour>
    <contour>
      <point x="184" y="591" type="line"/>
      <point x="307" y="757" type="line"/>
      <point x="135" y="757" type="line"/>
      <point x="51" y="591" type="line"/>
    </contour>
  </outline>
</glyph>
<glyph name="paragraph" format="1">
  <advance width="724"/>
  <unicode hex="00B6"/>
  <outline>
    <contour>
      <point x="376" y="614" type="curve"/>
      <point x="513" y="614"/>
      <point x="376" y="614"/>
      <point x="513" y="614" type="curve"/>
      <point x="513" y="722"/>
      <point x="513" y="614"/>
      <point x="513" y="722" type="curve"/>
      <point x="467" y="722"/>
      <point x="421" y="722"/>
      <point x="376" y="722" type="curve"/>
      <point x="376" y="614"/>
      <point x="376" y="722"/>
    </contour>
    <contour>
      <point x="376" y="0" type="curve"/>
      <point x="421" y="0"/>
      <point x="467" y="0"/>
      <point x="513" y="0" type="curve"/>
      <point x="513" y="108"/>
      <point x="513" y="0"/>
      <point x="513" y="108" type="curve"/>
      <point x="376" y="108"/>
      <point x="513" y="108"/>
      <point x="376" y="108" type="curve"/>
      <point x="376" y="0"/>
      <point x="376" y="108"/>
    </contour>
    <contour>
      <point x="376" y="108" type="curve"/>
      <point x="238" y="108"/>
      <point x="376" y="108"/>
      <point x="238" y="108" type="curve"/>
      <point x="238" y="0"/>
      <point x="238" y="108"/>
      <point x="238" y="0" type="curve"/>
      <point x="376" y="0"/>
      <point x="330" y="0"/>
      <point x="376" y="0" type="curve"/>
      <point x="376" y="108"/>
      <point x="376" y="0"/>
    </contour>
    <contour>
      <point x="352" y="388" type="curve"/>
      <point x="318" y="368"/>
      <point x="292" y="356"/>
      <point x="252" y="356" type="curve"/>
      <point x="195" y="356"/>
      <point x="175" y="409"/>
      <point x="175" y="474" type="curve"/>
      <point x="175" y="553"/>
      <point x="214" y="614"/>
      <point x="288" y="614" type="curve"/>
      <point x="317" y="614"/>
      <point x="345" y="614"/>
      <point x="373" y="614" type="curve"/>
      <point x="373" y="722"/>
      <point x="373" y="614"/>
      <point x="373" y="722" type="curve"/>
      <point x="339" y="722"/>
      <point x="304" y="722"/>
      <point x="269" y="722" type="curve"/>
      <point x="126" y="722"/>
      <point x="34" y="624"/>
      <point x="34" y="479" type="curve"/>
      <point x="34" y="340"/>
      <point x="124" y="255"/>
      <point x="265" y="253" type="curve"/>
      <point x="315" y="253"/>
      <point x="355" y="274"/>
      <point x="396" y="299" type="curve"/>
      <point x="352" y="388"/>
      <point x="395" y="302"/>
    </contour>
    <contour>
      <point x="447" y="0" type="curve"/>
      <point x="447" y="241"/>
      <point x="447" y="481"/>
      <point x="447" y="722" type="curve"/>
      <point x="306" y="722"/>
      <point x="447" y="722"/>
      <point x="306" y="722" type="curve"/>
      <point x="306" y="481"/>
      <point x="306" y="241"/>
      <point x="306" y="0" type="curve"/>
      <point x="447" y="0"/>
      <point x="306" y="0"/>
    </contour>
    <contour>
      <point x="649" y="0" type="curve"/>
      <point x="649" y="241"/>
      <point x="649" y="481"/>
      <point x="649" y="722" type="curve"/>
      <point x="508" y="722"/>
      <point x="649" y="722"/>
      <point x="508" y="722" type="curve"/>
      <point x="508" y="481"/>
      <point x="508" y="241"/>
      <point x="508" y="0" type="curve"/>
      <point x="649" y="0"/>
      <point x="508" y="0"/>
    </contour>
  </outline>
</glyph>
<glyph name="cedilla" format="1">
  <advance width="349"/>
  <unicode hex="00B8"/>
  <outline>
    <contour>
      <point x="223" y="87" type="move" name="_bottom"/>
    </contour>
    <contour>
      <point x="123" y="163" type="curve"/>
      <point x="113" y="142"/>
      <point x="73" y="47"/>
      <point x="63" y="25" type="curve"/>
      <point x="160" y="-61"/>
      <point x="63" y="25"/>
      <point x="160" y="-61" type="curve"/>
      <point x="172" y="-35"/>
      <point x="219" y="61"/>
      <point x="231" y="87" type="curve"/>
      <point x="123" y="163"/>
      <point x="231" y="87"/>
    </contour>
    <contour>
      <point x="160" y="-61" type="curve"/>
      <point x="165" y="-57"/>
      <point x="169" y="-53"/>
      <point x="175" y="-53" type="curve"/>
      <point x="181" y="-53"/>
      <point x="187" y="-57"/>
      <point x="187" y="-66" type="curve"/>
      <point x="187" y="-80"/>
      <point x="173" y="-84"/>
      <point x="159" y="-84" type="curve"/>
      <point x="141" y="-84"/>
      <point x="126" y="-80"/>
      <point x="110" y="-70" type="curve"/>
      <point x="57" y="-149"/>
      <point x="110" y="-70"/>
      <point x="57" y="-149" type="curve"/>
      <point x="87" y="-169"/>
      <point x="115" y="-177"/>
      <point x="152" y="-177" type="curve"/>
      <point x="223" y="-177"/>
      <point x="271" y="-138"/>
      <point x="271" y="-64" type="curve"/>
      <point x="271" y="5"/>
      <point x="228" y="49"/>
      <point x="159" y="49" type="curve"/>
      <point x="123" y="49"/>
      <point x="96" y="44"/>
      <point x="63" y="25" type="curve"/>
      <point x="160" y="-61"/>
      <point x="63" y="25"/>
    </contour>
  </outline>
</glyph>
<glyph name="guillemotright" format="1">
  <advance width="448"/>
  <unicode hex="00BB"/>
  <outline>
    <contour>
      <point x="247" y="487" type="curve"/>
      <point x="288" y="453"/>
      <point x="364" y="391"/>
      <point x="406" y="357" type="curve"/>
      <point x="406" y="237"/>
      <point x="406" y="337"/>
      <point x="406" y="217" type="curve"/>
      <point x="364" y="251"/>
      <point x="288" y="324"/>
      <point x="247" y="358" type="curve"/>
      <point x="247" y="477"/>
      <point x="247" y="368"/>
    </contour>
    <contour>
      <point x="247" y="218" type="curve"/>
      <point x="288" y="252"/>
      <point x="364" y="322"/>
      <point x="406" y="357" type="curve"/>
      <point x="406" y="237"/>
      <point x="406" y="337"/>
      <point x="406" y="217" type="curve"/>
      <point x="364" y="183"/>
      <point x="288" y="123"/>
      <point x="247" y="89" type="curve"/>
      <point x="247" y="208"/>
      <point x="247" y="99"/>
    </contour>
    <contour>
      <point x="66" y="487" type="curve"/>
      <point x="107" y="453"/>
      <point x="182" y="391"/>
      <point x="224" y="357" type="curve"/>
      <point x="224" y="237"/>
      <point x="224" y="337"/>
      <point x="224" y="217" type="curve"/>
      <point x="182" y="251"/>
      <point x="107" y="324"/>
      <point x="66" y="358" type="curve"/>
      <point x="66" y="477"/>
      <point x="66" y="368"/>
    </contour>
    <contour>
      <point x="66" y="218" type="curve"/>
      <point x="107" y="252"/>
      <point x="182" y="322"/>
      <point x="224" y="357" type="curve"/>
      <point x="224" y="237"/>
      <point x="224" y="337"/>
      <point x="224" y="217" type="curve"/>
      <point x="182" y="183"/>
      <point x="107" y="123"/>
      <point x="66" y="89" type="curve"/>
      <point x="66" y="208"/>
      <point x="66" y="99"/>
    </contour>
  </outline>
</glyph>
<glyph name="onequarter" format="1">
  <advance width="864"/>
  <unicode hex="00BC"/>
  <outline>
    <contour>
      <point x="334" y="-36" type="line"/>
      <point x="654" y="708" type="line"/>
      <point x="526" y="708" type="line"/>
      <point x="206" y="-36" type="line"/>
    </contour>
    <contour>
      <point x="120" y="285" type="curve"/>
      <point x="167" y="285"/>
      <point x="233" y="285"/>
      <point x="280" y="285" type="curve"/>
      <point x="280" y="373"/>
      <point x="280" y="285"/>
      <point x="280" y="373" type="curve"/>
      <point x="270" y="373"/>
      <point x="242" y="373"/>
      <point x="233" y="373" type="curve"/>
      <point x="120" y="285"/>
      <point x="233" y="373"/>
    </contour>
    <contour>
      <point x="233" y="373" type="curve"/>
      <point x="186" y="373"/>
      <point x="119" y="373"/>
      <point x="71" y="373" type="curve"/>
      <point x="71" y="285"/>
      <point x="71" y="373"/>
      <point x="71" y="285" type="curve"/>
      <point x="82" y="285"/>
      <point x="110" y="285"/>
      <point x="120" y="285" type="curve"/>
      <point x="233" y="373"/>
      <point x="120" y="285"/>
    </contour>
    <contour>
      <point x="93" y="556" type="line"/>
      <point x="233" y="706" type="line"/>
      <point x="120" y="706" type="line"/>
      <point x="30" y="621" type="line"/>
    </contour>
    <contour>
      <point x="233" y="373" type="curve"/>
      <point x="233" y="706" type="line"/>
      <point x="120" y="706" type="line"/>
      <point x="120" y="285" type="line"/>
      <point x="233" y="373"/>
      <point x="120" y="285"/>
    </contour>
    <contour>
      <point x="824" y="164" type="line"/>
      <point x="512" y="164" type="line"/>
      <point x="512" y="77" type="line"/>
      <point x="824" y="77" type="line"/>
    </contour>
    <contour>
      <point x="554" y="83" type="line"/>
      <point x="739" y="383" type="line"/>
      <point x="660" y="400" type="line"/>
      <point x="512" y="164" type="line"/>
    </contour>
    <contour>
      <point x="773" y="-29" type="line"/>
      <point x="773" y="400" type="line"/>
      <point x="660" y="400" type="line"/>
      <point x="660" y="-29" type="line"/>
    </contour>
    <contour>
      <point x="716" y="47" type="line"/>
      <point x="620" y="47" type="line"/>
      <point x="620" y="-30" type="line"/>
      <point x="716" y="-30" type="line"/>
    </contour>
    <contour>
      <point x="716" y="-30" type="line"/>
      <point x="811" y="-30" type="line"/>
      <point x="811" y="47" type="line"/>
      <point x="716" y="47" type="line"/>
    </contour>
  </outline>
</glyph>
<glyph name="onehalf" format="1">
  <advance width="949"/>
  <unicode hex="00BD"/>
  <outline>
    <contour>
      <point x="376" y="-36" type="line"/>
      <point x="695" y="708" type="line"/>
      <point x="567" y="708" type="line"/>
      <point x="248" y="-36" type="line"/>
    </contour>
    <contour>
      <point x="120" y="285" type="curve"/>
      <point x="167" y="285"/>
      <point x="233" y="285"/>
      <point x="280" y="285" type="curve"/>
      <point x="280" y="373"/>
      <point x="280" y="285"/>
      <point x="280" y="373" type="curve"/>
      <point x="270" y="373"/>
      <point x="242" y="373"/>
      <point x="233" y="373" type="curve"/>
      <point x="120" y="285"/>
      <point x="233" y="373"/>
    </contour>
    <contour>
      <point x="233" y="373" type="curve"/>
      <point x="186" y="373"/>
      <point x="119" y="373"/>
      <point x="71" y="373" type="curve"/>
      <point x="71" y="285"/>
      <point x="71" y="373"/>
      <point x="71" y="285" type="curve"/>
      <point x="82" y="285"/>
      <point x="110" y="285"/>
      <point x="120" y="285" type="curve"/>
      <point x="233" y="373"/>
      <point x="120" y="285"/>
    </contour>
    <contour>
      <point x="93" y="556" type="line"/>
      <point x="233" y="706" type="line"/>
      <point x="120" y="706" type="line"/>
      <point x="30" y="621" type="line"/>
    </contour>
    <contour>
      <point x="233" y="373" type="curve"/>
      <point x="233" y="706" type="line"/>
      <point x="120" y="706" type="line"/>
      <point x="120" y="285" type="line"/>
      <point x="233" y="373"/>
      <point x="120" y="285"/>
    </contour>
    <contour>
      <point x="918" y="-31" type="curve"/>
      <point x="918" y="15"/>
      <point x="918" y="61"/>
      <point x="918" y="108" type="curve"/>
      <point x="815" y="108"/>
      <point x="937" y="108"/>
      <point x="835" y="108" type="curve"/>
      <point x="835" y="90"/>
      <point x="835" y="73"/>
      <point x="835" y="55" type="curve"/>
      <point x="937" y="-31"/>
      <point x="815" y="55"/>
    </contour>
    <contour>
      <point x="616" y="-31" type="curve"/>
      <point x="713" y="-31"/>
      <point x="834" y="-31"/>
      <point x="918" y="-31" type="curve"/>
      <point x="815" y="55"/>
      <point x="937" y="-31"/>
      <point x="835" y="55" type="curve"/>
      <point x="769" y="55"/>
      <point x="682" y="55"/>
      <point x="616" y="55" type="curve"/>
      <point x="616" y="-31"/>
      <point x="616" y="55"/>
    </contour>
    <contour>
      <point x="714" y="260" type="curve"/>
      <point x="721" y="288"/>
      <point x="732" y="313"/>
      <point x="761" y="313" type="curve"/>
      <point x="787" y="313"/>
      <point x="797" y="289"/>
      <point x="797" y="259" type="curve"/>
      <point x="797" y="226"/>
      <point x="777" y="207"/>
      <point x="754" y="183" type="curve"/>
      <point x="708" y="141"/>
      <point x="662" y="98"/>
      <point x="616" y="55" type="curve"/>
      <point x="616" y="-31"/>
      <point x="616" y="55"/>
      <point x="616" y="-31" type="curve"/>
      <point x="682" y="17"/>
      <point x="773" y="65"/>
      <point x="826" y="114" type="curve"/>
      <point x="871" y="161"/>
      <point x="905" y="198"/>
      <point x="905" y="264" type="curve"/>
      <point x="905" y="347"/>
      <point x="850" y="399"/>
      <point x="765" y="399" type="curve"/>
      <point x="700" y="399"/>
      <point x="652" y="374"/>
      <point x="633" y="290" type="curve"/>
      <point x="714" y="260"/>
      <point x="633" y="290"/>
    </contour>
  </outline>
</glyph>
<glyph name="questiondown" format="1">
  <advance width="480"/>
  <unicode hex="00BF"/>
  <outline>
    <contour>
      <point x="316" y="365" type="curve"/>
      <point x="316" y="402"/>
      <point x="316" y="486"/>
      <point x="316" y="523" type="curve"/>
      <point x="188" y="523"/>
      <point x="316" y="523"/>
      <point x="188" y="523" type="curve"/>
      <point x="188" y="486"/>
      <point x="188" y="402"/>
      <point x="188" y="365" type="curve"/>
      <point x="316" y="365"/>
      <point x="188" y="365"/>
    </contour>
    <contour>
      <point x="377" y="162" type="line"/>
      <point x="345" y="128"/>
      <point x="317" y="109"/>
      <point x="273" y="109" type="curve"/>
      <point x="208" y="109"/>
      <point x="175" y="159"/>
      <point x="175" y="226" type="curve"/>
      <point x="175" y="309"/>
      <point x="222" y="365"/>
      <point x="302" y="365" type="curve"/>
      <point x="302" y="404"/>
      <point x="303" y="431"/>
      <point x="303" y="470" type="curve"/>
      <point x="144" y="470"/>
      <point x="41" y="377"/>
      <point x="41" y="226" type="curve"/>
      <point x="41" y="81"/>
      <point x="132" y="-7"/>
      <point x="267" y="-7" type="curve"/>
      <point x="346" y="-7"/>
      <point x="406" y="18"/>
      <point x="451" y="73" type="curve"/>
    </contour>
    <contour>
      <point x="178" y="683" type="curve"/>
      <point x="178" y="636"/>
      <point x="210" y="612"/>
      <point x="252" y="612" type="curve"/>
      <point x="296" y="612"/>
      <point x="324" y="638"/>
      <point x="324" y="683" type="curve"/>
      <point x="178" y="683"/>
      <point x="324" y="683"/>
      <point x="178" y="683" type="curve"/>
      <point x="178" y="732"/>
      <point x="209" y="753"/>
      <point x="252" y="753" type="curve"/>
      <point x="297" y="753"/>
      <point x="324" y="730"/>
      <point x="324" y="683" type="curve"/>
      <point x="178" y="683"/>
      <point x="324" y="683"/>
    </contour>
  </outline>
</glyph>
<glyph name="Ccedilla" format="1">
  <advance width="608"/>
  <unicode hex="00C7"/>
  <outline>
    <contour>
      <point x="442" y="654" type="curve"/>
      <point x="442" y="534"/>
      <point x="442" y="654"/>
      <point x="442" y="534" type="curve"/>
      <point x="552" y="534"/>
      <point x="442" y="534"/>
      <point x="552" y="534" type="curve"/>
      <point x="552" y="654"/>
      <point x="552" y="534"/>
      <point x="552" y="654" type="curve"/>
      <point x="442" y="654"/>
      <point x="552" y="654"/>
    </contour>
    <contour>
      <point x="552" y="654" type="curve"/>
      <point x="494" y="697"/>
      <point x="425" y="727"/>
      <point x="345" y="727" type="curve"/>
      <point x="142" y="727"/>
      <point x="47" y="571"/>
      <point x="47" y="345" type="curve"/>
      <point x="47" y="138"/>
      <point x="139" y="-5"/>
      <point x="331" y="-5" type="curve"/>
      <point x="434" y="-5"/>
      <point x="503" y="29"/>
      <point x="564" y="99" type="curve"/>
      <point x="482" y="180"/>
      <point x="564" y="99"/>
      <point x="482" y="180" type="curve"/>
      <point x="438" y="136"/>
      <point x="400" y="108"/>
      <point x="338" y="108" type="curve"/>
      <point x="220" y="108"/>
      <point x="188" y="215"/>
      <point x="188" y="350" type="curve"/>
      <point x="188" y="497"/>
      <point x="217" y="614"/>
      <point x="340" y="614" type="curve"/>
      <point x="392" y="614"/>
      <point x="438" y="596"/>
      <point x="475" y="567" type="curve"/>
      <point x="552" y="654"/>
      <point x="475" y="567"/>
    </contour>
    <contour>
      <point x="273" y="81" type="curve"/>
      <point x="263" y="59"/>
      <point x="223" y="-35"/>
      <point x="213" y="-57" type="curve"/>
      <point x="310" y="-144"/>
      <point x="213" y="-57"/>
      <point x="310" y="-144" type="curve"/>
      <point x="322" y="-118"/>
      <point x="369" y="-21"/>
      <point x="381" y="5" type="curve"/>
      <point x="273" y="81"/>
      <point x="381" y="5"/>
    </contour>
    <contour>
      <point x="310" y="-144" type="curve"/>
      <point x="315" y="-140"/>
      <point x="319" y="-136"/>
      <point x="325" y="-136" type="curve"/>
      <point x="332" y="-136"/>
      <point x="337" y="-139"/>
      <point x="337" y="-149" type="curve"/>
      <point x="337" y="-162"/>
      <point x="324" y="-166"/>
      <point x="309" y="-166" type="curve"/>
      <point x="291" y="-166"/>
      <point x="276" y="-162"/>
      <point x="260" y="-152" type="curve"/>
      <point x="207" y="-231"/>
      <point x="260" y="-152"/>
      <point x="207" y="-231" type="curve"/>
      <point x="237" y="-251"/>
      <point x="266" y="-259"/>
      <point x="302" y="-259" type="curve"/>
      <point x="373" y="-259"/>
      <point x="421" y="-220"/>
      <point x="421" y="-147" type="curve"/>
      <point x="421" y="-77"/>
      <point x="378" y="-33"/>
      <point x="309" y="-33" type="curve"/>
      <point x="273" y="-33"/>
      <point x="246" y="-38"/>
      <point x="213" y="-57" type="curve"/>
      <point x="310" y="-144"/>
      <point x="213" y="-57"/>
    </contour>
  </outline>
</glyph>
<glyph name="Eacute" format="1">
  <advance width="557"/>
  <unicode hex="00C9"/>
  <outline>
    <contour>
      <point x="520" y="54" type="curve"/>
      <point x="520" y="174"/>
      <point x="520" y="54"/>
      <point x="520" y="174" type="curve"/>
      <point x="409" y="174"/>
      <point x="520" y="174"/>
      <point x="409" y="174" type="curve"/>
      <point x="409" y="54"/>
      <point x="409" y="174"/>
      <point x="409" y="54" type="curve"/>
      <point x="520" y="54"/>
      <point x="409" y="54"/>
    </contour>
    <contour>
      <point x="384" y="668" type="curve"/>
      <point x="384" y="548"/>
      <point x="384" y="668"/>
      <point x="384" y="548" type="curve"/>
      <point x="495" y="548"/>
      <point x="384" y="548"/>
      <point x="495" y="548" type="curve"/>
      <point x="495" y="668"/>
      <point x="495" y="548"/>
      <point x="495" y="668" type="curve"/>
      <point x="384" y="668"/>
      <point x="495" y="668"/>
    </contour>
    <contour>
      <point x="199" y="108" type="curve"/>
      <point x="62" y="108"/>
      <point x="199" y="108"/>
      <point x="63" y="108" type="curve"/>
      <point x="63" y="0"/>
      <point x="63" y="108"/>
      <point x="63" y="0" type="curve"/>
      <point x="109" y="0"/>
      <point x="154" y="0"/>
      <point x="199" y="0" type="curve"/>
      <point x="199" y="108"/>
      <point x="199" y="0"/>
    </contour>
    <contour>
      <point x="199" y="722" type="curve"/>
      <point x="154" y="722"/>
      <point x="109" y="722"/>
      <point x="63" y="722" type="curve"/>
      <point x="63" y="614"/>
      <point x="63" y="722"/>
      <point x="63" y="614" type="curve"/>
      <point x="199" y="614"/>
      <point x="62" y="614"/>
      <point x="199" y="614" type="curve"/>
      <point x="199" y="722"/>
      <point x="199" y="614"/>
    </contour>
    <contour>
      <point x="202" y="318" type="curve"/>
      <point x="283" y="318"/>
      <point x="366" y="318"/>
      <point x="448" y="318" type="curve"/>
      <point x="448" y="427"/>
      <point x="448" y="318"/>
      <point x="448" y="427" type="curve"/>
      <point x="366" y="427"/>
      <point x="283" y="427"/>
      <point x="202" y="427" type="curve"/>
      <point x="202" y="318"/>
      <point x="202" y="427"/>
    </contour>
    <contour>
      <point x="190" y="614" type="curve"/>
      <point x="292" y="614"/>
      <point x="393" y="614"/>
      <point x="495" y="614" type="curve"/>
      <point x="495" y="722"/>
      <point x="495" y="614"/>
      <point x="495" y="722" type="curve"/>
      <point x="393" y="722"/>
      <point x="292" y="722"/>
      <point x="190" y="722" type="curve"/>
      <point x="190" y="614"/>
      <point x="190" y="722"/>
    </contour>
    <contour>
      <point x="269" y="0" type="curve"/>
      <point x="269" y="722" type="line"/>
      <point x="128" y="722"/>
      <point x="269" y="722"/>
      <point x="128" y="722" type="curve"/>
      <point x="128" y="481"/>
      <point x="128" y="241"/>
      <point x="128" y="0" type="curve"/>
      <point x="269" y="0"/>
      <point x="128" y="0"/>
    </contour>
    <contour>
      <point x="190" y="0" type="curve"/>
      <point x="300" y="0"/>
      <point x="410" y="0"/>
      <point x="520" y="0" type="curve"/>
      <point x="520" y="108"/>
      <point x="520" y="0"/>
      <point x="520" y="108" type="curve"/>
      <point x="410" y="108"/>
      <point x="300" y="108"/>
      <point x="190" y="108" type="curve"/>
      <point x="190" y="0"/>
      <point x="190" y="108"/>
    </contour>
    <contour>
      <point x="364" y="780" type="line"/>
      <point x="487" y="946" type="line"/>
      <point x="315" y="946" type="line"/>
      <point x="231" y="780" type="line"/>
    </contour>
  </outline>
</glyph>
<glyph name="Edieresis" format="1">
  <advance width="557"/>
  <unicode hex="00CB"/>
  <outline>
    <contour>
      <point x="520" y="54" type="curve"/>
      <point x="520" y="174"/>
      <point x="520" y="54"/>
      <point x="520" y="174" type="curve"/>
      <point x="409" y="174"/>
      <point x="520" y="174"/>
      <point x="409" y="174" type="curve"/>
      <point x="409" y="54"/>
      <point x="409" y="174"/>
      <point x="409" y="54" type="curve"/>
      <point x="520" y="54"/>
      <point x="409" y="54"/>
    </contour>
    <contour>
      <point x="384" y="668" type="curve"/>
      <point x="384" y="548"/>
      <point x="384" y="668"/>
      <point x="384" y="548" type="curve"/>
      <point x="495" y="548"/>
      <point x="384" y="548"/>
      <point x="495" y="548" type="curve"/>
      <point x="495" y="668"/>
      <point x="495" y="548"/>
      <point x="495" y="668" type="curve"/>
      <point x="384" y="668"/>
      <point x="495" y="668"/>
    </contour>
    <contour>
      <point x="199" y="108" type="curve"/>
      <point x="62" y="108"/>
      <point x="199" y="108"/>
      <point x="63" y="108" type="curve"/>
      <point x="63" y="0"/>
      <point x="63" y="108"/>
      <point x="63" y="0" type="curve"/>
      <point x="109" y="0"/>
      <point x="154" y="0"/>
      <point x="199" y="0" type="curve"/>
      <point x="199" y="108"/>
      <point x="199" y="0"/>
    </contour>
    <contour>
      <point x="199" y="722" type="curve"/>
      <point x="154" y="722"/>
      <point x="109" y="722"/>
      <point x="63" y="722" type="curve"/>
      <point x="63" y="614"/>
      <point x="63" y="722"/>
      <point x="63" y="614" type="curve"/>
      <point x="199" y="614"/>
      <point x="62" y="614"/>
      <point x="199" y="614" type="curve"/>
      <point x="199" y="722"/>
      <point x="199" y="614"/>
    </contour>
    <contour>
      <point x="202" y="318" type="curve"/>
      <point x="283" y="318"/>
      <point x="366" y="318"/>
      <point x="448" y="318" type="curve"/>
      <point x="448" y="427"/>
      <point x="448" y="318"/>
      <point x="448" y="427" type="curve"/>
      <point x="366" y="427"/>
      <point x="283" y="427"/>
      <point x="202" y="427" type="curve"/>
      <point x="202" y="318"/>
      <point x="202" y="427"/>
    </contour>
    <contour>
      <point x="190" y="614" type="curve"/>
      <point x="292" y="614"/>
      <point x="393" y="614"/>
      <point x="495" y="614" type="curve"/>
      <point x="495" y="722"/>
      <point x="495" y="614"/>
      <point x="495" y="722" type="curve"/>
      <point x="393" y="722"/>
      <point x="292" y="722"/>
      <point x="190" y="722" type="curve"/>
      <point x="190" y="614"/>
      <point x="190" y="722"/>
    </contour>
    <contour>
      <point x="269" y="0" type="curve"/>
      <point x="269" y="722" type="line"/>
      <point x="128" y="722"/>
      <point x="269" y="722"/>
      <point x="128" y="722" type="curve"/>
      <point x="128" y="481"/>
      <point x="128" y="241"/>
      <point x="128" y="0" type="curve"/>
      <point x="269" y="0"/>
      <point x="128" y="0"/>
    </contour>
    <contour>
      <point x="190" y="0" type="curve"/>
      <point x="300" y="0"/>
      <point x="410" y="0"/>
      <point x="520" y="0" type="curve"/>
      <point x="520" y="108"/>
      <point x="520" y="0"/>
      <point x="520" y="108" type="curve"/>
      <point x="410" y="108"/>
      <point x="300" y="108"/>
      <point x="190" y="108" type="curve"/>
      <point x="190" y="0"/>
      <point x="190" y="108"/>
    </contour>
    <contour>
      <point x="276" y="845" type="curve"/>
      <point x="276" y="892"/>
      <point x="245" y="916"/>
      <point x="202" y="916" type="curve"/>
      <point x="159" y="916"/>
      <point x="130" y="890"/>
      <point x="130" y="845" type="curve"/>
      <point x="276" y="845"/>
      <point x="130" y="845"/>
      <point x="276" y="845" type="curve"/>
      <point x="276" y="797"/>
      <point x="245" y="775"/>
      <point x="202" y="775" type="curve"/>
      <point x="158" y="775"/>
      <point x="130" y="799"/>
      <point x="130" y="845" type="curve"/>
      <point x="276" y="845"/>
      <point x="130" y="845"/>
    </contour>
    <contour>
      <point x="474" y="845" type="curve"/>
      <point x="474" y="892"/>
      <point x="442" y="916"/>
      <point x="400" y="916" type="curve"/>
      <point x="356" y="916"/>
      <point x="328" y="890"/>
      <point x="328" y="845" type="curve"/>
      <point x="474" y="845"/>
      <point x="328" y="845"/>
      <point x="474" y="845" type="curve"/>
      <point x="474" y="797"/>
      <point x="443" y="775"/>
      <point x="400" y="775" type="curve"/>
      <point x="356" y="775"/>
      <point x="328" y="799"/>
      <point x="328" y="845" type="curve"/>
      <point x="474" y="845"/>
      <point x="328" y="845"/>
    </contour>
  </outline>
</glyph>
<glyph name="Iacute" format="1">
  <advance width="353"/>
  <unicode hex="00CD"/>
  <outline>
    <contour>
      <point x="177" y="722" type="curve"/>
      <point x="131" y="722"/>
      <point x="85" y="722"/>
      <point x="39" y="722" type="curve"/>
      <point x="39" y="614"/>
      <point x="39" y="722"/>
      <point x="39" y="614" type="curve"/>
      <point x="177" y="614"/>
      <point x="39" y="614"/>
      <point x="177" y="614" type="curve"/>
      <point x="177" y="722"/>
      <point x="177" y="614"/>
    </contour>
    <contour>
      <point x="177" y="614" type="curve"/>
      <point x="313" y="614"/>
      <point x="176" y="614"/>
      <point x="313" y="614" type="curve"/>
      <point x="313" y="722"/>
      <point x="313" y="614"/>
      <point x="313" y="722" type="curve"/>
      <point x="267" y="722"/>
      <point x="221" y="722"/>
      <point x="177" y="722" type="curve"/>
      <point x="177" y="614"/>
      <point x="177" y="722"/>
    </contour>
    <contour>
      <point x="177" y="0" type="curve"/>
      <point x="221" y="0"/>
      <point x="267" y="0"/>
      <point x="313" y="0" type="curve"/>
      <point x="313" y="108"/>
      <point x="313" y="0"/>
      <point x="313" y="108" type="curve"/>
      <point x="176" y="108"/>
      <point x="313" y="108"/>
      <point x="177" y="108" type="curve"/>
      <point x="177" y="0"/>
      <point x="177" y="108"/>
    </contour>
    <contour>
      <point x="177" y="108" type="curve"/>
      <point x="39" y="108"/>
      <point x="177" y="108"/>
      <point x="39" y="108" type="curve"/>
      <point x="39" y="0"/>
      <point x="39" y="108"/>
      <point x="39" y="0" type="curve"/>
      <point x="85" y="0"/>
      <point x="131" y="0"/>
      <point x="177" y="0" type="curve"/>
      <point x="177" y="108"/>
      <point x="177" y="0"/>
    </contour>
    <contour>
      <point x="245" y="0" type="curve"/>
      <point x="245" y="241"/>
      <point x="245" y="481"/>
      <point x="245" y="722" type="curve"/>
      <point x="105" y="722"/>
      <point x="245" y="722"/>
      <point x="105" y="722" type="curve"/>
      <point x="105" y="481"/>
      <point x="105" y="241"/>
      <point x="105" y="0" type="curve"/>
      <point x="245" y="0"/>
      <point x="105" y="0"/>
    </contour>
    <contour>
      <point x="240" y="780" type="line"/>
      <point x="363" y="946" type="line"/>
      <point x="191" y="946" type="line"/>
      <point x="108" y="780" type="line"/>
    </contour>
  </outline>
</glyph>
<glyph name="Icircumflex" format="1">
  <advance width="349"/>
  <unicode hex="00CE"/>
  <outline>
    <contour>
      <point x="172" y="722" type="curve"/>
      <point x="126" y="722"/>
      <point x="80" y="722"/>
      <point x="34" y="722" type="curve"/>
      <point x="34" y="614"/>
      <point x="34" y="722"/>
      <point x="34" y="614" type="curve"/>
      <point x="172" y="614"/>
      <point x="34" y="614"/>
      <point x="172" y="614" type="curve"/>
      <point x="172" y="722"/>
      <point x="172" y="614"/>
    </contour>
    <contour>
      <point x="172" y="614" type="curve"/>
      <point x="309" y="614"/>
      <point x="171" y="614"/>
      <point x="308" y="614" type="curve"/>
      <point x="308" y="722"/>
      <point x="308" y="614"/>
      <point x="308" y="722" type="curve"/>
      <point x="262" y="722"/>
      <point x="217" y="722"/>
      <point x="172" y="722" type="curve"/>
      <point x="172" y="614"/>
      <point x="172" y="722"/>
    </contour>
    <contour>
      <point x="172" y="0" type="curve"/>
      <point x="217" y="0"/>
      <point x="262" y="0"/>
      <point x="308" y="0" type="curve"/>
      <point x="308" y="108"/>
      <point x="308" y="0"/>
      <point x="308" y="108" type="curve"/>
      <point x="171" y="108"/>
      <point x="309" y="108"/>
      <point x="172" y="108" type="curve"/>
      <point x="172" y="0"/>
      <point x="172" y="108"/>
    </contour>
    <contour>
      <point x="172" y="108" type="curve"/>
      <point x="34" y="108"/>
      <point x="172" y="108"/>
      <point x="34" y="108" type="curve"/>
      <point x="34" y="0"/>
      <point x="34" y="108"/>
      <point x="34" y="0" type="curve"/>
      <point x="80" y="0"/>
      <point x="126" y="0"/>
      <point x="172" y="0" type="curve"/>
      <point x="172" y="108"/>
      <point x="172" y="0"/>
    </contour>
    <contour>
      <point x="240" y="0" type="curve"/>
      <point x="240" y="241"/>
      <point x="240" y="481"/>
      <point x="240" y="722" type="curve"/>
      <point x="100" y="722"/>
      <point x="240" y="722"/>
      <point x="100" y="722" type="curve"/>
      <point x="100" y="481"/>
      <point x="100" y="241"/>
      <point x="100" y="0" type="curve"/>
      <point x="240" y="0"/>
      <point x="100" y="0"/>
    </contour>
    <contour>
      <point x="109" y="781" type="line"/>
      <point x="232" y="947" type="line"/>
      <point x="59" y="947" type="line"/>
      <point x="-24" y="781" type="line"/>
    </contour>
    <contour>
      <point x="369" y="781" type="line"/>
      <point x="286" y="947" type="line"/>
      <point x="114" y="947" type="line"/>
      <point x="237" y="781" type="line"/>
    </contour>
  </outline>
</glyph>
<glyph name="Idieresis" format="1">
  <advance width="352"/>
  <unicode hex="00CF"/>
  <outline>
    <contour>
      <point x="177" y="722" type="curve"/>
      <point x="132" y="722"/>
      <point x="86" y="722"/>
      <point x="40" y="722" type="curve"/>
      <point x="40" y="614"/>
      <point x="40" y="722"/>
      <point x="40" y="614" type="curve"/>
      <point x="178" y="614"/>
      <point x="40" y="614"/>
      <point x="177" y="614" type="curve"/>
      <point x="177" y="722"/>
      <point x="177" y="614"/>
    </contour>
    <contour>
      <point x="177" y="614" type="curve"/>
      <point x="314" y="614"/>
      <point x="177" y="614"/>
      <point x="314" y="614" type="curve"/>
      <point x="314" y="722"/>
      <point x="314" y="614"/>
      <point x="314" y="722" type="curve"/>
      <point x="268" y="722"/>
      <point x="222" y="722"/>
      <point x="177" y="722" type="curve"/>
      <point x="177" y="614"/>
      <point x="177" y="722"/>
    </contour>
    <contour>
      <point x="177" y="0" type="curve"/>
      <point x="222" y="0"/>
      <point x="268" y="0"/>
      <point x="314" y="0" type="curve"/>
      <point x="314" y="108"/>
      <point x="314" y="0"/>
      <point x="314" y="108" type="curve"/>
      <point x="177" y="108"/>
      <point x="314" y="108"/>
      <point x="177" y="108" type="curve"/>
      <point x="177" y="0"/>
      <point x="177" y="108"/>
    </contour>
    <contour>
      <point x="177" y="108" type="curve"/>
      <point x="40" y="108"/>
      <point x="178" y="108"/>
      <point x="40" y="108" type="curve"/>
      <point x="40" y="0"/>
      <point x="40" y="108"/>
      <point x="40" y="0" type="curve"/>
      <point x="86" y="0"/>
      <point x="132" y="0"/>
      <point x="177" y="0" type="curve"/>
      <point x="177" y="108"/>
      <point x="177" y="0"/>
    </contour>
    <contour>
      <point x="246" y="0" type="curve"/>
      <point x="246" y="241"/>
      <point x="246" y="481"/>
      <point x="246" y="722" type="curve"/>
      <point x="106" y="722"/>
      <point x="246" y="722"/>
      <point x="106" y="722" type="curve"/>
      <point x="106" y="481"/>
      <point x="106" y="241"/>
      <point x="106" y="0" type="curve"/>
      <point x="246" y="0"/>
      <point x="106" y="0"/>
    </contour>
    <contour>
      <point x="153" y="845" type="curve"/>
      <point x="153" y="892"/>
      <point x="122" y="916"/>
      <point x="80" y="916" type="curve"/>
      <point x="36" y="916"/>
      <point x="8" y="890"/>
      <point x="8" y="845" type="curve"/>
      <point x="153" y="845"/>
      <point x="8" y="845"/>
      <point x="153" y="845" type="curve"/>
      <point x="153" y="797"/>
      <point x="123" y="775"/>
      <point x="80" y="775" type="curve"/>
      <point x="35" y="775"/>
      <point x="8" y="799"/>
      <point x="8" y="845" type="curve"/>
      <point x="153" y="845"/>
      <point x="8" y="845"/>
    </contour>
    <contour>
      <point x="351" y="845" type="curve"/>
      <point x="351" y="892"/>
      <point x="320" y="916"/>
      <point x="277" y="916" type="curve"/>
      <point x="234" y="916"/>
      <point x="205" y="890"/>
      <point x="205" y="845" type="curve"/>
      <point x="351" y="845"/>
      <point x="205" y="845"/>
      <point x="351" y="845" type="curve"/>
      <point x="351" y="797"/>
      <point x="321" y="775"/>
      <point x="277" y="775" type="curve"/>
      <point x="233" y="775"/>
      <point x="205" y="799"/>
      <point x="205" y="845" type="curve"/>
      <point x="351" y="845"/>
      <point x="205" y="845"/>
    </contour>
  </outline>
</glyph>
<glyph name="Ograve" format="1">
  <advance width="668"/>
  <unicode hex="00D2"/>
  <outline>
    <contour>
      <point x="188" y="360" type="curve"/>
      <point x="188" y="496"/>
      <point x="210" y="614"/>
      <point x="331" y="614" type="curve"/>
      <point x="447" y="614"/>
      <point x="480" y="499"/>
      <point x="480" y="363" type="curve"/>
      <point x="480" y="226"/>
      <point x="456" y="109"/>
      <point x="336" y="109" type="curve"/>
      <point x="218" y="109"/>
      <point x="188" y="223"/>
      <point x="188" y="360" type="curve"/>
      <point x="47" y="360"/>
      <point x="188" y="360"/>
      <point x="47" y="360" type="curve"/>
      <point x="47" y="151"/>
      <point x="139" y="-5"/>
      <point x="331" y="-5" type="curve"/>
      <point x="526" y="-5"/>
      <point x="620" y="152"/>
      <point x="620" y="363" type="curve"/>
      <point x="620" y="570"/>
      <point x="529" y="727"/>
      <point x="337" y="727" type="curve"/>
      <point x="143" y="727"/>
      <point x="47" y="570"/>
      <point x="47" y="360" type="curve"/>
      <point x="188" y="360"/>
      <point x="47" y="360"/>
    </contour>
    <contour>
      <point x="402" y="782" type="line"/>
      <point x="318" y="948" type="line"/>
      <point x="146" y="948" type="line"/>
      <point x="269" y="782" type="line"/>
    </contour>
  </outline>
</glyph>
<glyph name="multiply" format="1">
  <advance width="610"/>
  <unicode hex="00D7"/>
  <outline>
    <contour>
      <point x="127" y="44" type="line"/>
      <point x="562" y="498" type="line"/>
      <point x="483" y="578" type="line"/>
      <point x="48" y="123" type="line"/>
    </contour>
    <contour>
      <point x="562" y="121" type="line"/>
      <point x="127" y="575" type="line"/>
      <point x="48" y="496" type="line"/>
      <point x="483" y="41" type="line"/>
    </contour>
  </outline>
</glyph>
<glyph name="Ucircumflex" format="1">
  <advance width="721"/>
  <unicode hex="00DB"/>
  <outline>
    <contour>
      <point x="549" y="614" type="curve"/>
      <point x="683" y="614"/>
      <point x="549" y="614"/>
      <point x="683" y="614" type="curve"/>
      <point x="683" y="722"/>
      <point x="683" y="614"/>
      <point x="683" y="722" type="curve"/>
      <point x="638" y="722"/>
      <point x="594" y="722"/>
      <point x="549" y="722" type="curve"/>
      <point x="549" y="614"/>
      <point x="549" y="722"/>
    </contour>
    <contour>
      <point x="549" y="722" type="curve"/>
      <point x="504" y="722"/>
      <point x="459" y="722"/>
      <point x="415" y="722" type="curve"/>
      <point x="415" y="614"/>
      <point x="415" y="722"/>
      <point x="415" y="614" type="curve"/>
      <point x="549" y="614"/>
      <point x="415" y="614"/>
      <point x="549" y="614" type="curve"/>
      <point x="549" y="722"/>
      <point x="549" y="614"/>
    </contour>
    <contour>
      <point x="174" y="722" type="curve"/>
      <point x="129" y="722"/>
      <point x="85" y="722"/>
      <point x="41" y="722" type="curve"/>
      <point x="41" y="614"/>
      <point x="41" y="722"/>
      <point x="41" y="614" type="curve"/>
      <point x="174" y="614"/>
      <point x="41" y="614"/>
      <point x="174" y="614" type="curve"/>
      <point x="174" y="722"/>
      <point x="174" y="614"/>
    </contour>
    <contour>
      <point x="174" y="614" type="curve"/>
      <point x="308" y="614"/>
      <point x="174" y="614"/>
      <point x="308" y="614" type="curve"/>
      <point x="308" y="722"/>
      <point x="308" y="614"/>
      <point x="308" y="722" type="curve"/>
      <point x="264" y="722"/>
      <point x="219" y="722"/>
      <point x="174" y="722" type="curve"/>
      <point x="174" y="614"/>
      <point x="174" y="722"/>
    </contour>
    <contour>
      <point x="109" y="676" type="curve"/>
      <point x="109" y="542"/>
      <point x="108" y="407"/>
      <point x="109" y="273" type="curve"/>
      <point x="109" y="94"/>
      <point x="185" y="-5"/>
      <point x="357" y="-5" type="curve"/>
      <point x="534" y="-5"/>
      <point x="613" y="99"/>
      <point x="613" y="285" type="curve"/>
      <point x="613" y="415"/>
      <point x="613" y="545"/>
      <point x="613" y="676" type="curve"/>
      <point x="485" y="676"/>
      <point x="613" y="676"/>
      <point x="485" y="676" type="curve"/>
      <point x="485" y="539"/>
      <point x="485" y="407"/>
      <point x="485" y="270" type="curve"/>
      <point x="485" y="178"/>
      <point x="451" y="115"/>
      <point x="367" y="115" type="curve"/>
      <point x="266" y="115"/>
      <point x="237" y="185"/>
      <point x="237" y="295" type="curve"/>
      <point x="237" y="422"/>
      <point x="237" y="549"/>
      <point x="237" y="676" type="curve"/>
      <point x="109" y="676"/>
      <point x="237" y="676"/>
    </contour>
    <contour>
      <point x="300" y="781" type="line"/>
      <point x="423" y="947" type="line"/>
      <point x="251" y="947" type="line"/>
      <point x="167" y="781" type="line"/>
    </contour>
    <contour>
      <point x="561" y="781" type="line"/>
      <point x="477" y="947" type="line"/>
      <point x="305" y="947" type="line"/>
      <point x="428" y="781" type="line"/>
    </contour>
  </outline>
</glyph>
<glyph name="Thorn" format="1">
  <advance width="564"/>
  <unicode hex="00DE"/>
  <outline>
    <contour>
      <point x="194" y="722" type="curve"/>
      <point x="151" y="722"/>
      <point x="106" y="722"/>
      <point x="62" y="722" type="curve"/>
      <point x="62" y="614"/>
      <point x="62" y="722"/>
      <point x="62" y="614" type="curve"/>
      <point x="194" y="614"/>
      <point x="62" y="614"/>
      <point x="194" y="614" type="curve"/>
      <point x="194" y="722"/>
      <point x="194" y="614"/>
    </contour>
    <contour>
      <point x="194" y="108" type="curve"/>
      <point x="62" y="108"/>
      <point x="194" y="108"/>
      <point x="62" y="108" type="curve"/>
      <point x="62" y="0"/>
      <point x="62" y="108"/>
      <point x="62" y="0" type="curve"/>
      <point x="106" y="0"/>
      <point x="151" y="0"/>
      <point x="194" y="0" type="curve"/>
      <point x="194" y="108"/>
      <point x="194" y="0"/>
    </contour>
    <contour>
      <point x="194" y="0" type="curve"/>
      <point x="237" y="0"/>
      <point x="194" y="0"/>
      <point x="321" y="0" type="curve"/>
      <point x="321" y="108"/>
      <point x="321" y="0"/>
      <point x="321" y="108" type="curve"/>
      <point x="194" y="108"/>
      <point x="321" y="108"/>
      <point x="194" y="108" type="curve"/>
      <point x="194" y="0"/>
      <point x="194" y="108"/>
    </contour>
    <contour>
      <point x="173" y="210" type="curve"/>
      <point x="223" y="181"/>
      <point x="274" y="163"/>
      <point x="335" y="163" type="curve"/>
      <point x="457" y="165"/>
      <point x="535" y="247"/>
      <point x="535" y="381" type="curve"/>
      <point x="535" y="502"/>
      <point x="444" y="585"/>
      <point x="301" y="585" type="curve"/>
      <point x="266" y="585"/>
      <point x="231" y="585"/>
      <point x="197" y="585" type="curve"/>
      <point x="197" y="476"/>
      <point x="197" y="585"/>
      <point x="197" y="476" type="curve"/>
      <point x="225" y="476"/>
      <point x="253" y="476"/>
      <point x="282" y="476" type="curve"/>
      <point x="356" y="476"/>
      <point x="395" y="432"/>
      <point x="395" y="376" type="curve"/>
      <point x="395" y="316"/>
      <point x="374" y="268"/>
      <point x="318" y="268" type="curve"/>
      <point x="278" y="268"/>
      <point x="252" y="280"/>
      <point x="218" y="300" type="curve"/>
      <point x="174" y="213"/>
      <point x="218" y="300"/>
    </contour>
    <contour>
      <point x="264" y="0" type="curve"/>
      <point x="264" y="241"/>
      <point x="264" y="481"/>
      <point x="264" y="722" type="curve"/>
      <point x="123" y="722"/>
      <point x="264" y="722"/>
      <point x="123" y="722" type="curve"/>
      <point x="123" y="481"/>
      <point x="123" y="241"/>
      <point x="123" y="0" type="curve"/>
      <point x="264" y="0"/>
      <point x="123" y="0"/>
    </contour>
    <contour>
      <point x="194" y="614" type="curve"/>
      <point x="237" y="614"/>
      <point x="194" y="614"/>
      <point x="321" y="614" type="curve"/>
      <point x="321" y="722"/>
      <point x="321" y="614"/>
      <point x="321" y="722" type="curve"/>
      <point x="194" y="722"/>
      <point x="321" y="722"/>
      <point x="194" y="722" type="curve"/>
      <point x="194" y="614"/>
      <point x="194" y="722"/>
    </contour>
  </outline>
</glyph>
<glyph name="atilde" format="1">
  <advance width="528"/>
  <unicode hex="00E3"/>
  <outline>
    <contour>
      <point x="68" y="461" type="curve"/>
      <point x="68" y="349"/>
      <point x="68" y="461"/>
      <point x="68" y="349" type="curve"/>
      <point x="178" y="349"/>
      <point x="68" y="349"/>
      <point x="178" y="349" type="curve"/>
      <point x="178" y="461"/>
      <point x="178" y="349"/>
      <point x="178" y="461" type="curve"/>
      <point x="68" y="461"/>
      <point x="178" y="461"/>
    </contour>
    <contour>
      <point x="444" y="0" type="curve"/>
      <point x="444" y="123"/>
      <point x="444" y="247"/>
      <point x="444" y="370" type="curve"/>
      <point x="444" y="488"/>
      <point x="366" y="538"/>
      <point x="251" y="538" type="curve"/>
      <point x="169" y="538"/>
      <point x="110" y="505"/>
      <point x="68" y="461" type="curve"/>
      <point x="120" y="370"/>
      <point x="68" y="461"/>
      <point x="120" y="370" type="curve"/>
      <point x="146" y="396"/>
      <point x="180" y="425"/>
      <point x="232" y="425" type="curve"/>
      <point x="278" y="425"/>
      <point x="303" y="398"/>
      <point x="303" y="353" type="curve"/>
      <point x="303" y="235"/>
      <point x="303" y="117"/>
      <point x="303" y="0" type="curve"/>
      <point x="444" y="0"/>
      <point x="303" y="0"/>
    </contour>
    <contour>
      <point x="375" y="0" type="curve"/>
      <point x="416" y="0"/>
      <point x="459" y="0"/>
      <point x="500" y="0" type="curve"/>
      <point x="500" y="108"/>
      <point x="500" y="0"/>
      <point x="500" y="108" type="curve"/>
      <point x="375" y="108"/>
      <point x="500" y="108"/>
      <point x="375" y="108" type="curve"/>
      <point x="375" y="0"/>
      <point x="375" y="108"/>
    </contour>
    <contour>
      <point x="370" y="349" type="curve"/>
      <point x="312" y="340"/>
      <point x="277" y="338"/>
      <point x="220" y="329" type="curve"/>
      <point x="112" y="312"/>
      <point x="40" y="268"/>
      <point x="40" y="165" type="curve"/>
      <point x="40" y="58"/>
      <point x="97" y="-5"/>
      <point x="202" y="-5" type="curve"/>
      <point x="307" y="-5"/>
      <point x="347" y="83"/>
      <point x="408" y="153" type="curve"/>
      <point x="338" y="213"/>
      <point x="408" y="153"/>
      <point x="338" y="213" type="curve"/>
      <point x="313" y="154"/>
      <point x="293" y="103"/>
      <point x="236" y="103" type="curve"/>
      <point x="192" y="103"/>
      <point x="176" y="128"/>
      <point x="176" y="170" type="curve"/>
      <point x="176" y="202"/>
      <point x="198" y="228"/>
      <point x="224" y="232" type="curve"/>
      <point x="287" y="242"/>
      <point x="313" y="247"/>
      <point x="376" y="257" type="curve"/>
      <point x="370" y="349"/>
      <point x="376" y="257"/>
    </contour>
    <contour>
      <point x="352" y="802" type="curve"/>
      <point x="335" y="767"/>
      <point x="322" y="760"/>
      <point x="307" y="760" type="curve"/>
      <point x="282" y="760"/>
      <point x="270" y="766"/>
      <point x="252" y="780" type="curve"/>
      <point x="227" y="800"/>
      <point x="213" y="809"/>
      <point x="184" y="809" type="curve"/>
      <point x="116" y="809"/>
      <point x="80" y="740"/>
      <point x="59" y="676" type="curve"/>
      <point x="163" y="616"/>
      <point x="59" y="677"/>
      <point x="163" y="616" type="curve"/>
      <point x="182" y="656"/>
      <point x="198" y="663"/>
      <point x="217" y="663" type="curve"/>
      <point x="237" y="663"/>
      <point x="247" y="657"/>
      <point x="261" y="645" type="curve"/>
      <point x="291" y="621"/>
      <point x="307" y="609"/>
      <point x="342" y="609" type="curve"/>
      <point x="410" y="609"/>
      <point x="436" y="674"/>
      <point x="463" y="744" type="curve"/>
      <point x="352" y="802"/>
      <point x="463" y="743"/>
    </contour>
  </outline>
</glyph>
<glyph name="ae" format="1">
  <advance width="758"/>
  <unicode hex="00E6"/>
  <outline>
    <contour>
      <point x="66" y="461" type="curve"/>
      <point x="66" y="349"/>
      <point x="66" y="462"/>
      <point x="66" y="350" type="curve"/>
      <point x="176" y="350"/>
      <point x="66" y="350"/>
      <point x="176" y="350" type="curve"/>
      <point x="176" y="462"/>
      <point x="176" y="349"/>
      <point x="176" y="461" type="curve"/>
      <point x="66" y="461"/>
      <point x="176" y="461"/>
    </contour>
    <contour>
      <point x="442" y="283" type="curve"/>
      <point x="442" y="314"/>
      <point x="442" y="339"/>
      <point x="442" y="370" type="curve"/>
      <point x="442" y="488"/>
      <point x="364" y="533"/>
      <point x="249" y="533" type="curve"/>
      <point x="167" y="533"/>
      <point x="108" y="505"/>
      <point x="66" y="461" type="curve"/>
      <point x="118" y="370"/>
      <point x="66" y="461"/>
      <point x="118" y="370" type="curve"/>
      <point x="144" y="396"/>
      <point x="177" y="425"/>
      <point x="230" y="425" type="curve"/>
      <point x="276" y="425"/>
      <point x="301" y="394"/>
      <point x="301" y="338" type="curve"/>
      <point x="301" y="318"/>
      <point x="301" y="303"/>
      <point x="301" y="283" type="curve"/>
      <point x="442" y="283"/>
      <point x="301" y="283"/>
    </contour>
    <contour>
      <point x="368" y="330" type="curve"/>
      <point x="309" y="329"/>
      <point x="275" y="329"/>
      <point x="214" y="319" type="curve"/>
      <point x="106" y="302"/>
      <point x="39" y="260"/>
      <point x="39" y="165" type="curve"/>
      <point x="39" y="58"/>
      <point x="95" y="-5"/>
      <point x="200" y="-5" type="curve"/>
      <point x="305" y="-5"/>
      <point x="352" y="61"/>
      <point x="407" y="147" type="curve"/>
      <point x="336" y="207"/>
      <point x="407" y="147"/>
      <point x="336" y="207" type="curve"/>
      <point x="301" y="155"/>
      <point x="287" y="103"/>
      <point x="226" y="103" type="curve"/>
      <point x="188" y="103"/>
      <point x="174" y="125"/>
      <point x="174" y="163" type="curve"/>
      <point x="174" y="192"/>
      <point x="197" y="216"/>
      <point x="222" y="220" type="curve"/>
      <point x="278" y="229"/>
      <point x="317" y="228"/>
      <point x="373" y="228" type="curve"/>
      <point x="367" y="320"/>
      <point x="374" y="238"/>
    </contour>
    <contour>
      <point x="370" y="227" type="curve"/>
      <point x="468" y="227"/>
      <point x="566" y="227"/>
      <point x="664" y="227" type="curve"/>
      <point x="723" y="227"/>
      <point x="664" y="227"/>
      <point x="723" y="227" type="curve"/>
      <point x="723" y="274"/>
      <point x="723" y="227"/>
      <point x="723" y="274" type="curve"/>
      <point x="723" y="280"/>
      <point x="723" y="286"/>
      <point x="723" y="292" type="curve"/>
      <point x="723" y="442"/>
      <point x="657" y="538"/>
      <point x="520" y="538" type="curve"/>
      <point x="372" y="538"/>
      <point x="299" y="438"/>
      <point x="299" y="278" type="curve"/>
      <point x="299" y="106"/>
      <point x="377" y="-5"/>
      <point x="536" y="-5" type="curve"/>
      <point x="605" y="-5"/>
      <point x="649" y="22"/>
      <point x="702" y="73" type="curve"/>
      <point x="617" y="150"/>
      <point x="702" y="73"/>
      <point x="617" y="150" type="curve"/>
      <point x="593" y="123"/>
      <point x="571" y="109"/>
      <point x="536" y="109" type="curve"/>
      <point x="453" y="109"/>
      <point x="438" y="183"/>
      <point x="438" y="278" type="curve"/>
      <point x="438" y="359"/>
      <point x="444" y="425"/>
      <point x="514" y="425" type="curve"/>
      <point x="574" y="425"/>
      <point x="590" y="373"/>
      <point x="590" y="303" type="curve"/>
      <point x="590" y="293"/>
      <point x="590" y="284"/>
      <point x="590" y="274" type="curve"/>
      <point x="602" y="286"/>
      <point x="613" y="296"/>
      <point x="625" y="308" type="curve"/>
      <point x="636" y="318"/>
      <point x="653" y="317"/>
      <point x="664" y="329" type="curve"/>
      <point x="566" y="329"/>
      <point x="468" y="329"/>
      <point x="370" y="329" type="curve"/>
      <point x="370" y="221"/>
      <point x="370" y="335"/>
    </contour>
  </outline>
</glyph>
<glyph name="edieresis" format="1">
  <advance width="497"/>
  <unicode hex="00EB"/>
  <outline>
    <contour>
      <point x="109" y="227" type="curve"/>
      <point x="207" y="227"/>
      <point x="305" y="227"/>
      <point x="403" y="227" type="curve"/>
      <point x="463" y="227"/>
      <point x="403" y="227"/>
      <point x="463" y="227" type="curve"/>
      <point x="463" y="274"/>
      <point x="463" y="227"/>
      <point x="463" y="274" type="curve"/>
      <point x="463" y="280"/>
      <point x="463" y="286"/>
      <point x="463" y="292" type="curve"/>
      <point x="463" y="442"/>
      <point x="397" y="538"/>
      <point x="259" y="538" type="curve"/>
      <point x="112" y="538"/>
      <point x="39" y="438"/>
      <point x="39" y="278" type="curve"/>
      <point x="39" y="106"/>
      <point x="117" y="-5"/>
      <point x="275" y="-5" type="curve"/>
      <point x="345" y="-5"/>
      <point x="389" y="22"/>
      <point x="441" y="73" type="curve"/>
      <point x="357" y="150"/>
      <point x="441" y="73"/>
      <point x="357" y="150" type="curve"/>
      <point x="333" y="123"/>
      <point x="310" y="109"/>
      <point x="275" y="109" type="curve"/>
      <point x="191" y="109"/>
      <point x="177" y="183"/>
      <point x="177" y="278" type="curve"/>
      <point x="177" y="359"/>
      <point x="183" y="425"/>
      <point x="253" y="425" type="curve"/>
      <point x="313" y="425"/>
      <point x="329" y="373"/>
      <point x="329" y="303" type="curve"/>
      <point x="329" y="293"/>
      <point x="329" y="284"/>
      <point x="329" y="274" type="curve"/>
      <point x="341" y="286"/>
      <point x="353" y="296"/>
      <point x="365" y="308" type="curve"/>
      <point x="375" y="318"/>
      <point x="392" y="317"/>
      <point x="403" y="329" type="curve"/>
      <point x="305" y="329"/>
      <point x="207" y="329"/>
      <point x="109" y="329" type="curve"/>
      <point x="109" y="221"/>
      <point x="109" y="335"/>
    </contour>
    <contour>
      <point x="238" y="675" type="curve"/>
      <point x="238" y="722"/>
      <point x="207" y="746"/>
      <point x="164" y="746" type="curve"/>
      <point x="121" y="746"/>
      <point x="92" y="720"/>
      <point x="92" y="675" type="curve"/>
      <point x="238" y="675"/>
      <point x="92" y="675"/>
      <point x="238" y="675" type="curve"/>
      <point x="238" y="627"/>
      <point x="208" y="605"/>
      <point x="164" y="605" type="curve"/>
      <point x="120" y="605"/>
      <point x="92" y="629"/>
      <point x="92" y="675" type="curve"/>
      <point x="238" y="675"/>
      <point x="92" y="675"/>
    </contour>
    <contour>
      <point x="436" y="675" type="curve"/>
      <point x="436" y="722"/>
      <point x="404" y="746"/>
      <point x="362" y="746" type="curve"/>
      <point x="319" y="746"/>
      <point x="290" y="720"/>
      <point x="290" y="675" type="curve"/>
      <point x="436" y="675"/>
      <point x="290" y="675"/>
      <point x="436" y="675" type="curve"/>
      <point x="436" y="627"/>
      <point x="405" y="605"/>
      <point x="362" y="605" type="curve"/>
      <point x="318" y="605"/>
      <point x="290" y="629"/>
      <point x="290" y="675" type="curve"/>
      <point x="436" y="675"/>
      <point x="290" y="675"/>
    </contour>
  </outline>
</glyph>
<glyph name="iacute" format="1">
  <advance width="317"/>
  <unicode hex="00ED"/>
  <outline>
    <contour>
      <point x="164" y="108" type="curve"/>
      <point x="27" y="108"/>
      <point x="164" y="108"/>
      <point x="27" y="108" type="curve"/>
      <point x="26" y="0"/>
      <point x="27" y="108"/>
      <point x="26" y="0" type="curve"/>
      <point x="72" y="0"/>
      <point x="118" y="0"/>
      <point x="164" y="0" type="curve"/>
      <point x="164" y="108"/>
      <point x="164" y="0"/>
    </contour>
    <contour>
      <point x="164" y="0" type="curve"/>
      <point x="207" y="0"/>
      <point x="249" y="0"/>
      <point x="293" y="0" type="curve"/>
      <point x="293" y="108"/>
      <point x="293" y="0"/>
      <point x="293" y="108" type="curve"/>
      <point x="163" y="108"/>
      <point x="293" y="108"/>
      <point x="164" y="108" type="curve"/>
      <point x="164" y="0"/>
      <point x="164" y="108"/>
    </contour>
    <contour>
      <point x="164" y="533" type="curve"/>
      <point x="118" y="533"/>
      <point x="72" y="533"/>
      <point x="27" y="533" type="curve"/>
      <point x="26" y="425"/>
      <point x="27" y="533"/>
      <point x="26" y="425" type="curve"/>
      <point x="164" y="425"/>
      <point x="26" y="425"/>
      <point x="164" y="425" type="curve"/>
      <point x="164" y="533"/>
      <point x="164" y="425"/>
    </contour>
    <contour>
      <point x="237" y="0" type="curve"/>
      <point x="237" y="178"/>
      <point x="237" y="355"/>
      <point x="237" y="533" type="curve"/>
      <point x="90" y="533"/>
      <point x="237" y="533"/>
      <point x="90" y="533" type="curve"/>
      <point x="90" y="355"/>
      <point x="90" y="178"/>
      <point x="90" y="0" type="curve"/>
      <point x="237" y="0"/>
      <point x="90" y="0"/>
    </contour>
    <contour>
      <point x="229" y="610" type="line"/>
      <point x="352" y="776" type="line"/>
      <point x="180" y="776" type="line"/>
      <point x="97" y="610" type="line"/>
    </contour>
  </outline>
</glyph>
<glyph name="ntilde" format="1">
  <advance width="582"/>
  <unicode hex="00F1"/>
  <outline>
    <contour>
      <point x="205" y="265" type="curve"/>
      <point x="219" y="345"/>
      <point x="250" y="425"/>
      <point x="307" y="425" type="curve"/>
      <point x="363" y="425"/>
      <point x="370" y="373"/>
      <point x="370" y="309" type="curve"/>
      <point x="370" y="205"/>
      <point x="370" y="103"/>
      <point x="370" y="0" type="curve"/>
      <point x="511" y="0"/>
      <point x="370" y="0"/>
      <point x="511" y="0" type="curve"/>
      <point x="511" y="106"/>
      <point x="511" y="213"/>
      <point x="511" y="320" type="curve"/>
      <point x="511" y="446"/>
      <point x="480" y="538"/>
      <point x="359" y="538" type="curve"/>
      <point x="264" y="538"/>
      <point x="191" y="460"/>
      <point x="165" y="327" type="curve"/>
      <point x="206" y="266"/>
      <point x="164" y="326"/>
    </contour>
    <contour>
      <point x="440" y="0" type="curve"/>
      <point x="485" y="0"/>
      <point x="531" y="0"/>
      <point x="577" y="0" type="curve"/>
      <point x="577" y="108"/>
      <point x="577" y="0"/>
      <point x="577" y="108" type="curve"/>
      <point x="440" y="108"/>
      <point x="577" y="108"/>
      <point x="440" y="108" type="curve"/>
      <point x="440" y="0"/>
      <point x="440" y="108"/>
    </contour>
    <contour>
      <point x="163" y="108" type="curve"/>
      <point x="25" y="108"/>
      <point x="163" y="108"/>
      <point x="25" y="108" type="curve"/>
      <point x="25" y="0"/>
      <point x="25" y="108"/>
      <point x="25" y="0" type="curve"/>
      <point x="71" y="0"/>
      <point x="117" y="0"/>
      <point x="163" y="0" type="curve"/>
      <point x="163" y="108"/>
      <point x="163" y="0"/>
    </contour>
    <contour>
      <point x="163" y="0" type="curve"/>
      <point x="205" y="0"/>
      <point x="162" y="0"/>
      <point x="291" y="0" type="curve"/>
      <point x="291" y="108"/>
      <point x="291" y="0"/>
      <point x="291" y="108" type="curve"/>
      <point x="162" y="108"/>
      <point x="291" y="108"/>
      <point x="163" y="108" type="curve"/>
      <point x="163" y="0"/>
      <point x="163" y="108"/>
    </contour>
    <contour>
      <point x="232" y="0" type="curve"/>
      <point x="232" y="178"/>
      <point x="232" y="355"/>
      <point x="232" y="533" type="curve"/>
      <point x="92" y="533"/>
      <point x="232" y="533"/>
      <point x="92" y="533" type="curve"/>
      <point x="92" y="355"/>
      <point x="92" y="178"/>
      <point x="92" y="0" type="curve"/>
      <point x="232" y="0"/>
      <point x="92" y="0"/>
    </contour>
    <contour>
      <point x="163" y="533" type="curve"/>
      <point x="117" y="533"/>
      <point x="71" y="533"/>
      <point x="25" y="533" type="curve"/>
      <point x="25" y="425"/>
      <point x="25" y="533"/>
      <point x="25" y="425" type="curve"/>
      <point x="163" y="425"/>
      <point x="25" y="425"/>
      <point x="163" y="425" type="curve"/>
      <point x="163" y="533"/>
      <point x="163" y="425"/>
    </contour>
    <contour>
      <point x="394" y="802" type="curve"/>
      <point x="376" y="767"/>
      <point x="365" y="760"/>
      <point x="350" y="760" type="curve"/>
      <point x="325" y="760"/>
      <point x="313" y="766"/>
      <point x="295" y="780" type="curve"/>
      <point x="269" y="800"/>
      <point x="256" y="809"/>
      <point x="227" y="809" type="curve"/>
      <point x="158" y="809"/>
      <point x="123" y="740"/>
      <point x="102" y="676" type="curve"/>
      <point x="205" y="616"/>
      <point x="102" y="677"/>
      <point x="205" y="616" type="curve"/>
      <point x="225" y="656"/>
      <point x="241" y="663"/>
      <point x="259" y="663" type="curve"/>
      <point x="280" y="663"/>
      <point x="290" y="657"/>
      <point x="304" y="645" type="curve"/>
      <point x="333" y="621"/>
      <point x="349" y="609"/>
      <point x="384" y="609" type="curve"/>
      <point x="453" y="609"/>
      <point x="479" y="674"/>
      <point x="505" y="744" type="curve"/>
      <point x="394" y="802"/>
      <point x="505" y="743"/>
    </contour>
  </outline>
</glyph>
<glyph name="otilde" format="1">
  <advance width="538"/>
  <unicode hex="00F5"/>
  <outline>
    <contour>
      <point x="168" y="265" type="curve"/>
      <point x="168" y="346"/>
      <point x="187" y="425"/>
      <point x="263" y="425" type="curve"/>
      <point x="340" y="425"/>
      <point x="360" y="348"/>
      <point x="360" y="265" type="curve"/>
      <point x="360" y="179"/>
      <point x="344" y="108"/>
      <point x="272" y="108" type="curve"/>
      <point x="186" y="109"/>
      <point x="168" y="178"/>
      <point x="168" y="265" type="curve"/>
      <point x="168" y="265"/>
      <point x="38" y="265"/>
      <point x="38" y="265" type="curve"/>
      <point x="38" y="105"/>
      <point x="115" y="-5"/>
      <point x="266" y="-5" type="curve"/>
      <point x="420" y="-5"/>
      <point x="501" y="103"/>
      <point x="501" y="265" type="curve"/>
      <point x="501" y="427"/>
      <point x="423" y="538"/>
      <point x="270" y="538" type="curve"/>
      <point x="116" y="538"/>
      <point x="38" y="427"/>
      <point x="38" y="265" type="curve"/>
      <point x="38" y="265"/>
      <point x="168" y="265"/>
    </contour>
    <contour>
      <point x="365" y="802" type="curve"/>
      <point x="347" y="767"/>
      <point x="335" y="760"/>
      <point x="320" y="760" type="curve"/>
      <point x="295" y="760"/>
      <point x="283" y="766"/>
      <point x="265" y="780" type="curve"/>
      <point x="239" y="800"/>
      <point x="226" y="809"/>
      <point x="197" y="809" type="curve"/>
      <point x="129" y="809"/>
      <point x="93" y="740"/>
      <point x="72" y="676" type="curve"/>
      <point x="176" y="616"/>
      <point x="72" y="677"/>
      <point x="176" y="616" type="curve"/>
      <point x="195" y="656"/>
      <point x="211" y="663"/>
      <point x="230" y="663" type="curve"/>
      <point x="250" y="663"/>
      <point x="260" y="657"/>
      <point x="274" y="645" type="curve"/>
      <point x="304" y="621"/>
      <point x="320" y="609"/>
      <point x="355" y="609" type="curve"/>
      <point x="423" y="609"/>
      <point x="449" y="674"/>
      <point x="476" y="744" type="curve"/>
      <point x="365" y="802"/>
      <point x="476" y="743"/>
    </contour>
  </outline>
</glyph>
<glyph name="divide" format="1">
  <advance width="616"/>
  <unicode hex="00F7"/>
  <outline>
    <contour>
      <point x="47" y="252" type="line"/>
      <point x="567" y="252" type="line"/>
      <point x="567" y="371" type="line"/>
      <point x="47" y="371" type="line"/>
    </contour>
    <contour>
      <point x="376" y="459" type="curve"/>
      <point x="376" y="506"/>
      <point x="346" y="530"/>
      <point x="303" y="530" type="curve"/>
      <point x="259" y="530"/>
      <point x="231" y="504"/>
      <point x="231" y="459" type="curve"/>
      <point x="376" y="459"/>
      <point x="231" y="459"/>
      <point x="376" y="459" type="curve"/>
      <point x="376" y="410"/>
      <point x="347" y="389"/>
      <point x="303" y="389" type="curve"/>
      <point x="259" y="389"/>
      <point x="231" y="412"/>
      <point x="231" y="459" type="curve"/>
      <point x="376" y="459"/>
      <point x="231" y="459"/>
    </contour>
    <contour>
      <point x="376" y="162" type="curve"/>
      <point x="376" y="209"/>
      <point x="346" y="233"/>
      <point x="303" y="233" type="curve"/>
      <point x="259" y="233"/>
      <point x="231" y="207"/>
      <point x="231" y="162" type="curve"/>
      <point x="376" y="162"/>
      <point x="231" y="162"/>
      <point x="376" y="162" type="curve"/>
      <point x="376" y="113"/>
      <point x="347" y="92"/>
      <point x="303" y="92" type="curve"/>
      <point x="259" y="92"/>
      <point x="231" y="115"/>
      <point x="231" y="162" type="curve"/>
      <point x="376" y="162"/>
      <point x="231" y="162"/>
    </contour>
  </outline>
</glyph>
<glyph name="dcroat" format="1">
  <advance width="564"/>
  <unicode hex="0111"/>
  <outline>
    <contour>
      <point x="426" y="800" type="curve"/>
      <point x="380" y="800"/>
      <point x="336" y="800"/>
      <point x="290" y="800" type="curve"/>
      <point x="290" y="692"/>
      <point x="290" y="800"/>
      <point x="290" y="692" type="curve"/>
      <point x="427" y="692"/>
      <point x="290" y="692"/>
      <point x="427" y="692" type="curve"/>
      <point x="427" y="800"/>
      <point x="426" y="692"/>
    </contour>
    <contour>
      <point x="428" y="0" type="curve"/>
      <point x="474" y="0"/>
      <point x="518" y="0"/>
      <point x="564" y="0" type="curve"/>
      <point x="564" y="108"/>
      <point x="564" y="0"/>
      <point x="564" y="108" type="curve"/>
      <point x="427" y="108"/>
      <point x="565" y="108"/>
      <point x="428" y="108" type="curve"/>
      <point x="428" y="-1"/>
      <point x="428" y="109"/>
    </contour>
    <contour>
      <point x="431" y="451" type="curve"/>
      <point x="385" y="507"/>
      <point x="328" y="533"/>
      <point x="254" y="533" type="curve"/>
      <point x="107" y="533"/>
      <point x="38" y="413"/>
      <point x="38" y="262" type="curve"/>
      <point x="38" y="114"/>
      <point x="111" y="0"/>
      <point x="250" y="0" type="curve"/>
      <point x="334" y="0"/>
      <point x="393" y="38"/>
      <point x="431" y="112" type="curve"/>
      <point x="383" y="188"/>
      <point x="431" y="112"/>
      <point x="383" y="188" type="curve"/>
      <point x="359" y="143"/>
      <point x="329" y="108"/>
      <point x="278" y="108" type="curve"/>
      <point x="202" y="108"/>
      <point x="179" y="182"/>
      <point x="179" y="268" type="curve"/>
      <point x="179" y="353"/>
      <point x="207" y="425"/>
      <point x="283" y="425" type="curve"/>
      <point x="326" y="425"/>
      <point x="358" y="403"/>
      <point x="383" y="369" type="curve"/>
      <point x="431" y="451"/>
      <point x="383" y="369"/>
    </contour>
    <contour>
      <point x="501" y="0" type="curve"/>
      <point x="501" y="267"/>
      <point x="501" y="533"/>
      <point x="501" y="800" type="curve"/>
      <point x="354" y="800"/>
      <point x="501" y="800"/>
      <point x="354" y="800" type="curve"/>
      <point x="354" y="533"/>
      <point x="354" y="267"/>
      <point x="354" y="0" type="curve"/>
      <point x="501" y="0"/>
      <point x="354" y="0"/>
    </contour>
    <contour>
      <point x="256" y="573" type="curve"/>
      <point x="351" y="573"/>
      <point x="446" y="573"/>
      <point x="541" y="573" type="curve"/>
      <point x="541" y="660"/>
      <point x="541" y="573"/>
      <point x="541" y="660" type="curve"/>
      <point x="446" y="660"/>
      <point x="351" y="660"/>
      <point x="256" y="660" type="curve"/>
      <point x="256" y="573"/>
      <point x="256" y="660"/>
    </contour>
  </outline>
</glyph>
<glyph name="eogonek" format="1">
  <advance width="497"/>
  <unicode hex="0119"/>
  <outline>
    <contour>
      <point x="109" y="227" type="curve"/>
      <point x="207" y="227"/>
      <point x="305" y="227"/>
      <point x="403" y="227" type="curve"/>
      <point x="463" y="227"/>
      <point x="403" y="227"/>
      <point x="463" y="227" type="curve"/>
      <point x="463" y="274"/>
      <point x="463" y="227"/>
      <point x="463" y="274" type="curve"/>
      <point x="463" y="280"/>
      <point x="463" y="286"/>
      <point x="463" y="292" type="curve"/>
      <point x="463" y="442"/>
      <point x="397" y="538"/>
      <point x="259" y="538" type="curve"/>
      <point x="112" y="538"/>
      <point x="39" y="438"/>
      <point x="39" y="278" type="curve"/>
      <point x="39" y="106"/>
      <point x="117" y="-5"/>
      <point x="275" y="-5" type="curve"/>
      <point x="345" y="-5"/>
      <point x="389" y="22"/>
      <point x="441" y="73" type="curve"/>
      <point x="357" y="150"/>
      <point x="441" y="73"/>
      <point x="357" y="150" type="curve"/>
      <point x="333" y="123"/>
      <point x="310" y="109"/>
      <point x="275" y="109" type="curve"/>
      <point x="191" y="109"/>
      <point x="177" y="183"/>
      <point x="177" y="278" type="curve"/>
      <point x="177" y="359"/>
      <point x="183" y="425"/>
      <point x="253" y="425" type="curve"/>
      <point x="313" y="425"/>
      <point x="329" y="373"/>
      <point x="329" y="303" type="curve"/>
      <point x="329" y="293"/>
      <point x="329" y="284"/>
      <point x="329" y="274" type="curve"/>
      <point x="341" y="286"/>
      <point x="353" y="296"/>
      <point x="365" y="308" type="curve"/>
      <point x="375" y="318"/>
      <point x="392" y="317"/>
      <point x="403" y="329" type="curve"/>
      <point x="305" y="329"/>
      <point x="207" y="329"/>
      <point x="109" y="329" type="curve"/>
      <point x="109" y="221"/>
      <point x="109" y="335"/>
    </contour>
    <contour>
      <point x="300" y="88" type="curve"/>
      <point x="238" y="54"/>
      <point x="183" y="26"/>
      <point x="183" y="-43" type="curve"/>
      <point x="183" y="-119"/>
      <point x="227" y="-171"/>
      <point x="302" y="-171" type="curve"/>
      <point x="339" y="-171"/>
      <point x="364" y="-160"/>
      <point x="394" y="-138" type="curve"/>
      <point x="330" y="-51"/>
      <point x="393" y="-137"/>
      <point x="330" y="-51" type="curve"/>
      <point x="323" y="-55"/>
      <point x="316" y="-62"/>
      <point x="309" y="-62" type="curve"/>
      <point x="300" y="-62"/>
      <point x="293" y="-54"/>
      <point x="293" y="-43" type="curve"/>
      <point x="293" y="-15"/>
      <point x="326" y="-4"/>
      <point x="351" y="13" type="curve"/>
      <point x="300" y="88"/>
      <point x="351" y="13"/>
    </contour>
  </outline>
</glyph>
<glyph name="imacron" format="1">
  <advance width="331"/>
  <unicode hex="012B"/>
  <outline>
    <contour>
      <point x="171" y="108" type="curve"/>
      <point x="35" y="108"/>
      <point x="172" y="108"/>
      <point x="35" y="108" type="curve"/>
      <point x="34" y="0"/>
      <point x="35" y="108"/>
      <point x="34" y="0" type="curve"/>
      <point x="80" y="0"/>
      <point x="126" y="0"/>
      <point x="171" y="0" type="curve"/>
      <point x="171" y="108"/>
      <point x="171" y="0"/>
    </contour>
    <contour>
      <point x="171" y="0" type="curve"/>
      <point x="214" y="0"/>
      <point x="257" y="0"/>
      <point x="301" y="0" type="curve"/>
      <point x="301" y="108"/>
      <point x="301" y="0"/>
      <point x="301" y="108" type="curve"/>
      <point x="171" y="108"/>
      <point x="301" y="108"/>
      <point x="171" y="108" type="curve"/>
      <point x="171" y="0"/>
      <point x="171" y="108"/>
    </contour>
    <contour>
      <point x="171" y="533" type="curve"/>
      <point x="126" y="533"/>
      <point x="80" y="533"/>
      <point x="35" y="533" type="curve"/>
      <point x="34" y="425"/>
      <point x="35" y="533"/>
      <point x="34" y="425" type="curve"/>
      <point x="172" y="425"/>
      <point x="34" y="425"/>
      <point x="171" y="425" type="curve"/>
      <point x="171" y="533"/>
      <point x="171" y="425"/>
    </contour>
    <contour>
      <point x="245" y="0" type="curve"/>
      <point x="245" y="178"/>
      <point x="245" y="355"/>
      <point x="245" y="533" type="curve"/>
      <point x="98" y="533"/>
      <point x="245" y="533"/>
      <point x="98" y="533" type="curve"/>
      <point x="98" y="355"/>
      <point x="98" y="178"/>
      <point x="98" y="0" type="curve"/>
      <point x="245" y="0"/>
      <point x="98" y="0"/>
    </contour>
    <contour>
      <point x="258" y="719" type="curve"/>
      <point x="202" y="719"/>
      <point x="145" y="719"/>
      <point x="89" y="719" type="curve"/>
      <point x="89" y="611"/>
      <point x="89" y="719"/>
      <point x="89" y="611" type="curve"/>
      <point x="145" y="611"/>
      <point x="202" y="611"/>
      <point x="258" y="611" type="curve"/>
      <point x="258" y="719"/>
      <point x="258" y="611"/>
    </contour>
  </outline>
</glyph>
<glyph name="Idotaccent" format="1">
  <advance width="351"/>
  <unicode hex="0130"/>
  <outline>
    <contour>
      <point x="177" y="722" type="curve"/>
      <point x="131" y="722"/>
      <point x="85" y="722"/>
      <point x="39" y="722" type="curve"/>
      <point x="39" y="614"/>
      <point x="39" y="722"/>
      <point x="39" y="614" type="curve"/>
      <point x="177" y="614"/>
      <point x="39" y="614"/>
      <point x="177" y="614" type="curve"/>
      <point x="177" y="722"/>
      <point x="177" y="614"/>
    </contour>
    <contour>
      <point x="177" y="614" type="curve"/>
      <point x="313" y="614"/>
      <point x="176" y="614"/>
      <point x="313" y="614" type="curve"/>
      <point x="313" y="722"/>
      <point x="313" y="614"/>
      <point x="313" y="722" type="curve"/>
      <point x="267" y="722"/>
      <point x="221" y="722"/>
      <point x="177" y="722" type="curve"/>
      <point x="177" y="614"/>
      <point x="177" y="722"/>
    </contour>
    <contour>
      <point x="177" y="0" type="curve"/>
      <point x="221" y="0"/>
      <point x="267" y="0"/>
      <point x="313" y="0" type="curve"/>
      <point x="313" y="108"/>
      <point x="313" y="0"/>
      <point x="313" y="108" type="curve"/>
      <point x="176" y="108"/>
      <point x="313" y="108"/>
      <point x="177" y="108" type="curve"/>
      <point x="177" y="0"/>
      <point x="177" y="108"/>
    </contour>
    <contour>
      <point x="177" y="108" type="curve"/>
      <point x="39" y="108"/>
      <point x="177" y="108"/>
      <point x="39" y="108" type="curve"/>
      <point x="39" y="0"/>
      <point x="39" y="108"/>
      <point x="39" y="0" type="curve"/>
      <point x="85" y="0"/>
      <point x="131" y="0"/>
      <point x="177" y="0" type="curve"/>
      <point x="177" y="108"/>
      <point x="177" y="0"/>
    </contour>
    <contour>
      <point x="245" y="0" type="curve"/>
      <point x="245" y="241"/>
      <point x="245" y="481"/>
      <point x="245" y="722" type="curve"/>
      <point x="105" y="722"/>
      <point x="245" y="722"/>
      <point x="105" y="722" type="curve"/>
      <point x="105" y="481"/>
      <point x="105" y="241"/>
      <point x="105" y="0" type="curve"/>
      <point x="245" y="0"/>
      <point x="105" y="0"/>
    </contour>
    <contour>
      <point x="252" y="842" type="curve"/>
      <point x="252" y="889"/>
      <point x="221" y="913"/>
      <point x="178" y="913" type="curve"/>
      <point x="135" y="913"/>
      <point x="107" y="887"/>
      <point x="107" y="842" type="curve"/>
      <point x="252" y="842"/>
      <point x="107" y="842"/>
      <point x="252" y="842" type="curve"/>
      <point x="252" y="794"/>
      <point x="222" y="772"/>
      <point x="178" y="772" type="curve"/>
      <point x="134" y="772"/>
      <point x="107" y="796"/>
      <point x="107" y="842" type="curve"/>
      <point x="252" y="842"/>
      <point x="107" y="842"/>
    </contour>
  </outline>
</glyph>
<glyph name="Kcommaaccent" format="1">
  <advance width="647"/>
  <unicode hex="0136"/>
  <outline>
    <contour>
      <point x="486" y="722" type="curve"/>
      <point x="439" y="722"/>
      <point x="387" y="722"/>
      <point x="342" y="722" type="curve"/>
      <point x="342" y="614"/>
      <point x="342" y="722"/>
      <point x="342" y="614" type="curve"/>
      <point x="480" y="614"/>
      <point x="348" y="614"/>
      <point x="486" y="614" type="curve"/>
      <point x="486" y="722"/>
      <point x="486" y="614"/>
    </contour>
    <contour>
      <point x="483" y="0" type="curve"/>
      <point x="548" y="0"/>
      <point x="556" y="0"/>
      <point x="621" y="0" type="curve"/>
      <point x="621" y="108"/>
      <point x="621" y="0"/>
      <point x="621" y="108" type="curve"/>
      <point x="426" y="108"/>
      <point x="678" y="108"/>
      <point x="483" y="108" type="curve"/>
      <point x="483" y="0"/>
      <point x="483" y="108"/>
    </contour>
    <contour>
      <point x="457" y="614" type="curve"/>
      <point x="594" y="614"/>
      <point x="456" y="614"/>
      <point x="593" y="614" type="curve"/>
      <point x="593" y="722"/>
      <point x="593" y="614"/>
      <point x="593" y="722" type="curve"/>
      <point x="548" y="722"/>
      <point x="503" y="722"/>
      <point x="457" y="722" type="curve"/>
      <point x="457" y="614"/>
      <point x="457" y="722"/>
    </contour>
    <contour>
      <point x="171" y="722" type="curve"/>
      <point x="127" y="722"/>
      <point x="82" y="722"/>
      <point x="38" y="722" type="curve"/>
      <point x="38" y="614"/>
      <point x="38" y="722"/>
      <point x="38" y="614" type="curve"/>
      <point x="171" y="614"/>
      <point x="38" y="614"/>
      <point x="171" y="614" type="curve"/>
      <point x="171" y="722"/>
      <point x="171" y="614"/>
    </contour>
    <contour>
      <point x="171" y="614" type="curve"/>
      <point x="309" y="614"/>
      <point x="135" y="614"/>
      <point x="273" y="614" type="curve"/>
      <point x="273" y="722"/>
      <point x="273" y="614"/>
      <point x="273" y="722" type="curve"/>
      <point x="227" y="722"/>
      <point x="217" y="722"/>
      <point x="171" y="722" type="curve"/>
      <point x="171" y="614"/>
      <point x="171" y="722"/>
    </contour>
    <contour>
      <point x="171" y="0" type="curve"/>
      <point x="221" y="0"/>
      <point x="134" y="0"/>
      <point x="285" y="0" type="curve"/>
      <point x="285" y="108"/>
      <point x="285" y="0"/>
      <point x="285" y="108" type="curve"/>
      <point x="134" y="108"/>
      <point x="321" y="108"/>
      <point x="171" y="108" type="curve"/>
      <point x="171" y="0"/>
      <point x="171" y="108"/>
    </contour>
    <contour>
      <point x="171" y="108" type="curve"/>
      <point x="38" y="108"/>
      <point x="171" y="108"/>
      <point x="38" y="108" type="curve"/>
      <point x="38" y="0"/>
      <point x="38" y="108"/>
      <point x="38" y="0" type="curve"/>
      <point x="82" y="0"/>
      <point x="127" y="0"/>
      <point x="171" y="0" type="curve"/>
      <point x="171" y="108"/>
      <point x="171" y="0"/>
    </contour>
    <contour>
      <point x="462" y="722" type="curve"/>
      <point x="228" y="380" type="line"/>
      <point x="378" y="380"/>
      <point x="228" y="380"/>
      <point x="378" y="380" type="curve"/>
      <point x="559" y="659" type="line"/>
      <point x="462" y="659"/>
      <point x="560" y="722"/>
    </contour>
    <contour>
      <point x="241" y="0" type="curve"/>
      <point x="241" y="722" type="line"/>
      <point x="101" y="722"/>
      <point x="241" y="722"/>
      <point x="101" y="722" type="curve"/>
      <point x="101" y="481"/>
      <point x="101" y="241"/>
      <point x="101" y="0" type="curve"/>
      <point x="241" y="0"/>
      <point x="101" y="0"/>
    </contour>
    <contour>
      <point x="591" y="51" type="curve"/>
      <point x="378" y="380" type="line"/>
      <point x="228" y="380"/>
      <point x="378" y="380"/>
      <point x="228" y="380" type="curve"/>
      <point x="479" y="0" type="line"/>
      <point x="591" y="0"/>
      <point x="479" y="51"/>
    </contour>
    <contour>
      <point x="217" y="-388" type="line"/>
      <point x="313" y="-388"/>
      <point x="376" y="-319"/>
      <point x="376" y="-213" type="curve"/>
      <point x="376" y="-125"/>
      <point x="342" y="-80"/>
      <point x="296" y="-80" type="curve"/>
      <point x="253" y="-80"/>
      <point x="224" y="-105"/>
      <point x="224" y="-151" type="curve"/>
      <point x="224" y="-188"/>
      <point x="245" y="-218"/>
      <point x="283" y="-218" type="curve"/>
      <point x="283" y="-245"/>
      <point x="281" y="-299"/>
      <point x="217" y="-312" type="curve"/>
    </contour>
  </outline>
</glyph>
<glyph name="kcommaaccent" format="1">
  <advance width="528"/>
  <unicode hex="0137"/>
  <outline>
    <contour>
      <point x="143" y="108" type="curve"/>
      <point x="6" y="108"/>
      <point x="143" y="108"/>
      <point x="6" y="108" type="curve"/>
      <point x="6" y="0"/>
      <point x="6" y="108"/>
      <point x="6" y="0" type="curve"/>
      <point x="52" y="0"/>
      <point x="97" y="-1"/>
      <point x="143" y="-1" type="curve"/>
      <point x="143" y="108"/>
      <point x="143" y="-1"/>
    </contour>
    <contour>
      <point x="386" y="0" type="curve"/>
      <point x="429" y="0"/>
      <point x="473" y="0"/>
      <point x="515" y="0" type="curve"/>
      <point x="515" y="108"/>
      <point x="515" y="0"/>
      <point x="515" y="108" type="curve"/>
      <point x="389" y="108"/>
      <point x="516" y="108"/>
      <point x="389" y="108" type="curve"/>
      <point x="389" y="0"/>
      <point x="386" y="108"/>
    </contour>
    <contour>
      <point x="399" y="425" type="curve"/>
      <point x="496" y="425"/>
      <point x="399" y="425"/>
      <point x="496" y="425" type="curve"/>
      <point x="496" y="533"/>
      <point x="496" y="425"/>
      <point x="496" y="533" type="curve"/>
      <point x="464" y="533"/>
      <point x="431" y="533"/>
      <point x="399" y="533" type="curve"/>
      <point x="399" y="425"/>
      <point x="399" y="533"/>
    </contour>
    <contour>
      <point x="143" y="-1" type="curve"/>
      <point x="182" y="-1"/>
      <point x="142" y="-1"/>
      <point x="260" y="0" type="curve"/>
      <point x="260" y="108"/>
      <point x="260" y="0"/>
      <point x="260" y="108" type="curve"/>
      <point x="142" y="108"/>
      <point x="260" y="108"/>
      <point x="143" y="108" type="curve"/>
      <point x="143" y="-1"/>
      <point x="143" y="108"/>
    </contour>
    <contour>
      <point x="429" y="533" type="curve"/>
      <point x="369" y="533"/>
      <point x="309" y="533"/>
      <point x="248" y="533" type="curve"/>
      <point x="248" y="425"/>
      <point x="248" y="533"/>
      <point x="248" y="425" type="curve"/>
      <point x="429" y="425"/>
      <point x="248" y="425"/>
      <point x="429" y="425" type="curve"/>
      <point x="429" y="533"/>
      <point x="429" y="425"/>
    </contour>
    <contour>
      <point x="145" y="799" type="curve"/>
      <point x="99" y="799"/>
      <point x="53" y="800"/>
      <point x="7" y="800" type="curve"/>
      <point x="7" y="692"/>
      <point x="7" y="800"/>
      <point x="7" y="692" type="curve"/>
      <point x="145" y="691"/>
      <point x="7" y="692"/>
      <point x="145" y="691" type="curve"/>
      <point x="145" y="799"/>
      <point x="145" y="691"/>
    </contour>
    <contour>
      <point x="213" y="0" type="curve"/>
      <point x="213" y="800" type="line"/>
      <point x="73" y="800"/>
      <point x="213" y="800"/>
      <point x="73" y="800" type="curve"/>
      <point x="73" y="533"/>
      <point x="73" y="267"/>
      <point x="73" y="0" type="curve"/>
      <point x="213" y="0"/>
      <point x="73" y="0"/>
    </contour>
    <contour>
      <point x="365" y="533" type="curve"/>
      <point x="191" y="275" type="line"/>
      <point x="325" y="275"/>
      <point x="191" y="275"/>
      <point x="324" y="275" type="curve"/>
      <point x="477" y="481" type="line"/>
      <point x="365" y="481"/>
      <point x="477" y="533"/>
    </contour>
    <contour>
      <point x="486" y="69" type="curve"/>
      <point x="324" y="275" type="line"/>
      <point x="191" y="275"/>
      <point x="325" y="275"/>
      <point x="191" y="275" type="curve"/>
      <point x="385" y="0" type="line"/>
      <point x="487" y="0"/>
      <point x="385" y="69"/>
    </contour>
    <contour>
      <point x="213" y="-388" type="line"/>
      <point x="309" y="-388"/>
      <point x="372" y="-319"/>
      <point x="372" y="-213" type="curve"/>
      <point x="372" y="-125"/>
      <point x="339" y="-80"/>
      <point x="292" y="-80" type="curve"/>
      <point x="250" y="-80"/>
      <point x="220" y="-105"/>
      <point x="220" y="-151" type="curve"/>
      <point x="220" y="-188"/>
      <point x="242" y="-218"/>
      <point x="279" y="-218" type="curve"/>
      <point x="279" y="-245"/>
      <point x="277" y="-299"/>
      <point x="213" y="-312" type="curve"/>
    </contour>
  </outline>
</glyph>
<glyph name="Lcommaaccent" format="1">
  <advance width="508"/>
  <unicode hex="013B"/>
  <outline>
    <contour>
      <point x="491" y="54" type="curve"/>
      <point x="491" y="174"/>
      <point x="491" y="54"/>
      <point x="491" y="174" type="curve"/>
      <point x="381" y="174"/>
      <point x="491" y="174"/>
      <point x="381" y="174" type="curve"/>
      <point x="381" y="54"/>
      <point x="381" y="174"/>
      <point x="381" y="54" type="curve"/>
      <point x="491" y="54"/>
      <point x="381" y="54"/>
    </contour>
    <contour>
      <point x="176" y="108" type="curve"/>
      <point x="39" y="108"/>
      <point x="176" y="108"/>
      <point x="39" y="108" type="curve"/>
      <point x="38" y="0"/>
      <point x="39" y="108"/>
      <point x="38" y="0" type="curve"/>
      <point x="84" y="0"/>
      <point x="130" y="0"/>
      <point x="176" y="0" type="curve"/>
      <point x="176" y="108"/>
      <point x="176" y="0"/>
    </contour>
    <contour>
      <point x="176" y="722" type="curve"/>
      <point x="130" y="722"/>
      <point x="84" y="722"/>
      <point x="39" y="722" type="curve"/>
      <point x="38" y="614"/>
      <point x="39" y="722"/>
      <point x="38" y="614" type="curve"/>
      <point x="176" y="614"/>
      <point x="38" y="614"/>
      <point x="176" y="614" type="curve"/>
      <point x="176" y="722"/>
      <point x="176" y="614"/>
    </contour>
    <contour>
      <point x="176" y="614" type="curve"/>
      <point x="312" y="614"/>
      <point x="175" y="614"/>
      <point x="312" y="614" type="curve"/>
      <point x="312" y="722"/>
      <point x="312" y="614"/>
      <point x="312" y="722" type="curve"/>
      <point x="266" y="722"/>
      <point x="220" y="722"/>
      <point x="176" y="722" type="curve"/>
      <point x="176" y="614"/>
      <point x="176" y="722"/>
    </contour>
    <contour>
      <point x="246" y="0" type="curve"/>
      <point x="246" y="241"/>
      <point x="246" y="481"/>
      <point x="246" y="722" type="curve"/>
      <point x="106" y="722"/>
      <point x="246" y="722"/>
      <point x="106" y="722" type="curve"/>
      <point x="106" y="481"/>
      <point x="106" y="241"/>
      <point x="106" y="0" type="curve"/>
      <point x="246" y="0"/>
      <point x="106" y="0"/>
    </contour>
    <contour>
      <point x="176" y="0" type="curve"/>
      <point x="280" y="0"/>
      <point x="386" y="0"/>
      <point x="491" y="0" type="curve"/>
      <point x="491" y="108"/>
      <point x="491" y="0"/>
      <point x="491" y="108" type="curve"/>
      <point x="386" y="108"/>
      <point x="280" y="108"/>
      <point x="176" y="108" type="curve"/>
      <point x="176" y="0"/>
      <point x="176" y="108"/>
    </contour>
    <contour>
      <point x="186" y="-384" type="line"/>
      <point x="282" y="-384"/>
      <point x="345" y="-315"/>
      <point x="345" y="-209" type="curve"/>
      <point x="345" y="-121"/>
      <point x="312" y="-76"/>
      <point x="265" y="-76" type="curve"/>
      <point x="222" y="-76"/>
      <point x="193" y="-101"/>
      <point x="193" y="-147" type="curve"/>
      <point x="193" y="-184"/>
      <point x="214" y="-214"/>
      <point x="252" y="-214" type="curve"/>
      <point x="252" y="-241"/>
      <point x="250" y="-295"/>
      <point x="186" y="-308" type="curve"/>
    </contour>
  </outline>
</glyph>
<glyph name="lcommaaccent" format="1">
  <advance width="311"/>
  <unicode hex="013C"/>
  <outline>
    <contour>
      <point x="155" y="108" type="curve"/>
      <point x="19" y="108"/>
      <point x="155" y="108"/>
      <point x="19" y="108" type="curve"/>
      <point x="19" y="0"/>
      <point x="19" y="108"/>
      <point x="19" y="0" type="curve"/>
      <point x="65" y="0"/>
      <point x="110" y="0"/>
      <point x="155" y="0" type="curve"/>
      <point x="155" y="109"/>
      <point x="155" y="-1"/>
    </contour>
    <contour>
      <point x="157" y="800" type="curve"/>
      <point x="112" y="800"/>
      <point x="66" y="800"/>
      <point x="21" y="800" type="curve"/>
      <point x="20" y="692"/>
      <point x="21" y="800"/>
      <point x="20" y="692" type="curve"/>
      <point x="157" y="691"/>
      <point x="20" y="692"/>
      <point x="157" y="691" type="curve"/>
      <point x="157" y="799"/>
      <point x="157" y="692"/>
    </contour>
    <contour>
      <point x="155" y="0" type="curve"/>
      <point x="201" y="0"/>
      <point x="247" y="0"/>
      <point x="293" y="0" type="curve"/>
      <point x="293" y="108"/>
      <point x="293" y="0"/>
      <point x="293" y="108" type="curve"/>
      <point x="155" y="108"/>
      <point x="293" y="108"/>
      <point x="155" y="108" type="curve"/>
      <point x="155" y="-1"/>
      <point x="155" y="109"/>
    </contour>
    <contour>
      <point x="225" y="0" type="curve"/>
      <point x="225" y="267"/>
      <point x="225" y="533"/>
      <point x="225" y="800" type="curve"/>
      <point x="85" y="800"/>
      <point x="225" y="800"/>
      <point x="85" y="800" type="curve"/>
      <point x="85" y="533"/>
      <point x="85" y="267"/>
      <point x="85" y="0" type="curve"/>
      <point x="225" y="0"/>
      <point x="85" y="0"/>
    </contour>
    <contour>
      <point x="78" y="-386" type="line"/>
      <point x="174" y="-386"/>
      <point x="237" y="-317"/>
      <point x="237" y="-211" type="curve"/>
      <point x="237" y="-123"/>
      <point x="204" y="-78"/>
      <point x="157" y="-78" type="curve"/>
      <point x="115" y="-78"/>
      <point x="85" y="-103"/>
      <point x="85" y="-149" type="curve"/>
      <point x="85" y="-186"/>
      <point x="106" y="-216"/>
      <point x="144" y="-216" type="curve"/>
      <point x="144" y="-243"/>
      <point x="142" y="-297"/>
      <point x="78" y="-310" type="curve"/>
    </contour>
  </outline>
</glyph>
<glyph name="lcaron" format="1">
  <advance width="351"/>
  <unicode hex="013E"/>
  <outline>
    <contour>
      <point x="155" y="108" type="curve"/>
      <point x="19" y="108"/>
      <point x="155" y="108"/>
      <point x="19" y="108" type="curve"/>
      <point x="19" y="0"/>
      <point x="19" y="108"/>
      <point x="19" y="0" type="curve"/>
      <point x="65" y="0"/>
      <point x="110" y="0"/>
      <point x="155" y="0" type="curve"/>
      <point x="155" y="109"/>
      <point x="155" y="-1"/>
    </contour>
    <contour>
      <point x="157" y="800" type="curve"/>
      <point x="112" y="800"/>
      <point x="66" y="800"/>
      <point x="21" y="800" type="curve"/>
      <point x="20" y="692"/>
      <point x="21" y="800"/>
      <point x="20" y="692" type="curve"/>
      <point x="157" y="691"/>
      <point x="20" y="692"/>
      <point x="157" y="691" type="curve"/>
      <point x="157" y="799"/>
      <point x="157" y="692"/>
    </contour>
    <contour>
      <point x="155" y="0" type="curve"/>
      <point x="201" y="0"/>
      <point x="247" y="0"/>
      <point x="293" y="0" type="curve"/>
      <point x="293" y="108"/>
      <point x="293" y="0"/>
      <point x="293" y="108" type="curve"/>
      <point x="155" y="108"/>
      <point x="293" y="108"/>
      <point x="155" y="108" type="curve"/>
      <point x="155" y="-1"/>
      <point x="155" y="109"/>
    </contour>
    <contour>
      <point x="225" y="0" type="curve"/>
      <point x="225" y="267"/>
      <point x="225" y="533"/>
      <point x="225" y="800" type="curve"/>
      <point x="85" y="800"/>
      <point x="225" y="800"/>
      <point x="85" y="800" type="curve"/>
      <point x="85" y="533"/>
      <point x="85" y="267"/>
      <point x="85" y="0" type="curve"/>
      <point x="225" y="0"/>
      <point x="85" y="0"/>
    </contour>
    <contour>
      <point x="374" y="562" type="line"/>
      <point x="469" y="563"/>
      <point x="532" y="632"/>
      <point x="532" y="738" type="curve"/>
      <point x="532" y="825"/>
      <point x="499" y="871"/>
      <point x="453" y="871" type="curve"/>
      <point x="410" y="871"/>
      <point x="381" y="846"/>
      <point x="381" y="800" type="curve"/>
      <point x="381" y="762"/>
      <point x="401" y="733"/>
      <point x="440" y="733" type="curve"/>
      <point x="440" y="706"/>
      <point x="438" y="651"/>
      <point x="373" y="639" type="curve"/>
    </contour>
  </outline>
</glyph>
<glyph name="nacute" format="1">
  <advance width="582"/>
  <unicode hex="0144"/>
  <outline>
    <contour>
      <point x="205" y="265" type="curve"/>
      <point x="219" y="345"/>
      <point x="250" y="425"/>
      <point x="307" y="425" type="curve"/>
      <point x="363" y="425"/>
      <point x="370" y="373"/>
      <point x="370" y="309" type="curve"/>
      <point x="370" y="205"/>
      <point x="370" y="103"/>
      <point x="370" y="0" type="curve"/>
      <point x="511" y="0"/>
      <point x="370" y="0"/>
      <point x="511" y="0" type="curve"/>
      <point x="511" y="106"/>
      <point x="511" y="213"/>
      <point x="511" y="320" type="curve"/>
      <point x="511" y="446"/>
      <point x="480" y="538"/>
      <point x="359" y="538" type="curve"/>
      <point x="264" y="538"/>
      <point x="191" y="460"/>
      <point x="165" y="327" type="curve"/>
      <point x="206" y="266"/>
      <point x="164" y="326"/>
    </contour>
    <contour>
      <point x="440" y="0" type="curve"/>
      <point x="485" y="0"/>
      <point x="531" y="0"/>
      <point x="577" y="0" type="curve"/>
      <point x="577" y="108"/>
      <point x="577" y="0"/>
      <point x="577" y="108" type="curve"/>
      <point x="440" y="108"/>
      <point x="577" y="108"/>
      <point x="440" y="108" type="curve"/>
      <point x="440" y="0"/>
      <point x="440" y="108"/>
    </contour>
    <contour>
      <point x="163" y="108" type="curve"/>
      <point x="25" y="108"/>
      <point x="163" y="108"/>
      <point x="25" y="108" type="curve"/>
      <point x="25" y="0"/>
      <point x="25" y="108"/>
      <point x="25" y="0" type="curve"/>
      <point x="71" y="0"/>
      <point x="117" y="0"/>
      <point x="163" y="0" type="curve"/>
      <point x="163" y="108"/>
      <point x="163" y="0"/>
    </contour>
    <contour>
      <point x="163" y="0" type="curve"/>
      <point x="205" y="0"/>
      <point x="162" y="0"/>
      <point x="291" y="0" type="curve"/>
      <point x="291" y="108"/>
      <point x="291" y="0"/>
      <point x="291" y="108" type="curve"/>
      <point x="162" y="108"/>
      <point x="291" y="108"/>
      <point x="163" y="108" type="curve"/>
      <point x="163" y="0"/>
      <point x="163" y="108"/>
    </contour>
    <contour>
      <point x="232" y="0" type="curve"/>
      <point x="232" y="178"/>
      <point x="232" y="355"/>
      <point x="232" y="533" type="curve"/>
      <point x="92" y="533"/>
      <point x="232" y="533"/>
      <point x="92" y="533" type="curve"/>
      <point x="92" y="355"/>
      <point x="92" y="178"/>
      <point x="92" y="0" type="curve"/>
      <point x="232" y="0"/>
      <point x="92" y="0"/>
    </contour>
    <contour>
      <point x="163" y="533" type="curve"/>
      <point x="117" y="533"/>
      <point x="71" y="533"/>
      <point x="25" y="533" type="curve"/>
      <point x="25" y="425"/>
      <point x="25" y="533"/>
      <point x="25" y="425" type="curve"/>
      <point x="163" y="425"/>
      <point x="25" y="425"/>
      <point x="163" y="425" type="curve"/>
      <point x="163" y="533"/>
      <point x="163" y="425"/>
    </contour>
    <contour>
      <point x="361" y="610" type="line"/>
      <point x="484" y="776" type="line"/>
      <point x="312" y="776" type="line"/>
      <point x="228" y="610" type="line"/>
    </contour>
  </outline>
</glyph>
<glyph name="omacron" format="1">
  <advance width="538"/>
  <unicode hex="014D"/>
  <outline>
    <contour>
      <point x="168" y="265" type="curve"/>
      <point x="168" y="346"/>
      <point x="187" y="425"/>
      <point x="263" y="425" type="curve"/>
      <point x="340" y="425"/>
      <point x="360" y="348"/>
      <point x="360" y="265" type="curve"/>
      <point x="360" y="179"/>
      <point x="344" y="108"/>
      <point x="272" y="108" type="curve"/>
      <point x="186" y="109"/>
      <point x="168" y="178"/>
      <point x="168" y="265" type="curve"/>
      <point x="168" y="265"/>
      <point x="38" y="265"/>
      <point x="38" y="265" type="curve"/>
      <point x="38" y="105"/>
      <point x="115" y="-5"/>
      <point x="266" y="-5" type="curve"/>
      <point x="420" y="-5"/>
      <point x="501" y="103"/>
      <point x="501" y="265" type="curve"/>
      <point x="501" y="427"/>
      <point x="423" y="538"/>
      <point x="270" y="538" type="curve"/>
      <point x="116" y="538"/>
      <point x="38" y="427"/>
      <point x="38" y="265" type="curve"/>
      <point x="38" y="265"/>
      <point x="168" y="265"/>
    </contour>
    <contour>
      <point x="352" y="719" type="curve"/>
      <point x="296" y="719"/>
      <point x="239" y="719"/>
      <point x="183" y="719" type="curve"/>
      <point x="183" y="611"/>
      <point x="183" y="719"/>
      <point x="183" y="611" type="curve"/>
      <point x="239" y="611"/>
      <point x="296" y="611"/>
      <point x="352" y="611" type="curve"/>
      <point x="352" y="719"/>
      <point x="352" y="611"/>
    </contour>
  </outline>
</glyph>
<glyph name="OE" format="1">
  <advance width="858"/>
  <unicode hex="0152"/>
  <outline>
    <contour>
      <point x="551" y="655" type="curve"/>
      <point x="494" y="696"/>
      <point x="429" y="727"/>
      <point x="353" y="727" type="curve"/>
      <point x="145" y="727"/>
      <point x="47" y="571"/>
      <point x="47" y="345" type="curve"/>
      <point x="47" y="138"/>
      <point x="139" y="-5"/>
      <point x="331" y="-5" type="curve"/>
      <point x="433" y="-5"/>
      <point x="502" y="29"/>
      <point x="563" y="98" type="curve"/>
      <point x="481" y="178"/>
      <point x="563" y="98"/>
      <point x="481" y="178" type="curve"/>
      <point x="437" y="136"/>
      <point x="399" y="108"/>
      <point x="338" y="108" type="curve"/>
      <point x="220" y="108"/>
      <point x="188" y="215"/>
      <point x="188" y="350" type="curve"/>
      <point x="188" y="497"/>
      <point x="219" y="614"/>
      <point x="346" y="614" type="curve"/>
      <point x="396" y="614"/>
      <point x="438" y="595"/>
      <point x="474" y="568" type="curve"/>
      <point x="551" y="654"/>
      <point x="474" y="568"/>
    </contour>
    <contour>
      <point x="820" y="54" type="curve"/>
      <point x="820" y="174"/>
      <point x="820" y="54"/>
      <point x="820" y="174" type="curve"/>
      <point x="710" y="174"/>
      <point x="820" y="174"/>
      <point x="710" y="174" type="curve"/>
      <point x="710" y="54"/>
      <point x="710" y="174"/>
      <point x="710" y="54" type="curve"/>
      <point x="820" y="54"/>
      <point x="710" y="54"/>
    </contour>
    <contour>
      <point x="685" y="668" type="curve"/>
      <point x="685" y="548"/>
      <point x="685" y="668"/>
      <point x="685" y="548" type="curve"/>
      <point x="795" y="548"/>
      <point x="685" y="548"/>
      <point x="795" y="548" type="curve"/>
      <point x="795" y="668"/>
      <point x="795" y="548"/>
      <point x="795" y="668" type="curve"/>
      <point x="685" y="668"/>
      <point x="795" y="668"/>
    </contour>
    <contour>
      <point x="500" y="108" type="curve"/>
      <point x="363" y="108"/>
      <point x="500" y="108"/>
      <point x="363" y="108" type="curve"/>
      <point x="363" y="0"/>
      <point x="363" y="108"/>
      <point x="363" y="0" type="curve"/>
      <point x="409" y="0"/>
      <point x="455" y="0"/>
      <point x="500" y="0" type="curve"/>
      <point x="500" y="108"/>
      <point x="500" y="0"/>
    </contour>
    <contour>
      <point x="500" y="722" type="curve"/>
      <point x="455" y="722"/>
      <point x="409" y="722"/>
      <point x="363" y="722" type="curve"/>
      <point x="363" y="614"/>
      <point x="363" y="722"/>
      <point x="363" y="614" type="curve"/>
      <point x="500" y="614"/>
      <point x="363" y="614"/>
      <point x="500" y="614" type="curve"/>
      <point x="500" y="722"/>
      <point x="500" y="614"/>
    </contour>
    <contour>
      <point x="503" y="318" type="curve"/>
      <point x="584" y="318"/>
      <point x="667" y="318"/>
      <point x="749" y="318" type="curve"/>
      <point x="749" y="427"/>
      <point x="749" y="318"/>
      <point x="749" y="427" type="curve"/>
      <point x="667" y="427"/>
      <point x="584" y="427"/>
      <point x="503" y="427" type="curve"/>
      <point x="503" y="318"/>
      <point x="503" y="427"/>
    </contour>
    <contour>
      <point x="491" y="614" type="curve"/>
      <point x="593" y="614"/>
      <point x="694" y="614"/>
      <point x="795" y="614" type="curve"/>
      <point x="795" y="722"/>
      <point x="795" y="614"/>
      <point x="795" y="722" type="curve"/>
      <point x="694" y="722"/>
      <point x="593" y="722"/>
      <point x="491" y="722" type="curve"/>
      <point x="491" y="614"/>
      <point x="491" y="722"/>
    </contour>
    <contour>
      <point x="570" y="0" type="curve"/>
      <point x="570" y="722" type="line"/>
      <point x="429" y="722"/>
      <point x="570" y="722"/>
      <point x="429" y="722" type="curve"/>
      <point x="429" y="481"/>
      <point x="429" y="241"/>
      <point x="429" y="0" type="curve"/>
      <point x="570" y="0"/>
      <point x="429" y="0"/>
    </contour>
    <contour>
      <point x="491" y="0" type="curve"/>
      <point x="601" y="0"/>
      <point x="711" y="0"/>
      <point x="820" y="0" type="curve"/>
      <point x="820" y="108"/>
      <point x="820" y="0"/>
      <point x="820" y="108" type="curve"/>
      <point x="711" y="108"/>
      <point x="601" y="108"/>
      <point x="491" y="108" type="curve"/>
      <point x="491" y="0"/>
      <point x="491" y="108"/>
    </contour>
  </outline>
</glyph>
